<svg width="44" height="70" viewBox="0 0 44 70" fill="none" xmlns="http://www.w3.org/2000/svg">
<path d="M11.5855 69.9081C12.2692 70.2716 12.9905 69.4845 12.5719 68.8329C10.2996 65.2965 8.14793 59.3455 11.5761 51.6815C17.293 38.9011 20.7717 32.2818 20.7717 32.2818C20.7717 32.2818 22.6221 40.0065 27.6378 46.8749C32.4652 53.4852 35.1075 61.7989 30.8478 68.7246C30.448 69.3747 31.1529 70.1416 31.8322 69.794C37.1051 67.0967 43.0192 61.6862 43.6865 50.9194C43.9325 47.6294 43.5635 43.0234 41.7185 37.211C39.3461 29.8443 36.4297 26.4068 34.7423 24.9306C34.2375 24.489 33.4525 24.8804 33.4939 25.5498C33.9856 33.4984 30.9953 35.5155 29.2932 30.9697C28.6135 29.1541 28.217 26.0137 28.217 22.1893C28.217 15.8224 26.3698 9.26823 22.2973 3.94227C21.2383 2.55725 19.9991 1.26305 18.5774 0.159404C18.0627 -0.240237 17.3166 0.161463 17.3637 0.811366C17.6764 5.12758 17.3931 17.4976 6.54068 32.2758C-3.29926 45.9843 0.513688 56.5124 1.86668 59.3638C4.45348 64.8265 8.06169 68.0345 11.5855 69.9081Z" fill="url(#paint0_linear_637_833)"/>
<defs>
<linearGradient id="paint0_linear_637_833" x1="-2.04898e-08" y1="35.0001" x2="61.5969" y2="35.8712" gradientUnits="userSpaceOnUse">
<stop stop-color="#E7194A"/>
<stop offset="1" stop-color="#FFAA00"/>
</linearGradient>
</defs>
</svg>
