<svg width="620" height="60" viewBox="0 0 620 60" fill="none" xmlns="http://www.w3.org/2000/svg">
<path fill-rule="evenodd" clip-rule="evenodd" d="M596.95 59.2284L571.543 36.5733H538.863V22.1471H597.667C599.511 22.1471 601.457 20.4201 601.457 18.2866C601.457 16.2548 599.716 14.5277 597.667 14.5277H538.863V0H597.667C607.604 0 616.107 8.22899 616.107 18.2866C616.107 28.3443 607.809 36.5733 597.565 36.5733H594.696L620 59.2284H596.95ZM58.1891 59.33L32.7826 36.7765H0V22.3503H58.8037C60.6477 22.3503 62.6966 20.6233 62.6966 18.4898C62.6966 16.458 60.9551 14.7309 58.8037 14.7309H0V0.203182H58.8037C68.8434 0.203182 77.2439 8.43217 77.2439 18.4898C77.2439 28.5475 68.9458 36.7765 58.8037 36.7765H55.8328L81.1368 59.33H58.1891ZM112.792 15.0357C104.494 15.0357 97.8354 21.7408 97.8354 29.8682C97.8354 38.0972 104.494 44.8023 112.792 44.8023H168.523V59.4316L112.69 59.5332C96.2988 59.5332 82.8784 46.2246 82.8784 29.8682C82.8784 13.6134 95.9914 0.406365 112.69 0.304773H168.523V15.0357H112.792ZM112.792 37.1828C108.49 37.1828 105.416 33.9319 105.416 29.8682C105.416 25.8045 108.695 22.5535 112.792 22.5535L168.523 22.4519V37.0812L112.792 37.1828ZM204.276 14.9341C195.978 14.9341 189.319 21.6392 189.319 29.8682C189.319 38.0972 195.978 44.7007 204.276 44.7007H260.007V59.33L204.174 59.4316C187.783 59.4316 174.362 46.2246 174.362 29.8682C174.362 13.5118 187.475 0.304773 204.174 0.304773H260.007V14.9341H204.276ZM293.506 59.4316C277.013 59.33 263.695 46.123 263.695 29.7666C263.695 13.4102 276.808 0.304774 293.506 0.203182H334.689C351.388 0.203182 364.501 13.4102 364.501 29.7666C364.501 46.0214 351.183 59.33 334.689 59.33L293.506 59.4316ZM334.689 44.7007C342.885 44.7007 349.646 37.9956 349.646 29.8682C349.646 21.6392 342.885 14.9341 334.587 14.9341L293.609 15.0357C285.311 15.0357 278.652 21.6392 278.652 29.8682C278.652 38.0972 285.311 44.7007 293.609 44.7007H334.689ZM473.913 14.9341C465.615 14.9341 458.956 21.6392 458.956 29.7666C458.956 37.9956 465.615 44.7007 473.913 44.7007H529.643V59.33L473.81 59.4316C457.317 59.4316 443.999 46.123 443.999 29.8682C443.999 13.5118 457.112 0.304774 473.81 0.203182H529.643V14.9341H473.913ZM473.913 37.0812C469.61 37.0812 466.434 33.8303 466.434 29.7666C466.434 25.7029 469.815 22.4519 473.913 22.4519L529.643 22.3503V36.9797L473.913 37.0812ZM401.484 59.33L358.047 0.203182H377.409L404.865 37.1828L432.525 0.101591H451.785L408.348 59.33H401.484Z" fill="#1C1C1C"/>
</svg>
