<svg width="165" height="177" viewBox="0 0 165 177" fill="none" xmlns="http://www.w3.org/2000/svg">
<path fill-rule="evenodd" clip-rule="evenodd" d="M165 144.844C148.634 164.443 123.93 176.998 96.2415 176.998C67.9351 177.1 42.5109 164.034 26.2477 143.722H96.5502C101.697 143.619 106.741 142.905 111.475 141.578L97.7854 129.227L0.308796 129.329L0 97.5837L96.1385 97.6857C101.388 97.6857 105.711 93.3986 105.711 88.1928C105.608 82.9869 101.388 78.8019 96.2415 78.6998L0 78.8019V47.1586L95.8297 47.0566C118.886 47.0566 137.414 65.43 137.414 88.0907C137.414 97.7878 133.812 106.872 128.356 113.609L165 144.844ZM26.9682 32.1536C43.3344 12.5552 68.0381 0.102075 95.6239 0C123.416 0 148.119 12.3511 164.691 32.0515L139.679 53.2831C129.283 40.83 113.431 32.3578 96.1385 32.1536H26.9682Z" fill="#1C1C1C"/>
</svg>
