<svg width="1056" height="1056" viewBox="0 0 1056 1056" fill="none" xmlns="http://www.w3.org/2000/svg">
<rect width="1056" height="1056" fill="#FCFCFC"/>
<path fill-rule="evenodd" clip-rule="evenodd" d="M0 528V1056H528H1056V528V0H528H0V528ZM529.65 174.075C529.65 300.849 529.622 301.95 526.35 301.95C523.078 301.95 523.05 300.849 523.05 175.176C523.05 105.448 523.545 47.9044 524.151 47.3005C524.754 46.695 526.239 46.2 527.451 46.2C529.264 46.2 529.65 68.6119 529.65 174.075ZM511.5 115.304V121.707L495.413 122.871C401.91 129.634 309.915 172.131 241.699 240.075C210.698 270.953 181.205 312 163.451 348.975C156.105 364.271 154.97 365.744 147.888 369.166C141.516 372.247 140.25 372.436 140.25 370.319C140.25 365.531 157.72 329.172 168.343 311.85C220.887 226.174 300.495 162.103 394.215 130.063C425.179 119.476 474.251 110.035 502.837 109.164L511.5 108.9V115.304ZM579.411 111.482C671.542 123.163 753.499 162.474 819.857 226.814C854.002 259.92 879.575 294.249 901.398 336.275L912.976 358.571L905.005 357.477C900.623 356.877 896.877 356.204 896.684 355.981C896.491 355.758 893.183 349.279 889.333 341.585C879.996 322.925 865.456 300.049 850.05 279.784C835.232 260.292 802.01 226.5 782.1 210.67C718.86 160.383 644.267 130.469 564.145 123.265L542.025 121.275L541.513 115.088L541 108.9H550.024C554.987 108.9 568.21 110.062 579.411 111.482ZM511.5 174.781V181.262L502.012 182.262C440.248 188.775 392.853 204.428 344.957 234.135C303.282 259.982 259.677 303.057 236.506 341.265L228.525 354.427L220.686 355.001C216.376 355.316 212.848 355.247 212.848 354.846C212.852 353.484 226.416 331.274 232.939 321.953C284.242 248.638 362.606 196.305 450.45 176.69C466.069 173.202 495.944 168.792 506.137 168.47C511.307 168.307 511.5 168.534 511.5 174.781ZM570.085 170.805C677.434 183.35 771.58 242.34 831.91 334.863C838.091 344.343 843.15 352.62 843.15 353.252C843.15 353.885 840.154 354.689 836.492 355.039L829.833 355.674L817.702 337.474C758.962 249.36 666.067 193.38 561.412 183.031L541.2 181.033V174.666C541.2 167.076 539.786 167.265 570.085 170.805ZM584.925 233.653C646.732 245.867 701.455 275.717 744.638 320.775C755.558 332.17 782.1 365.833 782.1 368.288C782.1 370.362 771.901 374.918 770.542 373.453C769.837 372.695 763.696 364.65 756.893 355.575C727.373 316.189 683.45 282.001 638.55 263.462C611.2 252.168 575.758 243.693 549.45 242.159C542.645 241.761 541.98 241.334 541.489 237.049C540.515 228.535 541.202 228.212 557.114 229.688C565.15 230.436 577.665 232.219 584.925 233.653ZM511.5 235.653V241.956L493.906 244C461.14 247.81 420.961 260.461 392.7 275.868C360.999 293.152 329.515 318.942 307.405 345.734L293.344 362.777L287.747 360.108C284.668 358.639 282.15 356.991 282.15 356.445C282.15 355.897 287.135 349.166 293.228 341.487C325.233 301.153 369.027 268.681 417.76 249.155C444.857 238.296 480.566 230.068 502.837 229.551L511.5 229.35V235.653ZM511.5 295.35C511.5 298.98 510.888 301.95 510.139 301.95C509.39 301.95 500.328 303.471 490.002 305.331C433.698 315.468 386.702 343.428 350.189 388.511C345.066 394.837 344.817 394.942 342.41 391.811C335.382 382.666 337.484 378.764 362.361 354.75C370.352 347.036 375.5 342 377 340.5C377 340.5 379 339.201 379 339C380 338.5 384.594 335.772 389.519 332.069C401.758 322.872 430.137 308.218 447.346 302.211C464.416 296.251 493.134 289.973 507.788 288.997C511.059 288.78 511.5 289.532 511.5 295.35ZM564.156 291.283C624.645 301.092 676.84 330.879 714.397 377.025C724.175 389.04 735.9 406.527 735.9 409.098C735.9 411.149 730.348 420.727 729.153 420.74C728.617 420.745 727.275 418.763 726.168 416.336C725.063 413.907 719.812 405.903 714.501 398.546C684.755 357.34 645.241 328.098 598.863 312.965C585.46 308.593 565.948 304.461 550.688 302.767L541.2 301.712V295.231C541.2 287.534 541.126 287.547 564.156 291.283ZM522.774 321.664C522.131 323.496 474.19 382.029 447.975 412.992C437.992 424.781 427.226 437.565 424.05 441.4C417.851 448.881 349.039 528.998 345.634 532.698C343.964 534.511 342.792 533.181 339.252 525.446C336.866 520.235 331.868 511.508 328.144 506.053C321.971 497.01 321.461 495.48 322.387 488.728C325.123 468.775 339.382 434.448 354.199 412.147C364.31 396.929 391.454 369.47 407.55 358.177C428.583 343.419 452.125 332.698 478.454 325.883C496.841 321.125 523.87 318.552 522.774 321.664ZM669.692 376.314C682.712 387.408 698.874 407.273 709.738 425.533L717.981 439.393L716.476 453.583C714.777 469.6 716.377 489.129 720.365 501.06C723.452 510.292 731.508 525.038 735.085 528.008C738.886 531.163 737.527 550.884 732.385 567.188L730.694 572.55H692.046H653.4V467.519C653.4 367.663 653.542 362.609 656.287 364.921C657.875 366.259 663.907 371.387 669.692 376.314ZM270.612 371.332C283.453 373.057 307.385 379.81 317.49 384.561L324.766 387.981L320.966 396.528C318.877 401.229 313.881 412.129 309.863 420.75C305.847 429.371 300.425 441.091 297.815 446.794C294.243 454.598 292.433 456.906 290.497 456.131C260.781 444.221 239.275 440.34 220.362 443.475C208.19 445.492 201.28 450.074 201.325 456.1C201.379 463.469 206.331 466.212 235.541 475.06C273.436 486.537 292.387 495.747 307.829 510.193C326.438 527.601 332.817 545.881 331.195 577.165C330.231 595.785 326.819 608.5 319.387 621.18C310.502 636.346 288.951 652.294 268.975 658.492C235.224 668.963 182.718 669.187 147.055 659.013C131.678 654.628 102.3 641.333 102.3 638.763C102.3 637.895 108.611 623.299 116.325 606.327C124.039 589.355 130.362 574.999 130.375 574.423C130.39 573.847 131.003 572.425 131.741 571.261C132.762 569.654 135.302 570.484 142.374 574.743C147.484 577.82 158.935 582.782 167.82 585.77C200.383 596.716 238.583 593.482 240.588 579.607C241.512 573.228 235.173 569.631 207.565 560.876C135.873 538.139 110.55 512.554 110.55 462.855C110.55 410.832 146.512 376.505 208.072 369.768C222.701 368.168 252.625 368.915 270.612 371.332ZM897.522 371.387C912.24 373.27 929.308 378.16 943.392 384.531L953.71 389.197L947.76 402.087C944.486 409.175 937.786 423.865 932.867 434.73C927.948 445.596 923.284 455.126 922.502 455.908C921.706 456.703 913.914 454.603 904.802 451.136C889.865 445.452 886.825 444.881 867.872 444.213C851.796 443.645 845.884 444.043 841.188 446.005C833.202 449.341 829.331 455.209 831.448 460.774C833.209 465.407 836.283 466.74 866.294 475.886C923.809 493.416 951.359 514.689 958.732 547.264C961.33 558.73 960.881 585.207 957.871 598.183C950.542 629.789 926.703 651.684 888.525 661.876C871.86 666.324 824.068 668.036 801.167 665.003C778.739 662.031 743.01 649.321 730.356 639.811C727.398 637.586 727.449 637.187 731.801 628.599C738.469 615.44 743.845 600.377 748.958 580.519L753.509 562.845L761.617 568.661C772.806 576.687 782.455 581.422 798.727 586.87C811.018 590.987 815.009 591.525 833.25 591.525C850.575 591.525 854.931 590.997 860.475 588.225C865.808 585.559 867.172 583.925 867.58 579.721C868.288 572.43 865.075 570.613 834.075 560.779C771.979 541.081 744.406 516.965 739.055 477.675C732.838 432.026 753.883 396.208 797.024 379.018C822.822 368.74 856.716 366.166 897.522 371.387ZM524.7 518.925V572.55H481.642H438.583L444.104 565.227C462.417 540.936 522.43 465.415 523.462 465.363C524.144 465.328 524.7 489.431 524.7 518.925ZM337.681 641.438C371.049 699.303 431.706 739.909 499.288 749.625L513.975 751.737L514.501 758.091L515.029 764.445L502.986 763.326C479.256 761.12 446.292 751.237 422.128 739.081C387.474 721.649 349.287 686.23 328.429 652.174L323.131 643.521L326.977 638.652C329.094 635.974 331.351 633.742 331.993 633.691C332.635 633.641 335.194 637.126 337.681 641.438ZM724.523 658.159L728.363 661.269L723.565 668.192C716.034 679.059 696.442 700.177 685.575 709.142C649.064 739.261 600.788 759.757 557.999 763.305L544.271 764.443L544.799 758.01L545.325 751.575L556.695 750.451C605.786 745.6 657 720.959 690.794 685.931C698.862 677.568 707.984 667.199 711.062 662.888C717.265 654.202 718.92 653.621 724.523 658.159ZM932.25 660.45C932.25 662.996 920.132 691.243 912.623 706.2C889.739 751.786 865.283 784.951 825.825 823.908C776.503 872.604 722.24 905.203 654.878 926.605C626.86 935.507 585.821 942.95 558.525 944.079L545.325 944.625L544.825 938.64L544.325 932.654L558.85 931.516C631.14 925.85 697.77 903.045 756.363 863.915C781.89 846.867 796.089 835.182 820.05 811.496C859.607 772.395 891.52 726.023 910.782 679.656C915.364 668.626 916.801 666.725 922.878 663.671C929.377 660.404 932.25 659.418 932.25 660.45ZM158.463 684.588C178.017 732.607 212.134 781.948 252.569 820.695C319.283 884.623 405.796 923.046 502.1 931.521L514.975 932.654L514.475 938.639L513.975 944.625L503.25 944.082C443.697 941.069 375.844 920.525 322.022 889.206C286.485 868.529 261.975 849.237 231.79 818.181C196.045 781.409 170.179 743.277 149.363 696.67C136.625 668.149 136.798 669.628 146.581 672.756C154.161 675.18 154.952 675.967 158.463 684.588ZM288.705 676.774C301.706 699.905 335.824 737.1 361.35 755.966C403.435 787.073 446.432 803.326 506.962 811.008L514.8 812.003V818.669V825.335L502.837 824.216C419.999 816.466 343.124 773.238 292.779 706.101C282.98 693.033 271.504 674.977 272.484 674.172C279.713 668.238 284.323 668.978 288.705 676.774ZM524.7 702.9V734.25H515.841C484.494 734.25 438.846 718.283 408.375 696.66C394.777 687.01 381.15 675.197 381.15 673.06C381.15 672.17 410.619 671.55 452.925 671.55H524.7V702.9ZM668.539 679.871C663.706 684.379 658.322 688.832 656.576 689.766C653.605 691.357 653.4 690.825 653.4 681.508V671.55L665.362 671.613L677.325 671.675L668.539 679.871ZM788.528 680.739C790.459 682.64 769.522 710.078 751.923 728.713C699.97 783.727 629.838 818.313 558.112 824.292L544.5 825.426V818.944V812.462L563.062 810.411C643.213 801.558 715.971 759.028 766.14 691.706C776.135 678.294 776.432 678.058 782.1 679.067C785.276 679.632 788.169 680.384 788.528 680.739ZM232.501 699.188C284.437 789.794 374.411 851.855 476.85 867.727C489.101 869.624 502.466 871.368 506.55 871.601C513.851 872.018 513.983 872.127 514.487 878.212L515 884.4H507.844C477.952 884.4 424.274 871.499 387.811 855.551C318.996 825.455 258.326 771.033 221.044 705.957C215.508 696.295 210.571 686.829 210.073 684.92C209.263 681.821 209.87 681.45 215.751 681.45H222.336L232.501 699.188ZM856.35 683.991C856.35 685.869 848.955 699.319 840.962 711.975C811.914 757.972 762.458 806.419 715.795 834.59C670.405 861.993 611.739 880.699 561.297 883.851L544.271 884.915L544.797 878.577L545.325 872.24L554.4 871.688C572.23 870.608 608.348 864.183 627.417 858.7C687.365 841.462 737.223 810.902 783.823 762.833C804.875 741.116 818.601 723.631 832.799 700.443C841.563 686.131 842.775 684.851 848.097 684.278C851.275 683.935 854.431 683.531 855.112 683.377C855.794 683.225 856.35 683.501 856.35 683.991ZM532.95 879.45C532.95 1005.4 532.922 1006.5 529.65 1006.5C526.378 1006.5 526.35 1005.4 526.35 879.45C526.35 753.501 526.378 752.4 529.65 752.4C532.922 752.4 532.95 753.501 532.95 879.45Z" fill="#E7194A"/>
</svg>
