<svg width="320" height="240" viewBox="0 0 320 240" fill="none" xmlns="http://www.w3.org/2000/svg">
<rect y="0.255493" width="320" height="239" fill="#E7194A"/>
<path fill-rule="evenodd" clip-rule="evenodd" d="M149.644 90.0929C149.644 96.9617 149.749 100.699 149.942 100.699C150.135 100.699 150.239 96.9617 150.239 90.0929C150.239 83.2241 150.135 79.4868 149.942 79.4868C149.749 79.4868 149.644 83.2241 149.644 90.0929ZM145.63 84.9799C140.948 85.5759 135.582 87.6417 131.18 90.5435C126.844 93.4017 121.871 99.1041 119.492 103.947C118.566 105.83 118.564 105.85 119.264 105.85C119.646 105.85 120.205 105.11 121.097 103.421C126.19 93.7802 135.786 87.3402 147.042 86.0089C148.464 85.8411 148.752 85.7083 148.752 85.2226C148.752 84.5789 148.77 84.5802 145.63 84.9799ZM151.238 85.0947C151.139 85.358 151.108 85.6168 151.169 85.6698C151.23 85.7226 152.772 85.9814 154.596 86.245C165.13 87.7668 173.992 94.0032 179.261 103.603C179.983 104.92 180.508 105.547 180.887 105.547C181.512 105.547 181.468 105.359 180.332 103.18C175.541 93.9905 166.114 86.9674 156.323 85.2941C152.398 84.6232 151.43 84.5853 151.238 85.0947ZM145.082 90.1074C141.152 90.7795 136.308 92.8644 132.873 95.3617C130.58 97.0292 127.061 100.787 125.512 103.223C124.348 105.055 124.338 105.095 125.004 105.198C125.378 105.256 125.728 105.17 125.782 105.006C126.122 103.966 129.666 99.6156 131.385 98.1292C136.054 94.0898 140.493 92.0077 146.223 91.1686C148.054 90.9004 148.624 90.702 148.698 90.305C148.777 89.888 148.579 89.7965 147.659 89.8256C147.033 89.845 145.874 89.972 145.082 90.1074ZM151.179 90.2732C151.268 90.7468 151.661 90.892 153.366 91.0826C161.39 91.9783 169.017 96.7511 173.699 103.805C174.301 104.713 174.873 105.244 175.245 105.244C175.763 105.244 175.793 105.16 175.489 104.563C174.631 102.879 172.43 100.068 170.42 98.0901C165.648 93.3929 159.45 90.4308 153.257 89.8874C151.215 89.7083 151.077 89.7338 151.179 90.2732ZM145.63 95.0859C139.842 96.1786 133.861 99.9153 130.689 104.42C129.85 105.612 129.79 105.813 130.226 105.984C130.585 106.124 131.066 105.769 131.926 104.727C135.72 100.133 140.427 97.3065 145.977 96.288C148.319 95.8583 148.752 95.6898 148.752 95.2086C148.752 94.548 148.527 94.5392 145.63 95.0859ZM151.131 95.2095C151.131 95.6753 151.436 95.8195 152.783 95.9911C158.906 96.7705 164.998 100.249 168.381 104.896C169.117 105.908 169.953 106.741 170.239 106.747C171.018 106.766 170.88 106.292 169.601 104.55C166.047 99.7101 160.35 96.1559 154.403 95.0677C151.41 94.5201 151.131 94.5323 151.131 95.2095ZM61.2406 96.0514C60.7484 96.1901 60.7223 97.2059 60.7945 113.373L60.8713 130.547H65.0348H69.1984L69.2778 122.948L69.3572 115.348L70.1979 114.527C71.2757 113.475 72.9382 113.173 73.9461 113.846L74.6904 114.343L74.7698 122.445L74.849 130.547L79.0869 130.631L83.3248 130.716V121.52C83.3248 110.741 83.2008 109.983 81.1208 108.029C79.7025 106.697 78.49 106.297 76.0385 106.352C73.858 106.401 72.22 106.945 70.7032 108.125L69.3587 109.171L69.2784 102.587L69.1984 96.002L65.4809 95.9529C63.4363 95.9256 61.5282 95.9701 61.2406 96.0514ZM186.361 96.2292C186.283 96.4377 186.253 104.244 186.296 113.578L186.373 130.547H190.537H194.7L194.78 122.948L194.859 115.348L195.713 114.514C196.866 113.389 198.609 113.148 199.612 113.975L200.351 114.584L200.443 122.641L200.535 130.699H204.681H208.827V121.467C208.827 111.075 208.693 110.198 206.81 108.204C205.518 106.835 204.205 106.348 201.838 106.359C199.424 106.37 197.81 106.876 196.199 108.13L194.849 109.18V102.699C194.849 97.0689 194.787 96.1941 194.378 96.0344C194.12 95.9332 192.242 95.8505 190.206 95.8505C187.518 95.8505 186.464 95.9544 186.361 96.2292ZM145.927 100.1C142.242 100.853 137.744 103.578 135.353 106.505C134.544 107.496 133.882 108.427 133.882 108.576C133.882 109.44 134.715 108.914 136.912 106.66C139.899 103.597 142.965 101.875 146.515 101.267C148.335 100.955 148.752 100.782 148.752 100.337C148.752 99.7317 148.024 99.6705 145.927 100.1ZM151.131 100.215C151.131 100.784 151.162 100.796 153.808 101.276C157.946 102.027 162.45 105.04 165.28 108.949C166.319 110.383 166.597 110.608 166.888 110.251C167.168 109.907 167.042 109.524 166.266 108.365C163.261 103.875 157.935 100.496 152.955 99.9217C151.371 99.7392 151.131 99.7777 151.131 100.215ZM265.332 103.411V106.729L263.622 106.82L261.912 106.911L261.827 110.017C261.732 113.504 261.541 113.255 264.217 113.129L265.332 113.077V118.151C265.332 125.861 265.896 128.068 268.284 129.707C269.728 130.699 271.369 131.068 274.297 131.059C276.884 131.051 280.5 130.277 280.5 129.73C280.5 129.574 280.143 128.09 279.706 126.432C278.973 123.647 278.866 123.435 278.293 123.645C277.953 123.77 277.01 123.875 276.198 123.877C274.112 123.882 273.967 123.484 273.961 117.744L273.957 113.123H276.485H279.013V109.941V106.76H276.485H273.957V103.426V100.093H269.644H265.332V103.411ZM147.191 102.528C143.148 103.221 138.235 106.419 136.266 109.639C135.722 110.528 135.722 110.587 136.271 112.245C136.581 113.178 136.939 114.811 137.068 115.873L137.302 117.803L142.061 111.927C144.678 108.695 147.454 105.289 148.229 104.36C149.005 103.43 149.64 102.567 149.642 102.441C149.645 102.177 149.134 102.194 147.191 102.528ZM160.351 114.573V123.426H163.456C165.164 123.426 166.642 123.293 166.74 123.13C166.839 122.968 167 122.147 167.097 121.307C167.233 120.139 167.162 119.653 166.795 119.24C165.925 118.261 165.373 116.103 165.455 114.007C165.525 112.214 165.438 111.863 164.592 110.523C164.074 109.703 162.908 108.287 162 107.376L160.351 105.72V114.573ZM48.5822 106.518C43.8631 107.169 41.0943 110.083 41.0943 114.399C41.0943 116.219 41.7251 117.813 42.9682 119.135C44.1753 120.418 45.6168 121.19 48.9753 122.35C51.8098 123.329 52.2542 123.84 50.9084 124.569C49.7822 125.179 46.8308 124.862 44.7927 123.911C43.8461 123.469 42.978 123.214 42.8635 123.343C42.5608 123.684 40.4995 128.447 40.4995 128.806C40.4995 129.159 42.7377 130.18 44.6497 130.699C46.6372 131.239 51.6433 131.184 53.604 130.601C56.0388 129.877 57.6555 128.555 58.5548 126.553C59.2049 125.107 59.2903 124.569 59.1707 122.672C59.003 120.009 58.247 118.583 56.3532 117.36C54.9218 116.435 52.6084 115.445 50.7505 114.962C50.0912 114.791 49.2882 114.443 48.9661 114.19C48.3883 113.735 48.3898 113.721 49.0827 113.123C50.0052 112.327 51.8765 112.333 54.2238 113.138C55.2192 113.48 56.065 113.719 56.1034 113.669C56.1911 113.555 57.6701 110.278 58.2357 108.945C58.6577 107.95 58.6571 107.948 57.613 107.503C55.342 106.536 51.4928 106.116 48.5822 106.518ZM124.463 106.467C122.945 106.777 121.724 107.398 120.973 108.244C120.171 109.146 119.905 109.038 119.905 107.812V106.743L115.815 106.827L111.726 106.911L111.65 123.957L111.573 141.002H115.887H120.202V135.515C120.202 130.409 120.238 130.043 120.723 130.245C123.172 131.265 127.588 131.23 129.57 130.173C132.641 128.537 134.712 125.549 135.403 121.76C135.805 119.558 135.575 115.043 134.957 113.001C134.074 110.08 131.821 107.567 129.421 106.827C127.817 106.332 125.831 106.187 124.463 106.467ZM173.288 106.724C169.656 107.698 167.188 110.703 167.193 114.146C167.198 118.224 169.661 120.716 175.429 122.477C176.606 122.837 177.665 123.288 177.781 123.479C177.899 123.674 177.694 124.073 177.317 124.384C176.013 125.46 172.063 124.876 169.727 123.261C169.112 122.836 168.576 122.528 168.537 122.578C168.498 122.628 168.196 123.555 167.866 124.638C167.536 125.722 167.048 127.116 166.782 127.736L166.298 128.864L167.224 129.353C172.378 132.069 180.602 131.653 183.455 128.532C186.19 125.54 185.91 119.886 182.917 117.677C181.667 116.754 178.742 115.444 176.847 114.958C176.188 114.789 175.385 114.443 175.063 114.19C174.485 113.735 174.486 113.721 175.179 113.123C176.102 112.327 177.973 112.333 180.32 113.138C181.316 113.48 182.164 113.719 182.204 113.669C182.588 113.198 184.696 108.148 184.585 107.966C184.505 107.833 183.804 107.49 183.027 107.204C181.466 106.627 174.861 106.302 173.288 106.724ZM93.5214 107.487C89.1327 108.939 86.0867 112.707 85.4753 117.441C84.9174 121.757 86.2372 126.113 88.8439 128.561C93.5868 133.016 101.92 132.909 106.4 128.336C108.539 126.152 109.55 123.633 109.726 120.048C110.006 114.349 108.132 110.722 103.722 108.427C101.463 107.252 101.297 107.214 98.0843 107.144C95.9095 107.097 94.3449 107.214 93.5214 107.487ZM219.384 107.472C214.816 109.008 211.865 112.618 211.187 117.5C209.94 126.469 216.833 133.191 225.668 131.623C231.759 130.543 235.6 125.73 235.589 119.196C235.58 114.057 233.301 110.211 229.05 108.158C227.305 107.315 226.798 107.217 223.845 107.148C221.739 107.099 220.15 107.214 219.384 107.472ZM245.555 107.524C242.218 108.788 240.177 110.503 238.84 113.169C236.896 117.043 236.896 121.93 238.839 125.803C242.23 132.562 252.94 133.96 258.434 128.363C264.397 122.287 262.512 111.027 255.021 107.974C252.798 107.067 247.434 106.812 245.555 107.524ZM99.3081 113.79C101.104 115.308 101.36 123.063 99.6707 124.784C99.2442 125.219 98.6779 125.396 97.7147 125.396C96.6087 125.396 96.231 125.244 95.6644 124.573C94.7116 123.444 94.2149 120.759 94.4302 117.9C94.6247 115.315 95.2052 113.847 96.2027 113.416C97.0155 113.065 98.6881 113.267 99.3081 113.79ZM124.926 113.617C125.307 113.889 125.805 114.567 126.033 115.123C126.527 116.327 126.59 120.882 126.13 122.119C125.324 124.286 123.412 125.112 121.373 124.175L120.202 123.637L120.207 119.062L120.213 114.487L121.17 113.805C122.303 112.998 123.943 112.916 124.926 113.617ZM224.797 113.717C226.04 114.489 226.465 116.051 226.451 119.793C226.434 124.277 225.424 125.888 222.929 125.411C220.878 125.019 219.973 122.691 220.184 118.347C220.326 115.409 220.798 114.09 221.912 113.515C222.952 112.98 223.694 113.031 224.797 113.717ZM250.867 113.54C252.324 114.161 252.693 115.362 252.693 119.487C252.693 121.713 252.549 123.318 252.295 123.93C251.468 125.927 248.505 126.041 247.407 124.119C246.618 122.736 246.276 119.786 246.602 117.166C246.913 114.67 247.302 113.854 248.377 113.451C249.43 113.056 249.756 113.068 250.867 113.54ZM146.275 118.733L142.757 123.275L146.24 123.36C148.156 123.407 149.777 123.393 149.841 123.327C149.906 123.261 149.921 121.179 149.876 118.7L149.793 114.192L146.275 118.733ZM133.3 129.017C133.011 129.372 133.125 129.729 133.889 130.86C136.897 135.315 142.133 138.65 147.191 139.333C148.643 139.529 148.752 139.499 148.752 138.909C148.752 138.45 148.564 138.275 148.071 138.275C146.803 138.275 143.855 137.362 141.761 136.32C139.312 135.103 136.526 132.635 134.924 130.266C134.297 129.337 133.755 128.578 133.721 128.578C133.686 128.578 133.497 128.776 133.3 129.017ZM163.176 132.662C161.22 134.721 160.348 135.385 158.269 136.401C156.799 137.119 154.808 137.808 153.512 138.048C151.857 138.353 151.257 138.592 151.185 138.973C151.064 139.612 151.759 139.63 154.403 139.058C158.388 138.195 162.517 135.677 164.962 132.619C166.243 131.017 166.48 130.364 165.834 130.22C165.681 130.186 164.485 131.284 163.176 132.662ZM129.204 131.854C128.933 132.03 129.041 132.4 129.625 133.289C133.682 139.467 140.203 143.577 147.34 144.453C148.558 144.603 148.752 144.553 148.752 144.09C148.752 143.654 148.251 143.456 146.092 143.04C142.737 142.394 140.066 141.309 137.35 139.488C135.09 137.974 132.151 135.029 130.771 132.896C129.894 131.542 129.792 131.474 129.204 131.854ZM139.087 132.676C141.564 134.853 146.106 136.76 148.815 136.76H149.942V134.184V131.608L143.92 131.62L137.897 131.631L139.087 132.676ZM160.351 132.376C160.351 133.027 160.434 133.099 160.896 132.847C161.195 132.684 161.613 132.338 161.824 132.079C162.158 131.67 162.086 131.608 161.279 131.608C160.484 131.608 160.351 131.718 160.351 132.376ZM169.052 133.502C167.79 135.276 165.292 137.814 163.732 138.908C163.018 139.409 162.433 139.892 162.433 139.981C162.433 140.456 164.646 139.733 165.618 138.941C167.559 137.36 171.057 133.2 171.057 132.473C171.057 131.753 169.86 132.367 169.052 133.502ZM123.771 132.762C123.771 133.165 125.809 136.491 127.104 138.204C131.584 144.125 139.481 148.634 146.627 149.352C148.662 149.556 148.752 149.538 148.752 148.92C148.752 148.377 148.574 148.274 147.637 148.268C145.774 148.257 141.457 147.15 138.938 146.038C133.914 143.82 129.424 139.906 126.447 135.151C125.431 133.527 124.615 132.534 124.291 132.528C124.005 132.522 123.771 132.627 123.771 132.762ZM174.626 133.881C174.119 134.631 173.599 135.244 173.468 135.244C172.902 135.244 170.713 137.909 170.397 138.983C170.205 139.635 169.678 140.441 169.216 140.79C168.756 141.136 168.381 141.59 168.381 141.799C168.381 142.388 168.955 142.609 169.435 142.203C169.802 141.893 169.868 142.024 169.868 143.066C169.868 143.743 169.995 144.638 170.151 145.055C170.358 145.609 170.309 146.071 169.971 146.76C169.424 147.879 169.574 148.153 170.469 147.665C171.033 147.357 171.247 147.429 172.055 148.192C173.902 149.935 175.931 150.699 178.718 150.699C180.325 150.699 182.798 150.042 183.688 149.379C184.253 148.958 184.248 148.908 183.431 146.839C182.25 143.852 182.342 143.943 181.082 144.48C178.619 145.529 177.297 144.905 177.079 142.59C176.951 141.231 177.025 140.954 177.699 140.267C178.566 139.383 179.036 139.333 180.719 139.943C181.371 140.18 182 140.276 182.118 140.156C182.236 140.036 182.734 138.944 183.225 137.731L184.119 135.523L183.164 134.93C181.895 134.142 180.814 133.961 178.089 134.083C175.968 134.177 175.394 134.03 176.113 133.578C176.566 133.293 176.467 132.517 175.978 132.517C175.741 132.517 175.132 133.131 174.626 133.881ZM188.262 134.44C184.17 135.982 182.171 141.071 183.856 145.659C185.494 150.118 190.925 151.978 195.56 149.668C200.949 146.981 201.284 138.38 196.128 135.093C194.855 134.281 194.415 134.176 192.025 134.107C190.332 134.059 188.948 134.181 188.262 134.44ZM208.436 134.228C208.331 134.336 206.502 134.397 204.372 134.363L200.5 134.303L200.482 136.365C200.472 137.499 200.47 141.085 200.477 144.335L200.489 150.244L203.907 150.33L207.325 150.415L207.407 145.355C207.466 141.692 207.589 140.26 207.853 140.171C208.129 140.077 208.237 141.286 208.299 145.146L208.381 150.244H211.801H215.221L215.369 145.269C215.475 141.725 215.623 140.258 215.882 140.17C216.158 140.077 216.267 141.286 216.328 145.146L216.41 150.244H219.83H223.25L223.332 144.974C223.438 138.13 223.183 136.663 221.63 135.169C220.511 134.093 220.344 134.032 218.492 134.032C217.107 134.032 216.186 134.213 215.341 134.653L214.147 135.273L213.162 134.653C212.457 134.209 211.671 134.032 210.403 134.032C209.427 134.032 208.542 134.12 208.436 134.228ZM182.267 135.493L182.919 135.853L182.3 137.371L181.681 138.889L179.806 138.693C177.986 138.503 177.902 138.526 176.988 139.458C176.089 140.373 176.051 140.51 176.167 142.367C176.33 144.982 177.076 145.85 179.158 145.85C179.958 145.85 180.855 145.718 181.152 145.557C181.615 145.304 181.781 145.482 182.322 146.809C182.669 147.66 182.953 148.456 182.953 148.579C182.953 149.021 180.088 149.63 178.195 149.591C173.742 149.499 171.129 147.094 170.828 142.812C170.577 139.233 172.363 136.439 175.584 135.369C177.077 134.873 181.284 134.952 182.267 135.493ZM194.329 135.374C197.249 136.436 198.761 138.782 198.75 142.237C198.74 145.491 197.296 147.926 194.696 149.071C193.094 149.777 189.716 149.765 188.235 149.049C185.658 147.803 184.326 145.531 184.317 142.366C184.304 137.807 187.091 134.968 191.578 134.968C192.477 134.968 193.715 135.15 194.329 135.374ZM212.395 135.396C212.87 135.646 213.391 136.089 213.554 136.381C213.769 136.766 213.966 136.828 214.271 136.608C214.502 136.441 215.057 136.043 215.504 135.722C216.623 134.918 219.167 134.733 220.372 135.368C222.039 136.246 222.21 136.993 222.21 143.411V149.184H219.83H217.451L217.447 144.866C217.442 139.465 217.376 139.184 216.115 139.184C214.53 139.184 214.384 139.631 214.451 144.274C214.484 146.565 214.435 148.641 214.343 148.887C214.21 149.243 213.686 149.315 211.798 149.237L209.421 149.138V144.64C209.421 142.167 209.34 139.927 209.241 139.663C209.126 139.359 208.699 139.184 208.068 139.184C206.384 139.184 206.15 139.875 206.15 144.857V149.184H203.771H201.392V142.214V135.244H203.771C206.147 135.244 206.15 135.245 206.15 136.049C206.15 136.79 206.191 136.817 206.671 136.39C208.276 134.96 210.752 134.53 212.395 135.396ZM121.392 137.716C121.392 139.077 123.312 141.728 126.628 144.945C131.937 150.095 139.039 153.536 145.927 154.294C148.467 154.574 148.752 154.533 148.752 153.885C148.752 153.606 148.193 153.403 147.042 153.264C141.086 152.547 136.332 150.777 131.355 147.42C128.702 145.631 124.913 141.797 122.933 138.898L121.392 136.642V137.716ZM149.644 149.032C149.644 155.8 149.749 159.487 149.942 159.487C150.134 159.487 150.239 155.8 150.239 149.032C150.239 142.265 150.134 138.578 149.942 138.578C149.749 138.578 149.644 142.265 149.644 149.032ZM190.082 139.042C189.597 139.639 189.366 142.09 189.627 143.87C189.865 145.483 190.81 146.34 192.013 146.032C193.084 145.758 193.479 144.767 193.487 142.34C193.496 139.623 192.932 138.578 191.458 138.578C190.91 138.578 190.29 138.787 190.082 139.042ZM192.331 140.178C192.425 140.558 192.461 141.751 192.411 142.83C192.326 144.684 192.282 144.79 191.591 144.79C191.066 144.79 190.803 144.577 190.654 144.032C190.342 142.888 190.353 141.136 190.678 140.264C191.05 139.268 192.094 139.214 192.331 140.178ZM157.116 142.264C156.237 142.581 154.531 142.997 153.324 143.187C151.526 143.472 151.131 143.634 151.131 144.087C151.131 144.727 151.238 144.736 153.808 144.323C156.607 143.873 158.342 143.209 158.952 142.356C159.589 141.465 159.368 141.454 157.116 142.264ZM161.986 142.265C159.964 143.404 159.189 145.15 159.768 147.259C160.295 149.177 161.698 150.224 163.734 150.219C165.606 150.215 166.704 149.539 167.537 147.876C168.533 145.885 167.88 143.727 165.911 142.504C164.866 141.854 162.924 141.736 161.986 142.265ZM156.923 147.545C156.755 147.616 155.417 147.85 153.95 148.067C151.768 148.387 151.263 148.561 151.176 149.019C151.078 149.537 151.233 149.564 153.223 149.376C156.34 149.081 158.02 148.6 157.912 148.033C157.816 147.534 157.417 147.337 156.923 147.545ZM158.864 152.105C158.128 152.345 156.12 152.755 154.403 153.016C152.685 153.277 151.23 153.539 151.169 153.597C151.108 153.655 151.133 153.901 151.224 154.144C151.354 154.49 151.792 154.55 153.268 154.421C155.112 154.261 161.746 152.711 162.091 152.36C162.351 152.095 161.482 151.613 160.797 151.643C160.47 151.657 159.6 151.864 158.864 152.105Z" fill="#FCFCFC"/>
</svg>
