<svg width="480" height="160" viewBox="0 0 480 160" fill="none" xmlns="http://www.w3.org/2000/svg">
<path fill-rule="evenodd" clip-rule="evenodd" d="M218.29 21.2121C218.29 34.9497 218.499 42.4242 218.885 42.4242C219.27 42.4242 219.48 34.9497 219.48 21.2121C219.48 7.47455 219.27 0 218.885 0C218.499 0 218.29 7.47455 218.29 21.2121ZM210.26 10.9861C200.897 12.1782 190.166 16.3097 181.361 22.1133C172.689 27.8297 162.744 39.2346 157.985 48.9194C156.134 52.6861 156.129 52.7273 157.53 52.7273C158.294 52.7273 159.411 51.2455 161.195 47.8685C171.38 28.5867 190.572 15.7067 213.085 13.0442C215.929 12.7085 216.506 12.443 216.506 11.4715C216.506 10.1842 216.541 10.1867 210.26 10.9861ZM221.477 11.2158C221.279 11.7424 221.217 12.26 221.339 12.3661C221.461 12.4715 224.545 12.9891 228.193 13.5164C249.262 16.56 266.985 29.0327 277.522 48.2327C278.967 50.8655 280.018 52.1212 280.776 52.1212C282.025 52.1212 281.936 51.7436 279.665 47.3873C270.083 29.0073 251.229 14.9612 231.647 11.6145C223.797 10.2727 221.861 10.197 221.477 11.2158ZM209.166 21.2412C201.306 22.5855 191.616 26.7551 184.747 31.7497C180.16 35.0848 173.123 42.6012 170.025 47.4733C167.697 51.1358 167.676 51.2164 169.009 51.423C169.758 51.5388 170.458 51.3661 170.565 51.0388C171.245 48.9588 178.334 40.2576 181.771 37.2848C191.108 29.2061 199.987 25.0418 211.447 23.3636C215.109 22.8273 216.248 22.4303 216.398 21.6364C216.556 20.8024 216.159 20.6194 214.319 20.6776C213.068 20.7164 210.749 20.9703 209.166 21.2412ZM221.359 21.5727C221.538 22.52 222.323 22.8103 225.733 23.1915C241.78 24.983 257.036 34.5285 266.399 48.6364C267.604 50.4515 268.746 51.5152 269.492 51.5152C270.527 51.5152 270.587 51.3455 269.979 50.1515C268.263 46.7849 263.861 41.1624 259.842 37.2067C250.297 27.8121 237.9 21.8879 225.515 20.8012C221.431 20.443 221.156 20.4939 221.359 21.5727ZM210.26 31.1982C198.684 33.3836 186.723 40.857 180.379 49.8673C178.7 52.2509 178.581 52.6533 179.453 52.9946C180.171 53.2752 181.133 52.5636 182.853 50.4806C190.442 41.2921 199.854 35.6394 210.956 33.6024C215.639 32.743 216.506 32.4061 216.506 31.4436C216.506 30.1224 216.054 30.1048 210.26 31.1982ZM221.264 31.4455C221.264 32.377 221.874 32.6654 224.567 33.0085C236.812 34.5673 248.997 41.5243 255.762 50.8188C257.234 52.8418 258.907 54.5079 259.48 54.5212C261.037 54.5576 260.762 53.6103 258.203 50.1255C251.095 40.4467 239.701 33.3382 227.807 31.1618C221.822 30.0667 221.264 30.0909 221.264 31.4455ZM41.4822 33.1291C40.4978 33.4067 40.4455 35.4382 40.59 67.7727L40.7435 102.121H49.0706H57.3978L57.5566 86.9218L57.7154 71.7224L59.3969 70.0806C61.5524 67.9764 64.8773 67.3721 66.8931 68.7182L68.3819 69.7121L68.5407 85.9164L68.6989 102.121L77.1747 102.289L85.6506 102.458V84.0661C85.6506 62.5091 85.4025 60.9915 81.2425 57.0836C78.406 54.42 75.981 53.6194 71.0781 53.7303C66.717 53.8279 63.4409 54.917 60.4074 57.2764L57.7184 59.3679L57.5578 46.1994L57.3978 33.0303L49.9628 32.9321C45.8736 32.8776 42.0574 32.9667 41.4822 33.1291ZM291.723 33.4848C291.566 33.9018 291.508 49.5152 291.593 68.1818L291.747 102.121H300.074H308.401L308.56 86.9218L308.719 71.7224L310.427 70.0552C312.733 67.8042 316.218 67.3218 318.225 68.9758L319.703 70.1939L319.888 86.3091L320.072 102.424H328.363H336.654V83.9606C336.654 63.1758 336.388 61.423 332.62 57.4339C330.036 54.697 327.411 53.7224 322.677 53.7436C317.849 53.7655 314.622 54.7788 311.399 57.2855L308.699 59.3861V46.4242C308.699 35.1642 308.575 33.4145 307.758 33.0951C307.24 32.8927 303.485 32.7273 299.412 32.7273C294.037 32.7273 291.929 32.9352 291.723 33.4848ZM210.855 41.2255C203.486 42.7327 194.489 48.183 189.708 54.0364C188.09 56.0176 186.766 57.8812 186.766 58.1776C186.766 59.9073 188.431 58.8552 192.826 54.3467C198.799 48.22 204.931 44.7758 212.032 43.56C215.67 42.937 216.506 42.5897 216.506 41.7C216.506 40.4897 215.05 40.3673 210.855 41.2255ZM221.264 41.4558C221.264 42.5939 221.324 42.6176 226.617 43.5788C234.893 45.0812 243.902 51.1055 249.562 58.9236C251.64 61.7927 252.195 62.243 252.777 61.5291C253.338 60.8406 253.085 60.0752 251.534 57.757C245.524 48.7758 234.871 42.0182 224.912 40.8697C221.743 40.5048 221.264 40.5818 221.264 41.4558ZM449.665 47.8485V54.4848L446.245 54.6667L442.825 54.8485L442.656 61.0606C442.465 68.0352 442.083 67.537 447.435 67.2848L449.665 67.18V77.3285C449.665 92.7485 450.793 97.1618 455.569 100.441C458.457 102.425 461.739 103.162 467.596 103.145C472.77 103.128 480 101.579 480 100.487C480 100.175 479.286 97.2073 478.413 93.8909C476.947 88.3194 476.732 87.8964 475.588 88.317C474.907 88.5673 473.021 88.7758 471.397 88.78C467.224 88.7909 466.934 87.9945 466.923 76.5152L466.914 67.2727H471.97H477.026V60.9091V54.5455H471.97H466.914V47.8788V41.2121H458.29H449.665V47.8485ZM213.383 46.0818C205.297 47.4685 195.472 53.8636 191.532 60.3043C190.445 62.083 190.445 62.2 191.544 65.517C192.162 67.383 192.879 70.6479 193.137 72.7715L193.606 76.6333L203.123 64.88C208.357 58.4158 213.909 51.6048 215.459 49.7454C217.011 47.8854 218.282 46.1594 218.285 45.9091C218.291 45.3794 217.269 45.4152 213.383 46.0818ZM239.703 70.1721V87.8788H245.913C249.329 87.8788 252.284 87.6127 252.482 87.2873C252.679 86.9618 253 85.3212 253.196 83.6412C253.467 81.3042 253.325 80.3333 252.59 79.5061C250.851 77.5485 249.746 73.2315 249.91 69.0412C250.051 65.4539 249.877 64.7521 248.184 62.0715C247.149 60.4321 244.817 57.6 243.002 55.7782L239.703 52.4655V70.1721ZM16.1654 54.0618C6.72714 55.3636 1.18959 61.1921 1.18959 69.8242C1.18959 73.4648 2.45115 76.6527 4.9374 79.2958C7.35167 81.8618 10.2346 83.4055 16.9517 85.7261C22.6207 87.6849 23.5093 88.7055 20.8178 90.1636C18.5654 91.3842 12.6626 90.7497 8.58647 88.8479C6.69323 87.9649 4.95702 87.4539 4.72803 87.7121C4.12253 88.3946 0 97.9212 0 98.6382C0 99.3442 4.47643 101.386 8.30037 102.424C12.2754 103.504 22.2876 103.394 26.2091 102.228C31.0787 100.78 34.312 98.1364 36.1106 94.1327C37.4109 91.2394 37.5816 90.1636 37.3425 86.3709C37.007 81.0448 35.495 78.1933 31.7074 75.7461C28.8446 73.8958 24.2177 71.9158 20.502 70.9509C19.1833 70.6079 17.5774 69.9127 16.9332 69.4061C15.7775 68.4964 15.7805 68.4679 17.1664 67.2721C19.0114 65.68 22.7539 65.6915 27.4486 67.303C29.4394 67.9861 31.131 68.4636 31.2077 68.3636C31.3832 68.1357 34.3411 61.5818 35.4724 58.9158C36.3164 56.9255 36.3152 56.9218 34.2269 56.0327C29.6851 54.0988 21.9866 53.2588 16.1654 54.0618ZM167.926 53.96C164.892 54.5794 162.449 55.823 160.947 57.5139C159.344 59.3188 158.81 59.103 158.81 56.6497V54.5115L150.632 54.68L142.454 54.8485L142.3 88.9394L142.146 123.03H150.776H159.405V112.056C159.405 101.844 159.477 101.113 160.446 101.516C165.345 103.557 174.178 103.485 178.141 101.373C184.283 98.1012 188.425 92.1248 189.808 84.5455C190.611 80.143 190.151 71.1127 188.915 67.0279C187.149 61.1855 182.644 56.1612 177.844 54.68C174.636 53.6897 170.662 53.4012 167.926 53.96ZM265.576 54.4739C258.313 56.4224 253.377 62.4327 253.386 69.3188C253.397 77.4752 258.322 82.4576 269.858 85.9812C272.214 86.7006 274.33 87.6024 274.562 87.9848C274.798 88.3739 274.389 89.1727 273.634 89.7951C271.026 91.9473 263.126 90.7782 258.456 87.5485C257.225 86.6976 256.153 86.0824 256.076 86.1824C255.997 86.2818 255.393 88.1364 254.733 90.303C254.073 92.4697 253.097 95.2576 252.564 96.4988L251.596 98.7552L253.449 99.7321C263.758 105.164 280.205 104.332 285.911 98.0903C291.381 92.1067 290.821 80.7982 284.836 76.3806C282.334 74.5346 276.484 71.9139 272.695 70.9424C271.377 70.6042 269.771 69.9127 269.127 69.4061C267.971 68.4964 267.974 68.4679 269.36 67.2721C271.205 65.68 274.947 65.6915 279.642 67.303C281.633 67.9861 283.328 68.4636 283.409 68.3636C284.177 67.4218 288.393 57.323 288.171 56.9576C288.011 56.6933 286.609 56.0073 285.055 55.4339C281.933 54.2806 268.724 53.6297 265.576 54.4739ZM106.044 55.9994C97.2663 58.9048 91.1744 66.4412 89.9515 75.9091C88.8357 84.5394 91.4754 93.2533 96.6888 98.1491C106.175 107.059 122.842 106.845 131.801 97.6982C136.079 93.3303 138.101 88.2921 138.453 81.123C139.013 69.7248 135.265 62.4697 126.445 57.8806C121.927 55.5297 121.594 55.4546 115.17 55.3139C110.82 55.2194 107.691 55.4539 106.044 55.9994ZM357.77 55.9697C348.633 59.043 342.732 66.2618 341.375 76.0255C338.882 93.9636 352.667 107.408 370.337 104.273C382.518 102.112 390.202 92.4867 390.179 79.4182C390.16 69.1406 385.603 61.4479 377.1 57.3418C373.611 55.657 372.597 55.4606 366.691 55.3224C362.48 55.2243 359.301 55.4546 357.77 55.9697ZM410.112 56.0739C403.436 58.603 399.355 62.0333 396.68 67.3642C392.793 75.1115 392.792 84.8873 396.679 92.6333C403.461 106.15 424.881 108.947 435.869 97.7515C447.794 85.6012 444.024 63.0794 429.044 56.9739C424.596 55.1612 413.868 54.6509 410.112 56.0739ZM117.617 68.6073C121.209 71.6418 121.72 87.1527 118.342 90.5945C117.489 91.4642 116.357 91.8182 114.43 91.8182C112.218 91.8182 111.463 91.5152 110.33 90.1727C108.424 87.9152 107.431 82.5449 107.861 76.8261C108.25 71.6564 109.411 68.7194 111.406 67.8576C113.032 67.1558 116.377 67.5594 117.617 68.6073ZM168.852 68.2612C169.614 68.8049 170.611 70.1594 171.067 71.2721C172.054 73.6806 172.181 82.7897 171.261 85.2636C169.65 89.5976 165.825 91.2509 161.746 89.3764L159.405 88.3006L159.415 79.1503L159.426 70L161.34 68.6364C163.607 67.0218 166.887 66.8576 168.852 68.2612ZM368.594 68.4594C371.081 70.0042 371.932 73.1291 371.904 80.6133C371.87 89.58 369.849 92.803 364.859 91.8491C360.758 91.0648 358.947 86.4079 359.368 77.72C359.653 71.8449 360.597 69.2055 362.825 68.057C364.904 66.9855 366.389 67.0891 368.594 68.4594ZM420.735 68.1073C423.649 69.3479 424.387 71.7503 424.387 80C424.387 84.4533 424.1 87.6618 423.592 88.8873C421.938 92.88 416.011 93.1085 413.816 89.2643C412.237 86.4988 411.553 80.5976 412.205 75.3582C412.826 70.3673 413.606 68.7352 415.755 67.9291C417.862 67.1382 418.514 67.1618 420.735 68.1073ZM211.551 78.4933L204.514 87.5758L211.482 87.7473C215.314 87.8412 218.555 87.8115 218.683 87.68C218.812 87.5485 218.843 83.3843 218.753 78.4261L218.587 69.4103L211.551 78.4933ZM185.601 99.0612C185.023 99.7703 185.251 100.484 186.779 102.747C192.795 111.656 203.266 118.325 213.383 119.692C216.287 120.084 216.506 120.025 216.506 118.845C216.506 117.926 216.13 117.576 215.143 117.576C212.608 117.576 206.712 115.75 202.523 113.667C197.626 111.232 192.052 106.296 188.85 101.558C187.595 99.7006 186.511 98.1818 186.442 98.1818C186.373 98.1818 185.994 98.5776 185.601 99.0612ZM245.353 106.35C241.44 110.468 239.697 111.796 235.539 113.828C232.599 115.265 228.617 116.643 226.024 117.122C222.716 117.733 221.515 118.211 221.371 118.973C221.13 120.25 222.519 120.287 227.807 119.142C235.776 117.416 244.035 112.38 248.925 106.264C251.486 103.06 251.961 101.755 250.669 101.466C250.363 101.398 247.97 103.595 245.353 106.35ZM177.41 104.735C176.867 105.086 177.084 105.827 178.251 107.604C186.364 119.961 199.407 128.181 213.68 129.933C216.116 130.232 216.506 130.132 216.506 129.206C216.506 128.335 215.503 127.939 211.185 127.107C204.476 125.815 199.133 123.644 193.702 120.003C189.182 116.974 183.303 111.084 180.542 106.818C178.79 104.11 178.585 103.974 177.41 104.735ZM197.175 106.379C202.13 110.733 211.212 114.545 216.63 114.545H218.885V109.394V104.242L206.84 104.265L194.796 104.288L197.175 106.379ZM239.703 105.779C239.703 107.081 239.869 107.225 240.792 106.721C241.392 106.394 242.227 105.703 242.65 105.185C243.316 104.367 243.172 104.242 241.56 104.242C239.968 104.242 239.703 104.462 239.703 105.779ZM257.105 108.03C254.581 111.578 249.585 116.655 246.465 118.842C245.036 119.844 243.866 120.81 243.866 120.988C243.866 121.938 248.293 120.493 250.237 118.909C254.118 115.746 261.115 107.426 261.115 105.973C261.115 104.532 258.72 105.761 257.105 108.03ZM166.543 106.551C166.543 107.356 170.618 114.009 173.21 117.435C182.168 129.276 197.963 138.295 212.255 139.73C216.326 140.139 216.506 140.102 216.506 138.866C216.506 137.781 216.15 137.574 214.275 137.562C210.549 137.541 201.916 135.327 196.877 133.102C186.829 128.665 177.849 120.839 171.896 111.329C169.863 108.081 168.231 106.095 167.584 106.082C167.011 106.07 166.543 106.281 166.543 106.551ZM268.253 108.788C267.24 110.288 266.198 111.515 265.938 111.515C264.805 111.515 260.427 116.845 259.795 118.992C259.412 120.296 258.357 121.909 257.432 122.606C256.514 123.298 255.762 124.206 255.762 124.624C255.762 125.802 256.911 126.244 257.87 125.433C258.604 124.812 258.736 125.075 258.736 127.159C258.736 128.512 258.991 130.302 259.303 131.137C259.716 132.244 259.619 133.168 258.943 134.547C257.848 136.784 258.15 137.332 259.938 136.357C261.066 135.741 261.495 135.884 263.112 137.41C266.804 140.897 270.864 142.424 276.438 142.424C279.65 142.424 284.598 141.11 286.377 139.784C287.507 138.942 287.497 138.842 285.862 134.704C283.502 128.73 283.684 128.913 281.165 129.986C276.238 132.084 273.596 130.836 273.159 126.207C272.903 123.488 273.05 122.935 274.399 121.561C276.134 119.793 277.074 119.693 280.438 120.913C281.742 121.387 283.002 121.578 283.237 121.338C283.472 121.098 284.469 118.915 285.452 116.488L287.238 112.073L285.329 110.887C282.792 109.31 280.628 108.949 275.178 109.192C270.938 109.38 269.79 109.087 271.227 108.182C272.133 107.612 271.936 106.061 270.958 106.061C270.483 106.061 269.266 107.288 268.253 108.788ZM295.525 109.906C287.341 112.991 283.344 123.169 286.713 132.345C289.988 141.263 300.851 144.983 310.122 140.362C320.898 134.989 321.569 117.786 311.258 111.212C308.712 109.589 307.832 109.378 303.051 109.241C299.665 109.144 296.897 109.388 295.525 109.906ZM335.873 109.482C335.662 109.698 332.004 109.82 327.744 109.753L320 109.633L319.966 113.756C319.946 116.024 319.941 123.197 319.954 129.697L319.978 141.515L326.815 141.686L333.651 141.856L333.815 131.736C333.932 124.41 334.179 121.547 334.706 121.368C335.258 121.181 335.475 123.598 335.598 131.318L335.762 141.515H342.602H349.442L349.74 131.565C349.952 124.476 350.247 121.543 350.766 121.367C351.318 121.181 351.535 123.598 351.658 131.318L351.822 141.515H358.662H365.502L365.665 130.974C365.877 117.285 365.367 114.353 362.26 111.364C360.023 109.212 359.69 109.091 355.985 109.091C353.215 109.091 351.374 109.453 349.684 110.332L347.296 111.573L345.325 110.332C343.916 109.444 342.344 109.091 339.806 109.091C337.855 109.091 336.085 109.267 335.873 109.482ZM283.535 112.013L284.839 112.733L283.601 115.768L282.363 118.804L278.612 118.413C274.973 118.033 274.806 118.078 272.976 119.942C271.179 121.773 271.102 122.045 271.334 125.761C271.662 130.99 273.153 132.727 277.317 132.727C278.917 132.727 280.712 132.462 281.306 132.139C282.23 131.635 282.563 131.99 283.646 134.644C284.34 136.345 284.907 137.938 284.907 138.184C284.907 139.068 279.177 140.286 275.39 140.208C266.484 140.024 261.259 135.215 260.657 126.651C260.155 119.493 263.726 113.904 270.169 111.764C273.156 110.773 281.569 110.93 283.535 112.013ZM307.659 111.774C313.499 113.898 316.522 118.59 316.501 125.5C316.481 132.008 313.592 136.878 308.393 139.168C305.189 140.58 298.433 140.557 295.47 139.125C290.317 136.633 287.653 132.088 287.635 125.758C287.609 116.641 293.182 110.962 302.156 110.962C303.955 110.962 306.432 111.327 307.659 111.774ZM343.792 111.818C344.741 112.318 345.784 113.204 346.11 113.788C346.54 114.558 346.932 114.682 347.543 114.242C348.005 113.909 349.115 113.112 350.009 112.47C352.247 110.862 357.335 110.492 359.744 111.762C363.079 113.519 363.42 115.012 363.42 127.848V139.394H358.662H353.903L353.895 130.758C353.885 119.957 353.753 119.394 351.23 119.394C348.061 119.394 347.769 120.288 347.903 129.575C347.968 134.156 347.871 138.308 347.687 138.801C347.42 139.512 346.372 139.656 342.597 139.499L337.844 139.302V130.307C337.844 125.359 337.681 120.88 337.483 120.353C337.253 119.744 336.398 119.394 335.138 119.394C331.769 119.394 331.301 120.776 331.301 130.741V139.394H326.543H321.784V125.455V111.515H326.543C331.296 111.515 331.301 111.517 331.301 113.124C331.301 114.606 331.384 114.66 332.342 113.806C335.553 110.945 340.504 110.086 343.792 111.818ZM161.784 116.459C161.784 119.181 165.624 124.482 172.258 130.917C182.875 141.216 197.08 148.098 210.855 149.615C215.935 150.175 216.506 150.092 216.506 148.796C216.506 148.238 215.387 147.832 213.085 147.555C201.172 146.121 191.665 142.579 181.71 135.866C176.404 132.288 168.827 124.621 164.866 118.822L161.784 114.311V116.459ZM218.29 139.091C218.29 152.626 218.5 160 218.885 160C219.27 160 219.48 152.626 219.48 139.091C219.48 125.556 219.27 118.182 218.885 118.182C218.5 118.182 218.29 125.556 218.29 139.091ZM299.165 119.111C298.194 120.304 297.732 125.207 298.255 128.765C298.731 131.993 300.62 133.705 303.027 133.09C305.169 132.542 305.96 130.561 305.975 125.705C305.993 120.273 304.865 118.182 301.918 118.182C300.82 118.182 299.582 118.6 299.165 119.111ZM303.663 121.382C303.851 122.142 303.923 124.529 303.823 126.685C303.653 130.395 303.564 130.606 302.183 130.606C301.132 130.606 300.607 130.181 300.309 129.091C299.684 126.802 299.707 123.298 300.357 121.555C301.1 119.562 303.189 119.454 303.663 121.382ZM233.234 125.555C231.475 126.188 228.062 127.019 225.65 127.401C222.054 127.971 221.264 128.295 221.264 129.199C221.264 130.48 221.476 130.499 226.617 129.672C232.216 128.772 235.686 127.445 236.905 125.738C238.179 123.956 237.737 123.934 233.234 125.555ZM242.974 125.556C238.93 127.835 237.379 131.327 238.537 135.544C239.592 139.38 242.396 141.474 246.468 141.465C250.214 141.456 252.408 140.104 254.074 136.778C256.067 132.797 254.76 128.481 250.823 126.034C248.732 124.735 244.849 124.499 242.974 125.556ZM232.847 136.116C232.511 136.258 229.835 136.727 226.901 137.159C222.537 137.801 221.527 138.148 221.354 139.065C221.157 140.101 221.466 140.155 225.447 139.778C231.68 139.188 235.04 138.225 234.824 137.092C234.634 136.094 233.834 135.699 232.847 136.116ZM236.729 145.236C235.257 145.716 231.242 146.537 227.807 147.059C224.372 147.581 221.461 148.104 221.339 148.22C221.217 148.337 221.266 148.829 221.449 149.314C221.709 150.007 222.586 150.125 225.538 149.869C229.224 149.549 242.494 146.449 243.183 145.746C243.703 145.216 241.965 144.253 240.595 144.312C239.941 144.339 238.201 144.755 236.729 145.236Z" fill="#FCFCFC"/>
</svg>
