<svg width="806" height="383" viewBox="0 0 806 383" fill="none" xmlns="http://www.w3.org/2000/svg">
<rect width="402.858" height="191.344" transform="scale(2.00071)" fill="#E7194A"/>
<path fill-rule="evenodd" clip-rule="evenodd" d="M375.817 119.824C375.817 136.68 376.073 145.851 376.546 145.851C377.019 145.851 377.276 136.68 377.276 119.824C377.276 102.968 377.019 93.797 376.546 93.797C376.073 93.797 375.817 102.968 375.817 119.824ZM365.964 107.277C354.475 108.74 341.308 113.809 330.505 120.93C319.865 127.944 307.662 141.938 301.822 153.821C299.551 158.443 299.545 158.493 301.264 158.493C302.201 158.493 303.572 156.675 305.761 152.531C318.258 128.873 341.807 113.069 369.431 109.802C372.92 109.39 373.627 109.065 373.627 107.873C373.627 106.293 373.67 106.296 365.964 107.277ZM379.728 107.559C379.485 108.205 379.408 108.84 379.558 108.97C379.708 109.099 383.492 109.735 387.967 110.382C413.819 114.116 435.565 129.42 448.494 152.978C450.267 156.209 451.556 157.75 452.486 157.75C454.019 157.75 453.91 157.286 451.124 151.941C439.366 129.389 416.233 112.154 392.205 108.048C382.574 106.402 380.198 106.309 379.728 107.559ZM364.621 119.86C354.977 121.509 343.088 126.625 334.66 132.754C329.031 136.846 320.397 146.069 316.596 152.047C313.74 156.54 313.714 156.639 315.349 156.893C316.268 157.035 317.127 156.823 317.258 156.421C318.093 153.869 326.791 143.193 331.008 139.545C342.465 129.633 353.359 124.523 367.421 122.464C371.914 121.806 373.311 121.319 373.495 120.345C373.688 119.321 373.202 119.097 370.944 119.168C369.409 119.216 366.564 119.527 364.621 119.86ZM379.582 120.267C379.801 121.429 380.765 121.785 384.949 122.253C404.639 124.451 423.357 136.163 434.847 153.474C436.324 155.701 437.726 157.006 438.641 157.006C439.911 157.006 439.985 156.798 439.239 155.333C437.134 151.202 431.732 144.303 426.8 139.449C415.088 127.922 399.878 120.653 384.682 119.32C379.671 118.881 379.333 118.943 379.582 120.267ZM365.964 132.077C351.76 134.759 337.084 143.928 329.3 154.984C327.24 157.909 327.094 158.402 328.164 158.821C329.045 159.165 330.225 158.292 332.336 155.736C341.647 144.462 353.196 137.526 366.817 135.027C372.564 133.973 373.627 133.559 373.627 132.378C373.627 130.757 373.073 130.736 365.964 132.077ZM379.466 132.38C379.466 133.523 380.214 133.877 383.519 134.298C398.544 136.211 413.495 144.747 421.795 156.151C423.601 158.634 425.654 160.678 426.356 160.694C428.267 160.739 427.929 159.577 424.789 155.301C416.068 143.425 402.088 134.703 387.494 132.032C380.15 130.689 379.466 130.718 379.466 132.38ZM158.874 134.446C157.666 134.787 157.602 137.28 157.779 176.954L157.968 219.099H168.185H178.402L178.597 200.45L178.792 181.8L180.855 179.786C183.5 177.204 187.58 176.462 190.053 178.114L191.88 179.333L192.075 199.216L192.269 219.099L202.669 219.305L213.069 219.512V196.946C213.069 170.495 212.764 168.633 207.66 163.838C204.179 160.57 201.204 159.588 195.188 159.724C189.837 159.844 185.817 161.18 182.095 164.075L178.796 166.641L178.599 150.483L178.402 134.325L169.28 134.205C164.262 134.138 159.58 134.247 158.874 134.446ZM465.918 134.883C465.726 135.394 465.654 154.552 465.759 177.456L465.948 219.099H476.166H486.383L486.578 200.45L486.773 181.8L488.868 179.754C491.698 176.993 495.974 176.401 498.436 178.43L500.249 179.925L500.476 199.698L500.703 219.471H510.876H521.049V196.816C521.049 171.313 520.722 169.163 516.1 164.268C512.928 160.91 509.707 159.714 503.899 159.74C497.975 159.767 494.015 161.01 490.061 164.086L486.748 166.663V150.759C486.748 136.943 486.596 134.797 485.593 134.405C484.958 134.156 480.35 133.953 475.353 133.953C468.757 133.953 466.172 134.208 465.918 134.883ZM366.694 144.38C357.652 146.23 346.612 152.917 340.746 160.099C338.761 162.53 337.137 164.817 337.137 165.181C337.137 167.303 339.179 166.012 344.572 160.48C351.901 152.963 359.425 148.737 368.137 147.245C372.602 146.48 373.627 146.054 373.627 144.963C373.627 143.478 371.841 143.327 366.694 144.38ZM379.466 144.663C379.466 146.06 379.539 146.089 386.034 147.268C396.189 149.111 407.242 156.503 414.187 166.096C416.736 169.616 417.418 170.169 418.132 169.293C418.82 168.448 418.51 167.509 416.606 164.665C409.232 153.645 396.161 145.353 383.942 143.944C380.054 143.496 379.466 143.591 379.466 144.663ZM659.713 152.507V160.65L655.517 160.873L651.32 161.096L651.112 168.718C650.879 177.276 650.41 176.665 656.977 176.355L659.713 176.227V188.679C659.713 207.599 661.096 213.014 666.957 217.038C670.501 219.472 674.528 220.377 681.713 220.355C688.062 220.335 696.934 218.435 696.934 217.094C696.934 216.712 696.058 213.07 694.987 209.001C693.188 202.165 692.924 201.645 691.52 202.162C690.684 202.469 688.371 202.724 686.378 202.73C681.258 202.743 680.902 201.766 680.889 187.681L680.878 176.34H687.081H693.285V168.532V160.724H687.081H680.878V152.544V144.364H670.296H659.713V152.507ZM369.796 150.339C359.875 152.041 347.819 159.887 342.985 167.79C341.65 169.973 341.651 170.116 342.999 174.186C343.758 176.476 344.638 180.482 344.954 183.087L345.529 187.826L357.206 173.404C363.629 165.473 370.441 157.116 372.343 154.834C374.247 152.552 375.806 150.434 375.81 150.127C375.817 149.477 374.563 149.521 369.796 150.339ZM402.09 179.898V201.624H409.71C413.901 201.624 417.527 201.297 417.77 200.898C418.012 200.499 418.406 198.486 418.646 196.424C418.979 193.557 418.805 192.366 417.903 191.351C415.769 188.949 414.413 183.652 414.615 178.51C414.787 174.109 414.574 173.248 412.497 169.958C411.226 167.947 408.365 164.472 406.138 162.237L402.09 158.172V179.898ZM127.81 160.131C116.23 161.728 109.435 168.879 109.435 179.471C109.435 183.938 110.983 187.85 114.034 191.093C116.996 194.241 120.534 196.135 128.775 198.983C135.731 201.386 136.821 202.638 133.519 204.427C130.755 205.925 123.513 205.147 118.511 202.813C116.188 201.73 114.058 201.103 113.777 201.419C113.034 202.257 107.976 213.946 107.976 214.826C107.976 215.692 113.468 218.197 118.16 219.471C123.038 220.796 135.322 220.661 140.134 219.23C146.109 217.454 150.076 214.21 152.283 209.297C153.879 205.747 154.088 204.427 153.795 199.774C153.383 193.239 151.528 189.74 146.88 186.737C143.368 184.467 137.691 182.037 133.132 180.853C131.514 180.433 129.543 179.58 128.753 178.958C127.335 177.842 127.338 177.807 129.039 176.34C131.303 174.386 135.895 174.4 141.655 176.378C144.098 177.216 146.173 177.802 146.267 177.679C146.483 177.399 150.112 169.358 151.5 166.086C152.536 163.644 152.534 163.64 149.972 162.549C144.399 160.176 134.953 159.145 127.81 160.131ZM314.02 160.006C310.297 160.766 307.3 162.292 305.458 164.366C303.49 166.581 302.835 166.316 302.835 163.306V160.682L292.8 160.889L282.766 161.096L282.577 202.925L282.388 244.755H292.977H303.565V231.29C303.565 218.759 303.653 217.862 304.842 218.356C310.853 220.861 321.691 220.773 326.554 218.182C334.09 214.167 339.173 206.834 340.869 197.534C341.854 192.132 341.29 181.052 339.774 176.04C337.607 168.871 332.079 162.707 326.189 160.889C322.253 159.674 317.378 159.32 314.02 160.006ZM433.837 160.636C424.924 163.027 418.868 170.402 418.88 178.851C418.893 188.859 424.936 194.972 439.09 199.296C441.981 200.178 444.578 201.285 444.863 201.754C445.152 202.231 444.649 203.212 443.724 203.975C440.524 206.616 430.83 205.181 425.1 201.219C423.589 200.175 422.275 199.42 422.179 199.542C422.083 199.664 421.342 201.94 420.532 204.598C419.722 207.257 418.524 210.678 417.871 212.201L416.683 214.969L418.956 216.168C431.606 222.832 451.786 221.812 458.787 214.153C465.499 206.812 464.812 192.936 457.468 187.516C454.398 185.251 447.221 182.035 442.572 180.843C440.954 180.428 438.983 179.58 438.193 178.958C436.775 177.842 436.778 177.807 438.479 176.34C440.743 174.386 445.335 174.4 451.095 176.378C453.538 177.216 455.619 177.802 455.718 177.679C456.66 176.523 461.832 164.132 461.56 163.684C461.364 163.359 459.643 162.518 457.737 161.814C453.906 160.399 437.699 159.6 433.837 160.636ZM238.091 162.508C227.321 166.073 219.846 175.32 218.346 186.937C216.977 197.526 220.216 208.218 226.612 214.226C238.251 225.158 258.702 224.895 269.695 213.672C274.943 208.313 277.425 202.131 277.857 193.335C278.544 179.349 273.945 170.447 263.123 164.816C257.579 161.932 257.171 161.84 249.288 161.667C243.951 161.551 240.112 161.839 238.091 162.508ZM546.957 162.472C535.747 166.243 528.506 175.1 526.842 187.08C523.782 209.09 540.696 225.587 562.378 221.74C577.324 219.087 586.752 207.278 586.723 191.243C586.701 178.632 581.109 169.193 570.676 164.155C566.394 162.088 565.151 161.847 557.905 161.677C552.737 161.557 548.837 161.84 546.957 162.472ZM611.181 162.599C602.99 165.703 597.982 169.912 594.701 176.453C589.931 185.959 589.93 197.953 594.699 207.458C603.02 224.043 629.303 227.475 642.785 213.738C657.417 198.829 652.792 171.195 634.411 163.704C628.953 161.48 615.79 160.853 611.181 162.599ZM252.292 177.978C256.698 181.701 257.326 200.733 253.181 204.956C252.135 206.023 250.745 206.458 248.381 206.458C245.667 206.458 244.74 206.086 243.35 204.439C241.012 201.669 239.793 195.079 240.321 188.062C240.798 181.719 242.223 178.115 244.671 177.058C246.665 176.197 250.77 176.692 252.292 177.978ZM315.157 177.553C316.092 178.22 317.314 179.882 317.874 181.248C319.085 184.203 319.242 195.38 318.113 198.415C316.135 203.733 311.443 205.761 306.438 203.461L303.565 202.141L303.578 190.914L303.591 179.687L305.939 178.014C308.721 176.032 312.745 175.831 315.157 177.553ZM560.239 177.796C563.291 179.692 564.334 183.526 564.3 192.709C564.258 203.711 561.779 207.666 555.657 206.495C550.624 205.533 548.402 199.819 548.919 189.159C549.268 181.95 550.426 178.712 553.161 177.303C555.711 175.988 557.533 176.115 560.239 177.796ZM624.215 177.364C627.791 178.887 628.696 181.834 628.696 191.957C628.696 197.421 628.345 201.358 627.721 202.861C625.692 207.76 618.42 208.041 615.726 203.324C613.788 199.931 612.95 192.69 613.75 186.261C614.512 180.137 615.468 178.135 618.105 177.146C620.69 176.175 621.49 176.204 624.215 177.364ZM367.548 190.108L358.914 201.252L367.463 201.463C372.165 201.578 376.141 201.541 376.299 201.38C376.457 201.219 376.495 196.109 376.384 190.025L376.181 178.963L367.548 190.108ZM335.707 215.345C334.998 216.215 335.278 217.091 337.153 219.867C344.534 230.798 357.382 238.982 369.796 240.659C373.359 241.14 373.627 241.067 373.627 239.619C373.627 238.492 373.166 238.062 371.956 238.062C368.845 238.062 361.61 235.821 356.471 233.266C350.461 230.278 343.623 224.221 339.694 218.408C338.154 216.129 336.824 214.266 336.739 214.266C336.655 214.266 336.19 214.751 335.707 215.345ZM409.023 224.288C404.222 229.341 402.082 230.971 396.981 233.464C393.374 235.227 388.488 236.918 385.306 237.506C381.247 238.255 379.774 238.841 379.597 239.776C379.301 241.344 381.006 241.388 387.494 239.984C397.272 237.866 407.406 231.687 413.406 224.182C416.548 220.251 417.13 218.65 415.546 218.295C415.169 218.211 412.234 220.908 409.023 224.288ZM325.657 222.306C324.99 222.737 325.257 223.646 326.689 225.827C336.644 240.989 352.647 251.075 370.161 253.225C373.149 253.591 373.627 253.468 373.627 252.332C373.627 251.263 372.397 250.777 367.099 249.757C358.867 248.171 352.311 245.507 345.647 241.04C340.101 237.324 332.888 230.096 329.5 224.862C327.35 221.539 327.099 221.373 325.657 222.306ZM349.908 224.323C355.988 229.666 367.132 234.344 373.78 234.344H376.546V228.023V221.702L361.768 221.73L346.989 221.758L349.908 224.323ZM402.09 223.587C402.09 225.184 402.294 225.361 403.427 224.744C404.162 224.342 405.188 223.494 405.706 222.858C406.523 221.854 406.347 221.702 404.368 221.702C402.416 221.702 402.09 221.972 402.09 223.587ZM423.443 226.35C420.346 230.702 414.215 236.932 410.388 239.615C408.634 240.845 407.198 242.03 407.198 242.249C407.198 243.414 412.63 241.641 415.015 239.698C419.777 235.817 428.363 225.608 428.363 223.826C428.363 222.057 425.424 223.565 423.443 226.35ZM312.323 224.535C312.323 225.522 317.324 233.685 320.503 237.889C331.495 252.418 350.875 263.485 368.411 265.245C373.407 265.747 373.627 265.702 373.627 264.185C373.627 262.854 373.191 262.6 370.89 262.586C366.319 262.559 355.726 259.843 349.543 257.113C337.214 251.669 326.195 242.066 318.891 230.397C316.397 226.412 314.394 223.975 313.6 223.959C312.898 223.945 312.323 224.204 312.323 224.535ZM437.121 227.279C435.878 229.12 434.6 230.626 434.28 230.626C432.89 230.626 427.519 237.165 426.744 239.8C426.273 241.4 424.979 243.379 423.844 244.234C422.717 245.083 421.795 246.197 421.795 246.71C421.795 248.156 423.205 248.697 424.381 247.702C425.282 246.94 425.444 247.264 425.444 249.82C425.444 251.48 425.757 253.677 426.139 254.702C426.646 256.06 426.527 257.193 425.698 258.886C424.354 261.631 424.724 262.303 426.919 261.106C428.303 260.351 428.829 260.526 430.813 262.399C435.344 266.677 440.325 268.551 447.164 268.551C451.105 268.551 457.176 266.939 459.36 265.312C460.745 264.279 460.733 264.156 458.728 259.079C455.831 251.749 456.055 251.973 452.964 253.289C446.919 255.863 443.677 254.333 443.141 248.653C442.826 245.317 443.007 244.638 444.663 242.951C446.791 240.783 447.944 240.659 452.072 242.157C453.672 242.738 455.218 242.972 455.507 242.678C455.795 242.384 457.018 239.705 458.224 236.727L460.416 231.311L458.074 229.855C454.96 227.92 452.305 227.477 445.618 227.775C440.415 228.006 439.007 227.646 440.77 226.536C441.881 225.836 441.64 223.933 440.44 223.933C439.857 223.933 438.364 225.439 437.121 227.279ZM470.584 228.651C460.542 232.436 455.637 244.924 459.772 256.184C463.79 267.126 477.118 271.691 488.494 266.02C501.716 259.428 502.54 238.32 489.888 230.254C486.764 228.262 485.684 228.003 479.818 227.835C475.664 227.717 472.267 228.016 470.584 228.651ZM520.091 228.131C519.832 228.396 515.343 228.546 510.116 228.464L500.614 228.316L500.572 233.375C500.548 236.158 500.542 244.959 500.558 252.935L500.587 267.436L508.976 267.645L517.364 267.854L517.565 255.436C517.709 246.447 518.012 242.934 518.659 242.715C519.336 242.486 519.603 245.451 519.754 254.924L519.954 267.436H528.347H536.74L537.105 255.227C537.365 246.528 537.727 242.93 538.364 242.714C539.041 242.485 539.307 245.451 539.459 254.924L539.659 267.436H548.052H556.445L556.645 254.501C556.905 237.706 556.28 234.107 552.467 230.44C549.722 227.799 549.313 227.651 544.767 227.651C541.369 227.651 539.11 228.096 537.036 229.174L534.106 230.697L531.688 229.174C529.959 228.085 528.03 227.651 524.916 227.651C522.522 227.651 520.351 227.867 520.091 228.131ZM455.872 231.237L457.472 232.12L455.953 235.844L454.433 239.569L449.832 239.089C445.366 238.623 445.161 238.678 442.916 240.966C440.711 243.212 440.617 243.546 440.902 248.105C441.303 254.522 443.134 256.653 448.243 256.653C450.206 256.653 452.408 256.328 453.136 255.932C454.271 255.312 454.679 255.749 456.008 259.005C456.859 261.092 457.555 263.047 457.555 263.348C457.555 264.433 450.525 265.927 445.878 265.832C434.951 265.606 428.539 259.705 427.801 249.197C427.184 240.415 431.567 233.557 439.472 230.931C443.137 229.715 453.46 229.907 455.872 231.237ZM485.472 230.943C492.638 233.549 496.347 239.307 496.321 247.785C496.296 255.771 492.752 261.746 486.373 264.556C482.441 266.288 474.151 266.26 470.516 264.503C464.194 261.446 460.924 255.868 460.902 248.101C460.871 236.915 467.709 229.947 478.72 229.947C480.928 229.947 483.966 230.395 485.472 230.943ZM529.807 230.997C530.971 231.611 532.251 232.698 532.651 233.414C533.179 234.359 533.66 234.512 534.409 233.972C534.977 233.563 536.338 232.584 537.435 231.797C540.182 229.824 546.424 229.37 549.38 230.928C553.472 233.084 553.891 234.916 553.891 250.667V264.833H548.052H542.214L542.203 254.236C542.191 240.984 542.029 240.293 538.934 240.293C535.045 240.293 534.687 241.39 534.851 252.784C534.932 258.406 534.813 263.5 534.586 264.105C534.259 264.978 532.973 265.155 528.341 264.962L522.509 264.72V253.683C522.509 247.612 522.309 242.116 522.066 241.469C521.784 240.722 520.735 240.293 519.188 240.293C515.054 240.293 514.481 241.989 514.481 254.216V264.833H508.642H502.804V247.729V230.626H508.642C514.474 230.626 514.481 230.628 514.481 232.6C514.481 234.418 514.582 234.484 515.758 233.437C519.698 229.927 525.773 228.872 529.807 230.997ZM306.484 236.691C306.484 240.032 311.196 246.536 319.335 254.432C332.362 267.069 349.791 275.512 366.694 277.374C372.927 278.061 373.627 277.959 373.627 276.369C373.627 275.684 372.254 275.186 369.431 274.846C354.813 273.087 343.148 268.741 330.933 260.504C324.423 256.114 315.126 246.707 310.266 239.591L306.484 234.056V236.691ZM375.817 264.461C375.817 281.069 376.074 290.116 376.546 290.116C377.019 290.116 377.276 281.069 377.276 264.461C377.276 247.853 377.019 238.806 376.546 238.806C376.074 238.806 375.817 247.853 375.817 264.461ZM475.05 239.946C473.859 241.41 473.292 247.425 473.934 251.792C474.517 255.752 476.836 257.853 479.788 257.098C482.416 256.426 483.387 253.994 483.406 248.037C483.428 241.372 482.044 238.806 478.427 238.806C477.081 238.806 475.561 239.319 475.05 239.946ZM480.569 242.733C480.799 243.665 480.888 246.594 480.766 249.24C480.556 253.791 480.447 254.05 478.753 254.05C477.464 254.05 476.819 253.529 476.454 252.191C475.687 249.383 475.715 245.083 476.512 242.944C477.425 240.5 479.987 240.367 480.569 242.733ZM394.152 247.853C391.994 248.63 387.807 249.649 384.847 250.118C380.435 250.817 379.466 251.215 379.466 252.324C379.466 253.895 379.726 253.918 386.034 252.904C392.904 251.799 397.161 250.171 398.657 248.077C400.22 245.89 399.678 245.863 394.152 247.853ZM406.104 247.853C401.142 250.65 399.238 254.934 400.66 260.108C401.954 264.816 405.395 267.385 410.391 267.374C414.987 267.363 417.679 265.704 419.723 261.623C422.168 256.738 420.566 251.442 415.734 248.44C413.169 246.847 408.405 246.556 406.104 247.853ZM393.678 260.811C393.266 260.985 389.982 261.561 386.382 262.091C381.028 262.879 379.788 263.304 379.576 264.429C379.335 265.701 379.714 265.767 384.598 265.304C392.246 264.58 396.369 263.399 396.104 262.008C395.87 260.784 394.889 260.3 393.678 260.811ZM398.441 272.001C396.634 272.59 391.708 273.597 387.494 274.238C383.279 274.878 379.708 275.52 379.558 275.662C379.408 275.806 379.469 276.41 379.693 277.005C380.012 277.855 381.087 278 384.709 277.686C389.233 277.293 405.515 273.489 406.361 272.627C406.998 271.977 404.865 270.795 403.184 270.867C402.382 270.901 400.247 271.411 398.441 272.001Z" fill="#FCFCFC"/>
</svg>
