<svg width="2986" height="383" viewBox="0 0 2986 383" fill="none" xmlns="http://www.w3.org/2000/svg">
<rect width="1493" height="191.344" transform="scale(2)" fill="#FCFCFC"/>
<path d="M244.336 211.701C257.185 211.701 267.601 201.285 267.601 188.436C267.601 175.586 257.185 165.17 244.336 165.17C231.487 165.17 221.07 175.586 221.07 188.436C221.07 201.285 231.487 211.701 244.336 211.701Z" stroke="#1C1C1C" stroke-width="3" stroke-linecap="round" stroke-linejoin="round"/>
<path d="M273.419 217.517L260.768 204.867" stroke="#1C1C1C" stroke-width="3" stroke-linecap="round" stroke-linejoin="round"/>
<mask id="path-3-inside-1_728_903" fill="white">
<path d="M412.142 121.344H648.142V261.344H412.142V121.344Z"/>
</mask>
<path d="M648.142 261.344V267.344H654.142V261.344H648.142ZM642.142 121.344V261.344H654.142V121.344H642.142ZM648.142 255.344H412.142V267.344H648.142V255.344Z" fill="#B6B6B6" mask="url(#path-3-inside-1_728_903)"/>
<path d="M436.894 207.344C436.542 207.344 436.254 207.232 436.03 207.008C435.806 206.784 435.694 206.496 435.694 206.144V174.944C435.694 174.592 435.806 174.304 436.03 174.08C436.254 173.856 436.542 173.744 436.894 173.744H442.126C442.478 173.744 442.766 173.856 442.99 174.08C443.214 174.304 443.326 174.592 443.326 174.944V186.944H446.878L454.318 174.656C454.478 174.4 454.702 174.192 454.99 174.032C455.278 173.84 455.646 173.744 456.094 173.744H461.902C462.222 173.744 462.462 173.856 462.622 174.08C462.814 174.272 462.91 174.496 462.91 174.752C462.91 174.944 462.846 175.136 462.718 175.328L453.742 189.92L463.63 205.712C463.694 205.84 463.726 206.016 463.726 206.24C463.726 206.56 463.614 206.832 463.39 207.056C463.198 207.248 462.958 207.344 462.67 207.344H456.67C456.19 207.344 455.838 207.248 455.614 207.056C455.39 206.832 455.214 206.64 455.086 206.48L447.166 193.76H443.326V206.144C443.326 206.496 443.214 206.784 442.99 207.008C442.766 207.232 442.478 207.344 442.126 207.344H436.894ZM475.37 207.824C473.674 207.824 472.154 207.504 470.81 206.864C469.466 206.192 468.394 205.296 467.594 204.176C466.794 203.056 466.394 201.808 466.394 200.432C466.394 198.16 467.306 196.368 469.13 195.056C470.986 193.744 473.418 192.848 476.426 192.368L482.714 191.456V190.592C482.714 189.344 482.426 188.384 481.85 187.712C481.274 187.04 480.266 186.704 478.826 186.704C477.77 186.704 476.922 186.912 476.282 187.328C475.642 187.744 475.146 188.288 474.794 188.96C474.538 189.376 474.17 189.584 473.69 189.584H469.13C468.778 189.584 468.506 189.488 468.314 189.296C468.122 189.072 468.042 188.816 468.074 188.528C468.074 187.984 468.282 187.344 468.698 186.608C469.114 185.872 469.754 185.152 470.618 184.448C471.482 183.712 472.586 183.104 473.93 182.624C475.274 182.144 476.922 181.904 478.874 181.904C480.89 181.904 482.618 182.144 484.058 182.624C485.498 183.104 486.65 183.776 487.514 184.64C488.378 185.504 489.018 186.512 489.434 187.664C489.85 188.784 490.058 190 490.058 191.312V206.144C490.058 206.496 489.946 206.784 489.722 207.008C489.498 207.232 489.21 207.344 488.858 207.344H484.154C483.834 207.344 483.562 207.232 483.338 207.008C483.114 206.784 483.002 206.496 483.002 206.144V204.368C482.586 204.976 482.026 205.552 481.322 206.096C480.618 206.608 479.77 207.024 478.778 207.344C477.818 207.664 476.682 207.824 475.37 207.824ZM477.29 202.832C478.346 202.832 479.29 202.608 480.122 202.16C480.954 201.712 481.61 201.024 482.09 200.096C482.57 199.168 482.81 198 482.81 196.592V195.776L478.346 196.496C476.618 196.784 475.354 197.216 474.554 197.792C473.754 198.368 473.354 199.072 473.354 199.904C473.354 200.512 473.53 201.04 473.882 201.488C474.266 201.936 474.762 202.272 475.37 202.496C475.978 202.72 476.618 202.832 477.29 202.832ZM503.454 207.344C503.102 207.344 502.814 207.232 502.59 207.008C502.366 206.784 502.254 206.496 502.254 206.144V188.048H494.718C494.366 188.048 494.078 187.936 493.854 187.712C493.63 187.488 493.518 187.2 493.518 186.848V183.584C493.518 183.232 493.63 182.944 493.854 182.72C494.078 182.496 494.366 182.384 494.718 182.384H516.846C517.198 182.384 517.486 182.496 517.71 182.72C517.934 182.944 518.046 183.232 518.046 183.584V186.848C518.046 187.2 517.934 187.488 517.71 187.712C517.486 187.936 517.198 188.048 516.846 188.048H509.31V206.144C509.31 206.496 509.198 206.784 508.974 207.008C508.75 207.232 508.478 207.344 508.158 207.344H503.454ZM529.089 207.824C527.393 207.824 525.873 207.504 524.529 206.864C523.185 206.192 522.113 205.296 521.313 204.176C520.513 203.056 520.113 201.808 520.113 200.432C520.113 198.16 521.025 196.368 522.849 195.056C524.705 193.744 527.137 192.848 530.145 192.368L536.433 191.456V190.592C536.433 189.344 536.145 188.384 535.569 187.712C534.993 187.04 533.985 186.704 532.545 186.704C531.489 186.704 530.641 186.912 530.001 187.328C529.361 187.744 528.865 188.288 528.513 188.96C528.257 189.376 527.889 189.584 527.409 189.584H522.849C522.497 189.584 522.225 189.488 522.033 189.296C521.841 189.072 521.761 188.816 521.793 188.528C521.793 187.984 522.001 187.344 522.417 186.608C522.833 185.872 523.473 185.152 524.337 184.448C525.201 183.712 526.305 183.104 527.649 182.624C528.993 182.144 530.641 181.904 532.593 181.904C534.609 181.904 536.337 182.144 537.777 182.624C539.217 183.104 540.369 183.776 541.233 184.64C542.097 185.504 542.737 186.512 543.153 187.664C543.569 188.784 543.777 190 543.777 191.312V206.144C543.777 206.496 543.665 206.784 543.441 207.008C543.217 207.232 542.929 207.344 542.577 207.344H537.873C537.553 207.344 537.281 207.232 537.057 207.008C536.833 206.784 536.721 206.496 536.721 206.144V204.368C536.305 204.976 535.745 205.552 535.041 206.096C534.337 206.608 533.489 207.024 532.497 207.344C531.537 207.664 530.401 207.824 529.089 207.824ZM531.009 202.832C532.065 202.832 533.009 202.608 533.841 202.16C534.673 201.712 535.329 201.024 535.809 200.096C536.289 199.168 536.529 198 536.529 196.592V195.776L532.065 196.496C530.337 196.784 529.073 197.216 528.273 197.792C527.473 198.368 527.073 199.072 527.073 199.904C527.073 200.512 527.249 201.04 527.601 201.488C527.985 201.936 528.481 202.272 529.089 202.496C529.697 202.72 530.337 202.832 531.009 202.832ZM548.964 207.344C548.644 207.344 548.356 207.232 548.1 207.008C547.876 206.752 547.764 206.464 547.764 206.144V202.544C547.764 201.84 548.148 201.456 548.916 201.392C549.844 201.296 550.564 200.864 551.076 200.096C551.62 199.296 552.004 198.08 552.228 196.448C552.452 194.816 552.564 192.72 552.564 190.16V183.584C552.564 183.232 552.676 182.944 552.9 182.72C553.124 182.496 553.412 182.384 553.764 182.384H571.668C572.02 182.384 572.308 182.496 572.532 182.72C572.756 182.944 572.868 183.232 572.868 183.584V206.144C572.868 206.496 572.756 206.784 572.532 207.008C572.308 207.232 572.02 207.344 571.668 207.344H566.868C566.548 207.344 566.26 207.232 566.004 207.008C565.78 206.784 565.668 206.496 565.668 206.144V188.048H559.428V190.976C559.428 194.016 559.252 196.592 558.9 198.704C558.58 200.816 558.02 202.512 557.22 203.792C556.42 205.04 555.348 205.952 554.004 206.528C552.66 207.072 550.98 207.344 548.964 207.344ZM590.497 207.824C587.841 207.824 585.617 207.392 583.825 206.528C582.033 205.632 580.657 204.368 579.697 202.736C578.769 201.104 578.257 199.2 578.161 197.024C578.129 196.384 578.113 195.664 578.113 194.864C578.113 194.032 578.129 193.312 578.161 192.704C578.257 190.496 578.801 188.592 579.793 186.992C580.785 185.36 582.177 184.112 583.969 183.248C585.761 182.352 587.937 181.904 590.497 181.904C593.025 181.904 595.185 182.352 596.977 183.248C598.769 184.112 600.161 185.36 601.153 186.992C602.145 188.592 602.689 190.496 602.785 192.704C602.849 193.312 602.881 194.032 602.881 194.864C602.881 195.664 602.849 196.384 602.785 197.024C602.689 199.2 602.161 201.104 601.201 202.736C600.273 204.368 598.913 205.632 597.121 206.528C595.329 207.392 593.121 207.824 590.497 207.824ZM590.497 202.544C592.065 202.544 593.249 202.064 594.049 201.104C594.849 200.112 595.281 198.672 595.345 196.784C595.377 196.304 595.393 195.664 595.393 194.864C595.393 194.064 595.377 193.424 595.345 192.944C595.281 191.088 594.849 189.664 594.049 188.672C593.249 187.68 592.065 187.184 590.497 187.184C588.929 187.184 587.729 187.68 586.897 188.672C586.097 189.664 585.665 191.088 585.601 192.944C585.569 193.424 585.553 194.064 585.553 194.864C585.553 195.664 585.569 196.304 585.601 196.784C585.665 198.672 586.097 200.112 586.897 201.104C587.729 202.064 588.929 202.544 590.497 202.544ZM609.053 207.344C608.733 207.344 608.461 207.232 608.237 207.008C608.013 206.784 607.901 206.496 607.901 206.144V183.584C607.901 183.232 608.013 182.944 608.237 182.72C608.461 182.496 608.733 182.384 609.053 182.384H624.653C625.005 182.384 625.293 182.496 625.517 182.72C625.741 182.944 625.853 183.232 625.853 183.584V186.848C625.853 187.2 625.741 187.488 625.517 187.712C625.293 187.936 625.005 188.048 624.653 188.048H615.053V206.144C615.053 206.496 614.941 206.784 614.717 207.008C614.493 207.232 614.205 207.344 613.853 207.344H609.053Z" fill="#1C1C1C"/>
<path d="M782.894 207.344C782.542 207.344 782.254 207.232 782.03 207.008C781.806 206.784 781.694 206.496 781.694 206.144V174.944C781.694 174.592 781.806 174.304 782.03 174.08C782.254 173.856 782.542 173.744 782.894 173.744H805.358C805.71 173.744 805.998 173.856 806.222 174.08C806.446 174.304 806.558 174.592 806.558 174.944V179.024C806.558 179.344 806.446 179.616 806.222 179.84C805.998 180.064 805.71 180.176 805.358 180.176H789.326V186.896H796.766C800.478 186.896 803.39 187.808 805.502 189.632C807.646 191.456 808.718 193.92 808.718 197.024C808.718 198.4 808.446 199.712 807.902 200.96C807.39 202.208 806.638 203.312 805.646 204.272C804.654 205.232 803.406 205.984 801.902 206.528C800.43 207.072 798.718 207.344 796.766 207.344H782.894ZM789.326 201.728H796.046C797.07 201.728 797.934 201.504 798.638 201.056C799.374 200.608 799.918 200.016 800.27 199.28C800.654 198.544 800.846 197.76 800.846 196.928C800.846 195.648 800.43 194.576 799.598 193.712C798.798 192.848 797.614 192.416 796.046 192.416H789.326V201.728ZM813.726 216.464C813.374 216.464 813.086 216.352 812.862 216.128C812.638 215.904 812.526 215.616 812.526 215.264V183.584C812.526 183.232 812.638 182.944 812.862 182.72C813.086 182.496 813.374 182.384 813.726 182.384H818.286C818.638 182.384 818.926 182.496 819.15 182.72C819.374 182.944 819.486 183.232 819.486 183.584V185.408C820.254 184.384 821.246 183.552 822.462 182.912C823.678 182.24 825.198 181.904 827.022 181.904C828.686 181.904 830.126 182.176 831.342 182.72C832.59 183.232 833.63 183.984 834.462 184.976C835.326 185.936 835.982 187.104 836.43 188.48C836.91 189.856 837.182 191.408 837.246 193.136C837.278 193.744 837.294 194.32 837.294 194.864C837.294 195.408 837.278 196 837.246 196.64C837.214 198.272 836.958 199.776 836.478 201.152C836.03 202.528 835.374 203.712 834.51 204.704C833.646 205.696 832.59 206.464 831.342 207.008C830.126 207.552 828.686 207.824 827.022 207.824C825.39 207.824 823.966 207.536 822.75 206.96C821.566 206.352 820.59 205.536 819.822 204.512V215.264C819.822 215.616 819.71 215.904 819.486 216.128C819.262 216.352 818.99 216.464 818.67 216.464H813.726ZM824.862 202.064C826.078 202.064 827.038 201.808 827.742 201.296C828.446 200.752 828.942 200.048 829.23 199.184C829.55 198.32 829.742 197.376 829.806 196.352C829.87 195.36 829.87 194.368 829.806 193.376C829.742 192.352 829.55 191.408 829.23 190.544C828.942 189.68 828.446 188.992 827.742 188.48C827.038 187.936 826.078 187.664 824.862 187.664C823.678 187.664 822.718 187.936 821.982 188.48C821.246 189.024 820.718 189.712 820.398 190.544C820.078 191.376 819.886 192.272 819.822 193.232C819.79 193.808 819.774 194.4 819.774 195.008C819.774 195.616 819.79 196.224 819.822 196.832C819.854 197.728 820.046 198.576 820.398 199.376C820.782 200.144 821.326 200.784 822.03 201.296C822.766 201.808 823.71 202.064 824.862 202.064ZM853.521 207.824C849.841 207.824 846.913 206.8 844.737 204.752C842.593 202.704 841.457 199.728 841.329 195.824C841.329 195.568 841.329 195.232 841.329 194.816C841.329 194.368 841.329 194.016 841.329 193.76C841.457 191.296 842.017 189.184 843.009 187.424C844.001 185.632 845.393 184.272 847.185 183.344C848.977 182.384 851.073 181.904 853.473 181.904C856.161 181.904 858.401 182.464 860.193 183.584C862.017 184.672 863.377 186.176 864.273 188.096C865.201 189.984 865.665 192.16 865.665 194.624V195.728C865.665 196.048 865.537 196.32 865.281 196.544C865.057 196.768 864.785 196.88 864.465 196.88H848.769C848.769 196.912 848.769 196.976 848.769 197.072C848.769 197.136 848.769 197.2 848.769 197.264C848.801 198.288 848.993 199.232 849.345 200.096C849.729 200.928 850.257 201.6 850.929 202.112C851.633 202.624 852.465 202.88 853.425 202.88C854.225 202.88 854.881 202.768 855.393 202.544C855.905 202.32 856.321 202.048 856.641 201.728C856.993 201.408 857.249 201.136 857.409 200.912C857.697 200.592 857.921 200.4 858.081 200.336C858.273 200.24 858.561 200.192 858.945 200.192H863.937C864.257 200.192 864.513 200.288 864.705 200.48C864.929 200.64 865.025 200.88 864.993 201.2C864.961 201.712 864.689 202.352 864.177 203.12C863.697 203.856 862.977 204.592 862.017 205.328C861.057 206.032 859.857 206.624 858.417 207.104C857.009 207.584 855.377 207.824 853.521 207.824ZM848.769 192.512H858.177V192.416C858.177 191.264 857.985 190.272 857.601 189.44C857.249 188.576 856.721 187.904 856.017 187.424C855.313 186.944 854.465 186.704 853.473 186.704C852.481 186.704 851.633 186.944 850.929 187.424C850.225 187.904 849.681 188.576 849.297 189.44C848.945 190.272 848.769 191.264 848.769 192.416V192.512ZM871.615 207.344C871.295 207.344 871.023 207.232 870.799 207.008C870.575 206.784 870.463 206.496 870.463 206.144V183.584C870.463 183.232 870.575 182.944 870.799 182.72C871.023 182.496 871.295 182.384 871.615 182.384H876.415C876.767 182.384 877.055 182.496 877.279 182.72C877.503 182.944 877.615 183.232 877.615 183.584V191.84H887.359V183.584C887.359 183.232 887.471 182.944 887.695 182.72C887.919 182.496 888.207 182.384 888.559 182.384H893.359C893.679 182.384 893.951 182.496 894.175 182.72C894.399 182.944 894.511 183.232 894.511 183.584V206.144C894.511 206.496 894.399 206.784 894.175 207.008C893.951 207.232 893.679 207.344 893.359 207.344H888.559C888.207 207.344 887.919 207.232 887.695 207.008C887.471 206.784 887.359 206.496 887.359 206.144V197.504H877.615V206.144C877.615 206.496 877.503 206.784 877.279 207.008C877.055 207.232 876.767 207.344 876.415 207.344H871.615ZM899.93 212.624C899.61 212.624 899.338 212.512 899.114 212.288C898.89 212.064 898.778 211.776 898.778 211.424V202.88C898.778 202.528 898.89 202.24 899.114 202.016C899.338 201.792 899.61 201.68 899.93 201.68H900.362C901.194 201.68 901.85 201.248 902.33 200.384C902.842 199.52 903.21 198.24 903.434 196.544C903.658 194.848 903.77 192.72 903.77 190.16V183.584C903.77 183.232 903.882 182.944 904.106 182.72C904.33 182.496 904.602 182.384 904.922 182.384H922.874C923.226 182.384 923.514 182.496 923.738 182.72C923.962 182.944 924.074 183.232 924.074 183.584V201.632H926.186C926.506 201.632 926.778 201.744 927.002 201.968C927.226 202.192 927.338 202.48 927.338 202.832V211.424C927.338 211.776 927.226 212.064 927.002 212.288C926.778 212.512 926.506 212.624 926.186 212.624H921.386C921.034 212.624 920.746 212.512 920.522 212.288C920.298 212.064 920.186 211.776 920.186 211.424V207.344H905.93V211.424C905.93 211.776 905.818 212.064 905.594 212.288C905.37 212.512 905.082 212.624 904.73 212.624H899.93ZM908.618 201.68L916.922 201.632V188.048H910.586V190.976C910.586 193.6 910.41 195.792 910.058 197.552C909.738 199.312 909.258 200.688 908.618 201.68ZM932.647 207.344C932.327 207.344 932.055 207.232 931.831 207.008C931.607 206.784 931.495 206.496 931.495 206.144V183.584C931.495 183.232 931.607 182.944 931.831 182.72C932.055 182.496 932.327 182.384 932.647 182.384H937.495C937.815 182.384 938.087 182.496 938.311 182.72C938.535 182.944 938.647 183.232 938.647 183.584V190.16H943.207C946.439 190.16 948.903 190.944 950.599 192.512C952.295 194.048 953.143 196.16 953.143 198.848C953.143 201.664 952.247 203.792 950.455 205.232C948.663 206.64 946.135 207.344 942.871 207.344H932.647ZM938.551 202.304H942.583C943.991 202.304 945.015 202.048 945.655 201.536C946.327 200.992 946.663 200.096 946.663 198.848C946.663 197.632 946.343 196.72 945.703 196.112C945.063 195.504 944.023 195.2 942.583 195.2H938.551V202.304ZM957.415 207.344C957.063 207.344 956.775 207.232 956.551 207.008C956.327 206.784 956.215 206.496 956.215 206.144V183.584C956.215 183.232 956.327 182.944 956.551 182.72C956.775 182.496 957.063 182.384 957.415 182.384H962.215C962.535 182.384 962.807 182.496 963.031 182.72C963.255 182.944 963.367 183.232 963.367 183.584V206.144C963.367 206.496 963.255 206.784 963.031 207.008C962.807 207.232 962.535 207.344 962.215 207.344H957.415Z" fill="#1C1C1C"/>
<rect width="402.858" height="191.344" transform="matrix(2 0 0 2 1098.14 0)" fill="#E7194A"/>
<path fill-rule="evenodd" clip-rule="evenodd" d="M1473.83 119.782C1473.83 136.632 1474.08 145.8 1474.56 145.8C1475.03 145.8 1475.29 136.632 1475.29 119.782C1475.29 102.932 1475.03 93.7639 1474.56 93.7639C1474.08 93.7639 1473.83 102.932 1473.83 119.782ZM1463.98 107.239C1452.49 108.701 1439.33 113.769 1428.53 120.887C1417.89 127.899 1405.7 141.887 1399.86 153.767C1397.59 158.387 1397.58 158.437 1399.3 158.437C1400.24 158.437 1401.61 156.62 1403.8 152.478C1416.29 128.827 1439.83 113.029 1467.44 109.763C1470.93 109.352 1471.64 109.026 1471.64 107.834C1471.64 106.255 1471.68 106.258 1463.98 107.239ZM1477.74 107.521C1477.49 108.167 1477.42 108.802 1477.57 108.932C1477.72 109.061 1481.5 109.696 1485.97 110.343C1511.81 114.076 1533.55 129.374 1546.48 152.924C1548.25 156.154 1549.54 157.694 1550.47 157.694C1552 157.694 1551.89 157.231 1549.11 151.887C1537.35 129.343 1514.23 112.115 1490.21 108.01C1480.58 106.364 1478.21 106.271 1477.74 107.521ZM1462.63 119.818C1452.99 121.466 1441.11 126.581 1432.68 132.707C1427.06 136.798 1418.43 146.017 1414.63 151.993C1411.77 156.485 1411.75 156.584 1413.38 156.837C1414.3 156.979 1415.16 156.768 1415.29 156.366C1416.12 153.815 1424.82 143.142 1429.03 139.496C1440.49 129.587 1451.38 124.479 1465.43 122.421C1469.92 121.763 1471.32 121.276 1471.51 120.302C1471.7 119.279 1471.21 119.055 1468.95 119.126C1467.42 119.174 1464.58 119.485 1462.63 119.818ZM1477.59 120.224C1477.81 121.386 1478.77 121.742 1482.95 122.21C1502.64 124.407 1521.35 136.115 1532.84 153.419C1534.31 155.646 1535.71 156.95 1536.63 156.95C1537.9 156.95 1537.97 156.742 1537.23 155.278C1535.12 151.148 1529.72 144.252 1524.79 139.4C1513.08 127.877 1497.88 120.611 1482.69 119.278C1477.68 118.838 1477.34 118.901 1477.59 120.224ZM1463.98 132.03C1449.78 134.711 1435.11 143.877 1427.33 154.929C1425.27 157.853 1425.12 158.346 1426.19 158.765C1427.07 159.109 1428.25 158.236 1430.36 155.681C1439.67 144.411 1451.21 137.478 1464.83 134.979C1470.57 133.925 1471.64 133.512 1471.64 132.331C1471.64 130.711 1471.08 130.689 1463.98 132.03ZM1477.47 132.334C1477.47 133.476 1478.22 133.83 1481.53 134.251C1496.55 136.163 1511.49 144.696 1519.79 156.096C1521.59 158.578 1523.65 160.621 1524.35 160.638C1526.26 160.682 1525.92 159.52 1522.78 155.246C1514.06 143.374 1500.09 134.655 1485.5 131.986C1478.16 130.642 1477.47 130.672 1477.47 132.334ZM1256.96 134.399C1255.75 134.739 1255.69 137.231 1255.87 176.891L1256.05 219.022H1266.27H1276.48L1276.68 200.379L1276.87 181.736L1278.93 179.722C1281.58 177.141 1285.66 176.4 1288.13 178.051L1289.95 179.27L1290.15 199.146L1290.34 219.022L1300.74 219.228L1311.14 219.434V196.876C1311.14 170.435 1310.83 168.574 1305.73 163.78C1302.25 160.513 1299.28 159.531 1293.26 159.667C1287.91 159.787 1283.89 161.123 1280.17 164.017L1276.88 166.582L1276.68 150.43L1276.48 134.278L1267.36 134.157C1262.35 134.09 1257.67 134.2 1256.96 134.399ZM1563.9 134.835C1563.7 135.347 1563.63 154.497 1563.74 177.393L1563.93 219.022H1574.14H1584.35L1584.55 200.379L1584.74 181.736L1586.84 179.691C1589.67 176.93 1593.94 176.338 1596.4 178.367L1598.21 179.861L1598.44 199.627L1598.67 219.394H1608.84H1619.01V196.747C1619.01 171.253 1618.68 169.103 1614.06 164.21C1610.89 160.853 1607.67 159.658 1601.86 159.684C1595.94 159.711 1591.98 160.953 1588.03 164.028L1584.72 166.605V150.706C1584.72 136.895 1584.57 134.749 1583.56 134.357C1582.93 134.109 1578.32 133.906 1573.33 133.906C1566.73 133.906 1564.15 134.161 1563.9 134.835ZM1464.71 144.329C1455.67 146.178 1444.63 152.863 1438.77 160.043C1436.78 162.473 1435.16 164.759 1435.16 165.122C1435.16 167.244 1437.2 165.953 1442.59 160.423C1449.92 152.909 1457.44 148.684 1466.15 147.193C1470.61 146.429 1471.64 146.003 1471.64 144.911C1471.64 143.427 1469.85 143.277 1464.71 144.329ZM1477.47 144.612C1477.47 146.008 1477.55 146.037 1484.04 147.216C1494.19 149.059 1505.24 156.448 1512.18 166.037C1514.73 169.556 1515.41 170.109 1516.13 169.233C1516.81 168.389 1516.5 167.45 1514.6 164.606C1507.23 153.59 1494.16 145.302 1481.95 143.893C1478.06 143.446 1477.47 143.54 1477.47 144.612ZM1757.62 152.453V160.593L1753.43 160.816L1749.23 161.039L1749.02 168.658C1748.79 177.213 1748.32 176.602 1754.89 176.293L1757.62 176.164V188.612C1757.62 207.526 1759.01 212.939 1764.86 216.961C1768.41 219.394 1772.43 220.299 1779.61 220.277C1785.96 220.257 1794.83 218.357 1794.83 217.017C1794.83 216.635 1793.95 212.995 1792.88 208.927C1791.08 202.093 1790.82 201.574 1789.42 202.09C1788.58 202.397 1786.27 202.653 1784.28 202.658C1779.16 202.671 1778.8 201.695 1778.79 187.614L1778.78 176.278H1784.98H1791.18V168.473V160.667H1784.98H1778.78V152.49V144.313H1768.2H1757.62V152.453ZM1467.81 150.286C1457.89 151.987 1445.84 159.831 1441.01 167.731C1439.67 169.913 1439.67 170.056 1441.02 174.125C1441.78 176.413 1442.66 180.418 1442.97 183.023L1443.55 187.759L1455.22 173.343C1461.64 165.414 1468.45 157.06 1470.35 154.78C1472.26 152.498 1473.82 150.381 1473.82 150.074C1473.83 149.425 1472.57 149.468 1467.81 150.286ZM1500.09 179.834V201.553H1507.71C1511.9 201.553 1515.52 201.226 1515.76 200.827C1516.01 200.428 1516.4 198.416 1516.64 196.355C1516.97 193.489 1516.8 192.298 1515.9 191.283C1513.76 188.882 1512.41 183.587 1512.61 178.447C1512.78 174.047 1512.57 173.186 1510.49 169.898C1509.22 167.888 1506.36 164.414 1504.14 162.179L1500.09 158.116V179.834ZM1225.91 160.074C1214.33 161.671 1207.54 168.82 1207.54 179.408C1207.54 183.873 1209.09 187.783 1212.14 191.025C1215.1 194.172 1218.63 196.066 1226.87 198.912C1233.83 201.315 1234.92 202.567 1231.61 204.355C1228.85 205.852 1221.61 205.074 1216.61 202.741C1214.29 201.658 1212.16 201.032 1211.88 201.348C1211.14 202.185 1206.08 213.87 1206.08 214.75C1206.08 215.616 1211.57 218.12 1216.26 219.394C1221.14 220.718 1233.42 220.583 1238.23 219.153C1244.2 217.377 1248.17 214.134 1250.37 209.224C1251.97 205.675 1252.18 204.355 1251.88 199.703C1251.47 193.17 1249.62 189.673 1244.97 186.671C1241.46 184.402 1235.78 181.973 1231.23 180.79C1229.61 180.369 1227.64 179.516 1226.85 178.895C1225.43 177.779 1225.44 177.744 1227.14 176.277C1229.4 174.324 1233.99 174.339 1239.75 176.315C1242.19 177.153 1244.26 177.739 1244.36 177.616C1244.57 177.337 1248.2 169.298 1249.59 166.028C1250.62 163.586 1250.62 163.582 1248.06 162.491C1242.49 160.119 1233.05 159.089 1225.91 160.074ZM1412.05 159.949C1408.33 160.709 1405.33 162.234 1403.49 164.308C1401.53 166.522 1400.87 166.257 1400.87 163.248V160.626L1390.84 160.832L1380.81 161.039L1380.62 202.854L1380.43 244.668H1391.02H1401.6V231.208C1401.6 218.681 1401.69 217.785 1402.88 218.279C1408.89 220.783 1419.72 220.695 1424.58 218.105C1432.11 214.091 1437.2 206.761 1438.89 197.464C1439.88 192.064 1439.31 180.988 1437.8 175.978C1435.63 168.812 1430.1 162.649 1424.22 160.832C1420.28 159.618 1415.41 159.264 1412.05 159.949ZM1531.83 160.58C1522.92 162.969 1516.86 170.341 1516.87 178.788C1516.89 188.792 1522.93 194.903 1537.08 199.225C1539.97 200.108 1542.56 201.214 1542.85 201.683C1543.14 202.16 1542.63 203.14 1541.71 203.903C1538.51 206.543 1528.82 205.109 1523.09 201.148C1521.58 200.104 1520.27 199.349 1520.17 199.472C1520.08 199.594 1519.34 201.869 1518.53 204.526C1517.72 207.184 1516.52 210.603 1515.87 212.126L1514.68 214.893L1516.95 216.092C1529.6 222.754 1549.77 221.734 1556.77 214.078C1563.48 206.738 1562.79 192.868 1555.45 187.449C1552.38 185.185 1545.2 181.971 1540.56 180.779C1538.94 180.364 1536.97 179.516 1536.18 178.895C1534.76 177.779 1534.77 177.744 1536.47 176.277C1538.73 174.324 1543.32 174.339 1549.08 176.315C1551.52 177.153 1553.6 177.739 1553.7 177.616C1554.64 176.461 1559.81 164.074 1559.54 163.626C1559.34 163.302 1557.62 162.46 1555.72 161.757C1551.89 160.342 1535.69 159.544 1531.83 160.58ZM1336.15 162.451C1325.38 166.014 1317.91 175.258 1316.41 186.871C1315.04 197.457 1318.28 208.145 1324.67 214.15C1336.31 225.078 1356.75 224.816 1367.74 213.597C1372.99 208.239 1375.47 202.06 1375.9 193.266C1376.59 179.286 1371.99 170.387 1361.17 164.758C1355.63 161.874 1355.22 161.782 1347.34 161.61C1342.01 161.494 1338.17 161.782 1336.15 162.451ZM1644.91 162.414C1633.7 166.184 1626.46 175.038 1624.8 187.014C1621.74 209.016 1638.65 225.507 1660.32 221.662C1675.26 219.01 1684.69 207.205 1684.66 191.175C1684.64 178.569 1679.05 169.134 1668.62 164.097C1664.34 162.031 1663.09 161.79 1655.85 161.62C1650.68 161.5 1646.79 161.782 1644.91 162.414ZM1709.11 162.542C1700.92 165.644 1695.91 169.852 1692.63 176.39C1687.86 185.893 1687.86 197.883 1692.63 207.384C1700.95 223.964 1727.22 227.394 1740.7 213.662C1755.33 198.759 1750.7 171.135 1732.33 163.646C1726.87 161.423 1713.72 160.797 1709.11 162.542ZM1350.34 177.915C1354.75 181.637 1355.38 200.662 1351.23 204.884C1350.19 205.95 1348.8 206.385 1346.44 206.385C1343.72 206.385 1342.8 206.013 1341.41 204.366C1339.07 201.597 1337.85 195.01 1338.38 187.996C1338.86 181.655 1340.28 178.052 1342.73 176.995C1344.72 176.135 1348.82 176.63 1350.34 177.915ZM1413.19 177.49C1414.12 178.157 1415.34 179.819 1415.9 181.184C1417.11 184.138 1417.27 195.311 1416.14 198.345C1414.17 203.661 1409.48 205.689 1404.47 203.39L1401.6 202.07L1401.61 190.847L1401.63 179.623L1403.97 177.951C1406.75 175.97 1410.78 175.769 1413.19 177.49ZM1658.18 177.734C1661.23 179.628 1662.28 183.461 1662.24 192.641C1662.2 203.639 1659.72 207.593 1653.6 206.422C1648.57 205.461 1646.35 199.749 1646.87 189.092C1647.22 181.886 1648.37 178.649 1651.11 177.24C1653.66 175.926 1655.48 176.053 1658.18 177.734ZM1722.14 177.302C1725.71 178.823 1726.62 181.77 1726.62 191.889C1726.62 197.351 1726.26 201.287 1725.64 202.79C1723.61 207.687 1716.34 207.967 1713.65 203.252C1711.71 199.86 1710.88 192.622 1711.68 186.195C1712.44 180.074 1713.39 178.072 1716.03 177.083C1718.61 176.113 1719.41 176.142 1722.14 177.302ZM1465.56 190.041L1456.93 201.181L1465.48 201.391C1470.18 201.507 1474.15 201.47 1474.31 201.309C1474.47 201.148 1474.5 196.04 1474.39 189.958L1474.19 178.9L1465.56 190.041ZM1433.73 215.269C1433.02 216.138 1433.3 217.014 1435.18 219.789C1442.55 230.717 1455.4 238.897 1467.81 240.574C1471.37 241.055 1471.64 240.982 1471.64 239.534C1471.64 238.408 1471.18 237.978 1469.97 237.978C1466.86 237.978 1459.62 235.738 1454.49 233.183C1448.48 230.196 1441.64 224.142 1437.72 218.331C1436.18 216.053 1434.85 214.19 1434.76 214.19C1434.68 214.19 1434.21 214.675 1433.73 215.269ZM1507.02 224.208C1502.22 229.26 1500.08 230.889 1494.98 233.382C1491.38 235.143 1486.49 236.834 1483.31 237.422C1479.25 238.171 1477.78 238.757 1477.61 239.691C1477.31 241.258 1479.01 241.303 1485.5 239.899C1495.27 237.782 1505.4 231.605 1511.4 224.103C1514.54 220.173 1515.13 218.573 1513.54 218.218C1513.17 218.134 1510.23 220.83 1507.02 224.208ZM1423.68 222.227C1423.02 222.658 1423.28 223.567 1424.72 225.747C1434.67 240.904 1450.66 250.986 1468.17 253.135C1471.16 253.502 1471.64 253.378 1471.64 252.243C1471.64 251.174 1470.41 250.689 1465.11 249.669C1456.88 248.083 1450.33 245.42 1443.67 240.955C1438.12 237.24 1430.91 230.015 1427.53 224.783C1425.38 221.461 1425.13 221.294 1423.68 222.227ZM1447.93 224.244C1454 229.584 1465.15 234.261 1471.79 234.261H1474.56V227.942V221.624L1459.78 221.652L1445.01 221.679L1447.93 224.244ZM1500.09 223.508C1500.09 225.105 1500.29 225.282 1501.43 224.664C1502.16 224.263 1503.19 223.415 1503.7 222.78C1504.52 221.776 1504.35 221.624 1502.37 221.624C1500.42 221.624 1500.09 221.894 1500.09 223.508ZM1521.44 226.27C1518.34 230.621 1512.21 236.849 1508.39 239.531C1506.63 240.76 1505.2 241.944 1505.2 242.163C1505.2 243.328 1510.63 241.556 1513.01 239.613C1517.77 235.734 1526.35 225.529 1526.35 223.747C1526.35 221.979 1523.42 223.486 1521.44 226.27ZM1410.35 224.455C1410.35 225.442 1415.35 233.602 1418.53 237.805C1429.52 252.329 1448.89 263.391 1466.42 265.151C1471.42 265.653 1471.64 265.608 1471.64 264.092C1471.64 262.761 1471.2 262.507 1468.9 262.493C1464.33 262.466 1453.74 259.751 1447.56 257.022C1435.24 251.58 1424.22 241.98 1416.92 230.316C1414.43 226.332 1412.43 223.896 1411.63 223.88C1410.93 223.866 1410.35 224.124 1410.35 224.455ZM1535.11 227.199C1533.87 229.039 1532.59 230.544 1532.27 230.544C1530.88 230.544 1525.51 237.081 1524.74 239.715C1524.26 241.315 1522.97 243.293 1521.84 244.148C1520.71 244.997 1519.79 246.11 1519.79 246.623C1519.79 248.068 1521.2 248.61 1522.37 247.615C1523.27 246.853 1523.44 247.176 1523.44 249.732C1523.44 251.391 1523.75 253.587 1524.13 254.612C1524.64 255.97 1524.52 257.103 1523.69 258.794C1522.35 261.538 1522.72 262.21 1524.91 261.014C1526.29 260.259 1526.82 260.434 1528.8 262.306C1533.33 266.583 1538.31 268.456 1545.15 268.456C1549.09 268.456 1555.16 266.844 1557.34 265.218C1558.72 264.185 1558.71 264.063 1556.71 258.987C1553.81 251.66 1554.04 251.884 1550.95 253.2C1544.9 255.773 1541.66 254.243 1541.13 248.565C1540.81 245.23 1540.99 244.551 1542.65 242.866C1544.78 240.698 1545.93 240.574 1550.05 242.072C1551.65 242.652 1553.2 242.886 1553.49 242.592C1553.78 242.298 1555 239.621 1556.2 236.644L1558.4 231.229L1556.05 229.774C1552.94 227.84 1550.29 227.397 1543.6 227.694C1538.4 227.925 1536.99 227.565 1538.76 226.456C1539.87 225.756 1539.63 223.854 1538.43 223.854C1537.84 223.854 1536.35 225.359 1535.11 227.199ZM1568.56 228.57C1558.52 232.354 1553.62 244.838 1557.75 256.093C1561.77 267.032 1575.09 271.595 1586.46 265.926C1599.68 259.336 1600.5 238.236 1587.86 230.172C1584.73 228.182 1583.65 227.922 1577.79 227.754C1573.64 227.636 1570.24 227.936 1568.56 228.57ZM1618.05 228.051C1617.79 228.316 1613.3 228.465 1608.08 228.383L1598.58 228.235L1598.54 233.292C1598.51 236.074 1598.51 244.873 1598.52 252.845L1598.55 267.341L1606.94 267.551L1615.32 267.76L1615.52 255.346C1615.67 246.36 1615.97 242.848 1616.62 242.629C1617.3 242.4 1617.56 245.364 1617.71 254.834L1617.91 267.341H1626.3H1634.69L1635.06 255.136C1635.32 246.441 1635.68 242.844 1636.32 242.628C1636.99 242.399 1637.26 245.365 1637.41 254.834L1637.61 267.341H1646H1654.39L1654.59 254.412C1654.85 237.622 1654.23 234.025 1650.41 230.358C1647.67 227.719 1647.26 227.571 1642.72 227.571C1639.32 227.571 1637.06 228.015 1634.99 229.093L1632.06 230.616L1629.64 229.093C1627.91 228.004 1625.99 227.571 1622.87 227.571C1620.48 227.571 1618.31 227.787 1618.05 228.051ZM1553.85 231.155L1555.45 232.038L1553.93 235.761L1552.42 239.485L1547.82 239.004C1543.35 238.538 1543.15 238.594 1540.9 240.881C1538.7 243.126 1538.6 243.46 1538.89 248.017C1539.29 254.432 1541.12 256.562 1546.23 256.562C1548.19 256.562 1550.39 256.237 1551.12 255.841C1552.25 255.222 1552.66 255.658 1553.99 258.913C1554.84 261 1555.54 262.954 1555.54 263.255C1555.54 264.339 1548.51 265.833 1543.86 265.738C1532.94 265.512 1526.53 259.614 1525.79 249.109C1525.18 240.33 1529.56 233.475 1537.46 230.85C1541.12 229.634 1551.44 229.826 1553.85 231.155ZM1583.44 230.862C1590.61 233.466 1594.31 239.222 1594.29 247.697C1594.26 255.68 1590.72 261.653 1584.34 264.463C1580.41 266.194 1572.13 266.166 1568.49 264.409C1562.17 261.353 1558.9 255.778 1558.88 248.013C1558.85 236.831 1565.69 229.866 1576.69 229.866C1578.9 229.866 1581.94 230.314 1583.44 230.862ZM1627.76 230.916C1628.93 231.529 1630.21 232.616 1630.6 233.332C1631.13 234.277 1631.61 234.429 1632.36 233.889C1632.93 233.48 1634.29 232.502 1635.39 231.715C1638.13 229.743 1644.37 229.289 1647.33 230.847C1651.42 233.002 1651.84 234.833 1651.84 250.578V264.739H1646H1640.16L1640.15 254.146C1640.14 240.899 1639.98 240.208 1636.89 240.208C1633 240.208 1632.64 241.304 1632.8 252.695C1632.88 258.314 1632.77 263.407 1632.54 264.011C1632.21 264.884 1630.93 265.061 1626.3 264.869L1620.47 264.626V253.593C1620.47 247.525 1620.27 242.031 1620.02 241.384C1619.74 240.637 1618.69 240.208 1617.15 240.208C1613.01 240.208 1612.44 241.904 1612.44 254.126V264.739H1606.6H1600.77V247.642V230.544H1606.6C1612.43 230.544 1612.44 230.546 1612.44 232.518C1612.44 234.335 1612.54 234.402 1613.72 233.354C1617.66 229.845 1623.73 228.791 1627.76 230.916ZM1404.52 236.608C1404.52 239.947 1409.23 246.449 1417.36 254.342C1430.39 266.975 1447.81 275.415 1464.71 277.276C1470.94 277.963 1471.64 277.861 1471.64 276.271C1471.64 275.586 1470.27 275.088 1467.44 274.749C1452.83 272.991 1441.17 268.646 1428.96 260.412C1422.45 256.024 1413.16 246.62 1408.3 239.506L1404.52 233.973V236.608ZM1473.83 264.368C1473.83 280.969 1474.08 290.014 1474.56 290.014C1475.03 290.014 1475.29 280.969 1475.29 264.368C1475.29 247.766 1475.03 238.721 1474.56 238.721C1474.08 238.721 1473.83 247.766 1473.83 264.368ZM1573.02 239.861C1571.83 241.325 1571.27 247.338 1571.91 251.703C1572.49 255.661 1574.81 257.762 1577.76 257.007C1580.39 256.335 1581.36 253.905 1581.38 247.949C1581.4 241.287 1580.02 238.721 1576.4 238.721C1575.05 238.721 1573.54 239.234 1573.02 239.861ZM1578.54 242.647C1578.77 243.579 1578.86 246.507 1578.74 249.151C1578.53 253.701 1578.42 253.96 1576.73 253.96C1575.44 253.96 1574.79 253.439 1574.43 252.102C1573.66 249.295 1573.69 244.996 1574.49 242.858C1575.4 240.415 1577.96 240.282 1578.54 242.647ZM1492.16 247.765C1490 248.542 1485.81 249.561 1482.85 250.029C1478.44 250.728 1477.47 251.126 1477.47 252.235C1477.47 253.806 1477.73 253.829 1484.04 252.815C1490.91 251.71 1495.16 250.083 1496.66 247.99C1498.22 245.803 1497.68 245.777 1492.16 247.765ZM1504.1 247.766C1499.14 250.562 1497.24 254.844 1498.66 260.017C1499.95 264.722 1503.39 267.29 1508.39 267.279C1512.98 267.269 1515.67 265.61 1517.72 261.53C1520.16 256.648 1518.56 251.353 1513.73 248.352C1511.17 246.759 1506.4 246.469 1504.1 247.766ZM1491.68 260.719C1491.27 260.893 1487.99 261.468 1484.39 261.998C1479.04 262.786 1477.8 263.211 1477.58 264.336C1477.34 265.607 1477.72 265.673 1482.6 265.21C1490.25 264.486 1494.37 263.306 1494.11 261.916C1493.87 260.692 1492.89 260.208 1491.68 260.719ZM1496.44 271.905C1494.64 272.494 1489.71 273.501 1485.5 274.141C1481.29 274.781 1477.72 275.422 1477.57 275.565C1477.42 275.708 1477.48 276.312 1477.7 276.907C1478.02 277.756 1479.09 277.902 1482.72 277.588C1487.24 277.195 1503.51 273.392 1504.36 272.531C1505 271.881 1502.86 270.7 1501.18 270.771C1500.38 270.805 1498.25 271.315 1496.44 271.905Z" fill="#FCFCFC"/>
<path d="M2050.75 207.824C2047.84 207.824 2045.33 207.344 2043.22 206.384C2041.11 205.424 2039.46 203.984 2038.27 202.064C2037.09 200.112 2036.45 197.664 2036.35 194.72C2036.32 193.344 2036.31 191.984 2036.31 190.64C2036.31 189.264 2036.32 187.872 2036.35 186.464C2036.45 183.584 2037.09 181.168 2038.27 179.216C2039.49 177.232 2041.15 175.744 2043.27 174.752C2045.41 173.76 2047.91 173.264 2050.75 173.264C2053.57 173.264 2056.03 173.76 2058.15 174.752C2060.29 175.744 2061.97 177.232 2063.19 179.216C2064.4 181.168 2065.04 183.584 2065.11 186.464C2065.17 187.872 2065.2 189.264 2065.2 190.64C2065.2 191.984 2065.17 193.344 2065.11 194.72C2065.01 197.664 2064.37 200.112 2063.19 202.064C2062 203.984 2060.35 205.424 2058.24 206.384C2056.13 207.344 2053.63 207.824 2050.75 207.824ZM2050.75 201.632C2052.61 201.632 2054.13 201.072 2055.31 199.952C2056.53 198.8 2057.17 196.976 2057.23 194.48C2057.3 193.072 2057.33 191.76 2057.33 190.544C2057.33 189.296 2057.3 187.984 2057.23 186.608C2057.2 184.944 2056.9 183.584 2056.32 182.528C2055.75 181.472 2054.98 180.704 2054.02 180.224C2053.09 179.712 2052 179.456 2050.75 179.456C2049.51 179.456 2048.4 179.712 2047.44 180.224C2046.48 180.704 2045.71 181.472 2045.14 182.528C2044.59 183.584 2044.29 184.944 2044.23 186.608C2044.19 187.984 2044.18 189.296 2044.18 190.544C2044.18 191.76 2044.19 193.072 2044.23 194.48C2044.32 196.976 2044.96 198.8 2046.15 199.952C2047.33 201.072 2048.87 201.632 2050.75 201.632ZM2082.38 207.344C2082.06 207.344 2081.79 207.232 2081.56 207.008C2081.34 206.784 2081.23 206.496 2081.23 206.144V183.584C2081.23 183.232 2081.34 182.944 2081.56 182.72C2081.79 182.496 2082.06 182.384 2082.38 182.384H2087.18C2087.53 182.384 2087.82 182.496 2088.04 182.72C2088.27 182.944 2088.38 183.232 2088.38 183.584V191.84H2098.12V183.584C2098.12 183.232 2098.23 182.944 2098.46 182.72C2098.68 182.496 2098.97 182.384 2099.32 182.384H2104.12C2104.44 182.384 2104.71 182.496 2104.94 182.72C2105.16 182.944 2105.27 183.232 2105.27 183.584V206.144C2105.27 206.496 2105.16 206.784 2104.94 207.008C2104.71 207.232 2104.44 207.344 2104.12 207.344H2099.32C2098.97 207.344 2098.68 207.232 2098.46 207.008C2098.23 206.784 2098.12 206.496 2098.12 206.144V197.504H2088.38V206.144C2088.38 206.496 2088.27 206.784 2088.04 207.008C2087.82 207.232 2087.53 207.344 2087.18 207.344H2082.38ZM2118.8 207.824C2117.11 207.824 2115.59 207.504 2114.24 206.864C2112.9 206.192 2111.83 205.296 2111.03 204.176C2110.23 203.056 2109.83 201.808 2109.83 200.432C2109.83 198.16 2110.74 196.368 2112.56 195.056C2114.42 193.744 2116.85 192.848 2119.86 192.368L2126.15 191.456V190.592C2126.15 189.344 2125.86 188.384 2125.28 187.712C2124.71 187.04 2123.7 186.704 2122.26 186.704C2121.2 186.704 2120.36 186.912 2119.72 187.328C2119.08 187.744 2118.58 188.288 2118.23 188.96C2117.97 189.376 2117.6 189.584 2117.12 189.584H2112.56C2112.21 189.584 2111.94 189.488 2111.75 189.296C2111.56 189.072 2111.48 188.816 2111.51 188.528C2111.51 187.984 2111.72 187.344 2112.13 186.608C2112.55 185.872 2113.19 185.152 2114.05 184.448C2114.92 183.712 2116.02 183.104 2117.36 182.624C2118.71 182.144 2120.36 181.904 2122.31 181.904C2124.32 181.904 2126.05 182.144 2127.49 182.624C2128.93 183.104 2130.08 183.776 2130.95 184.64C2131.81 185.504 2132.45 186.512 2132.87 187.664C2133.28 188.784 2133.49 190 2133.49 191.312V206.144C2133.49 206.496 2133.38 206.784 2133.16 207.008C2132.93 207.232 2132.64 207.344 2132.29 207.344H2127.59C2127.27 207.344 2127 207.232 2126.77 207.008C2126.55 206.784 2126.44 206.496 2126.44 206.144V204.368C2126.02 204.976 2125.46 205.552 2124.76 206.096C2124.05 206.608 2123.2 207.024 2122.21 207.344C2121.25 207.664 2120.12 207.824 2118.8 207.824ZM2120.72 202.832C2121.78 202.832 2122.72 202.608 2123.56 202.16C2124.39 201.712 2125.04 201.024 2125.52 200.096C2126 199.168 2126.24 198 2126.24 196.592V195.776L2121.78 196.496C2120.05 196.784 2118.79 197.216 2117.99 197.792C2117.19 198.368 2116.79 199.072 2116.79 199.904C2116.79 200.512 2116.96 201.04 2117.32 201.488C2117.7 201.936 2118.2 202.272 2118.8 202.496C2119.41 202.72 2120.05 202.832 2120.72 202.832ZM2150.39 207.824C2148.06 207.824 2145.99 207.392 2144.2 206.528C2142.44 205.664 2141.05 204.416 2140.02 202.784C2139 201.12 2138.44 199.136 2138.34 196.832C2138.31 196.32 2138.3 195.68 2138.3 194.912C2138.3 194.112 2138.31 193.456 2138.34 192.944C2138.44 190.608 2138.98 188.624 2139.98 186.992C2141 185.328 2142.41 184.064 2144.2 183.2C2145.99 182.336 2148.06 181.904 2150.39 181.904C2152.54 181.904 2154.36 182.208 2155.86 182.816C2157.37 183.392 2158.6 184.128 2159.56 185.024C2160.52 185.92 2161.22 186.864 2161.67 187.856C2162.15 188.816 2162.41 189.664 2162.44 190.4C2162.47 190.72 2162.36 191.008 2162.1 191.264C2161.88 191.488 2161.61 191.6 2161.29 191.6H2156.15C2155.83 191.6 2155.58 191.52 2155.38 191.36C2155.22 191.168 2155.06 190.912 2154.9 190.592C2154.46 189.472 2153.88 188.672 2153.18 188.192C2152.47 187.712 2151.59 187.472 2150.54 187.472C2149.1 187.472 2147.96 187.936 2147.13 188.864C2146.3 189.792 2145.85 191.232 2145.78 193.184C2145.75 194.432 2145.75 195.568 2145.78 196.592C2145.88 198.576 2146.33 200.016 2147.13 200.912C2147.96 201.808 2149.1 202.256 2150.54 202.256C2151.66 202.256 2152.55 202.016 2153.22 201.536C2153.9 201.056 2154.46 200.256 2154.9 199.136C2155.03 198.816 2155.19 198.576 2155.38 198.416C2155.58 198.224 2155.83 198.128 2156.15 198.128H2161.29C2161.61 198.128 2161.88 198.256 2162.1 198.512C2162.36 198.736 2162.47 199.008 2162.44 199.328C2162.41 199.872 2162.25 200.512 2161.96 201.248C2161.7 201.984 2161.27 202.736 2160.66 203.504C2160.09 204.272 2159.34 204.992 2158.41 205.664C2157.48 206.304 2156.34 206.832 2155 207.248C2153.69 207.632 2152.15 207.824 2150.39 207.824Z" fill="#1C1C1C"/>
<path d="M2320.61 207.344C2320.26 207.344 2319.97 207.232 2319.75 207.008C2319.52 206.784 2319.41 206.496 2319.41 206.144V174.944C2319.41 174.592 2319.52 174.304 2319.75 174.08C2319.97 173.856 2320.26 173.744 2320.61 173.744H2325.84C2326.19 173.744 2326.48 173.856 2326.71 174.08C2326.93 174.304 2327.04 174.592 2327.04 174.944V186.944H2330.59L2338.03 174.656C2338.19 174.4 2338.42 174.192 2338.71 174.032C2338.99 173.84 2339.36 173.744 2339.81 173.744H2345.62C2345.94 173.744 2346.18 173.856 2346.34 174.08C2346.53 174.272 2346.63 174.496 2346.63 174.752C2346.63 174.944 2346.56 175.136 2346.43 175.328L2337.46 189.92L2347.35 205.712C2347.41 205.84 2347.44 206.016 2347.44 206.24C2347.44 206.56 2347.33 206.832 2347.11 207.056C2346.91 207.248 2346.67 207.344 2346.39 207.344H2340.39C2339.91 207.344 2339.55 207.248 2339.33 207.056C2339.11 206.832 2338.93 206.64 2338.8 206.48L2330.88 193.76H2327.04V206.144C2327.04 206.496 2326.93 206.784 2326.71 207.008C2326.48 207.232 2326.19 207.344 2325.84 207.344H2320.61ZM2361.76 207.824C2359.1 207.824 2356.88 207.392 2355.09 206.528C2353.29 205.632 2351.92 204.368 2350.96 202.736C2350.03 201.104 2349.52 199.2 2349.42 197.024C2349.39 196.384 2349.37 195.664 2349.37 194.864C2349.37 194.032 2349.39 193.312 2349.42 192.704C2349.52 190.496 2350.06 188.592 2351.05 186.992C2352.05 185.36 2353.44 184.112 2355.23 183.248C2357.02 182.352 2359.2 181.904 2361.76 181.904C2364.29 181.904 2366.45 182.352 2368.24 183.248C2370.03 184.112 2371.42 185.36 2372.41 186.992C2373.41 188.592 2373.95 190.496 2374.05 192.704C2374.11 193.312 2374.14 194.032 2374.14 194.864C2374.14 195.664 2374.11 196.384 2374.05 197.024C2373.95 199.2 2373.42 201.104 2372.46 202.736C2371.53 204.368 2370.17 205.632 2368.38 206.528C2366.59 207.392 2364.38 207.824 2361.76 207.824ZM2361.76 202.544C2363.33 202.544 2364.51 202.064 2365.31 201.104C2366.11 200.112 2366.54 198.672 2366.61 196.784C2366.64 196.304 2366.65 195.664 2366.65 194.864C2366.65 194.064 2366.64 193.424 2366.61 192.944C2366.54 191.088 2366.11 189.664 2365.31 188.672C2364.51 187.68 2363.33 187.184 2361.76 187.184C2360.19 187.184 2358.99 187.68 2358.16 188.672C2357.36 189.664 2356.93 191.088 2356.86 192.944C2356.83 193.424 2356.81 194.064 2356.81 194.864C2356.81 195.664 2356.83 196.304 2356.86 196.784C2356.93 198.672 2357.36 200.112 2358.16 201.104C2358.99 202.064 2360.19 202.544 2361.76 202.544ZM2380.31 207.344C2379.99 207.344 2379.72 207.232 2379.5 207.008C2379.27 206.784 2379.16 206.496 2379.16 206.144V183.584C2379.16 183.232 2379.27 182.944 2379.5 182.72C2379.72 182.496 2379.99 182.384 2380.31 182.384H2385.11C2385.47 182.384 2385.75 182.496 2385.98 182.72C2386.2 182.944 2386.31 183.232 2386.31 183.584V191.84H2396.06V183.584C2396.06 183.232 2396.17 182.944 2396.39 182.72C2396.62 182.496 2396.91 182.384 2397.26 182.384H2402.06C2402.38 182.384 2402.65 182.496 2402.87 182.72C2403.1 182.944 2403.21 183.232 2403.21 183.584V206.144C2403.21 206.496 2403.1 206.784 2402.87 207.008C2402.65 207.232 2402.38 207.344 2402.06 207.344H2397.26C2396.91 207.344 2396.62 207.232 2396.39 207.008C2396.17 206.784 2396.06 206.496 2396.06 206.144V197.504H2386.31V206.144C2386.31 206.496 2386.2 206.784 2385.98 207.008C2385.75 207.232 2385.47 207.344 2385.11 207.344H2380.31ZM2416.98 207.344C2416.63 207.344 2416.34 207.232 2416.12 207.008C2415.89 206.784 2415.78 206.496 2415.78 206.144V188.048H2408.25C2407.89 188.048 2407.61 187.936 2407.38 187.712C2407.16 187.488 2407.05 187.2 2407.05 186.848V183.584C2407.05 183.232 2407.16 182.944 2407.38 182.72C2407.61 182.496 2407.89 182.384 2408.25 182.384H2430.37C2430.73 182.384 2431.01 182.496 2431.24 182.72C2431.46 182.944 2431.57 183.232 2431.57 183.584V186.848C2431.57 187.2 2431.46 187.488 2431.24 187.712C2431.01 187.936 2430.73 188.048 2430.37 188.048H2422.84V206.144C2422.84 206.496 2422.73 206.784 2422.5 207.008C2422.28 207.232 2422.01 207.344 2421.69 207.344H2416.98ZM2442.62 207.824C2440.92 207.824 2439.4 207.504 2438.06 206.864C2436.71 206.192 2435.64 205.296 2434.84 204.176C2434.04 203.056 2433.64 201.808 2433.64 200.432C2433.64 198.16 2434.55 196.368 2436.38 195.056C2438.23 193.744 2440.66 192.848 2443.67 192.368L2449.96 191.456V190.592C2449.96 189.344 2449.67 188.384 2449.1 187.712C2448.52 187.04 2447.51 186.704 2446.07 186.704C2445.02 186.704 2444.17 186.912 2443.53 187.328C2442.89 187.744 2442.39 188.288 2442.04 188.96C2441.78 189.376 2441.42 189.584 2440.94 189.584H2436.38C2436.02 189.584 2435.75 189.488 2435.56 189.296C2435.37 189.072 2435.29 188.816 2435.32 188.528C2435.32 187.984 2435.53 187.344 2435.94 186.608C2436.36 185.872 2437 185.152 2437.86 184.448C2438.73 183.712 2439.83 183.104 2441.18 182.624C2442.52 182.144 2444.17 181.904 2446.12 181.904C2448.14 181.904 2449.86 182.144 2451.3 182.624C2452.74 183.104 2453.9 183.776 2454.76 184.64C2455.62 185.504 2456.26 186.512 2456.68 187.664C2457.1 188.784 2457.3 190 2457.3 191.312V206.144C2457.3 206.496 2457.19 206.784 2456.97 207.008C2456.74 207.232 2456.46 207.344 2456.1 207.344H2451.4C2451.08 207.344 2450.81 207.232 2450.58 207.008C2450.36 206.784 2450.25 206.496 2450.25 206.144V204.368C2449.83 204.976 2449.27 205.552 2448.57 206.096C2447.86 206.608 2447.02 207.024 2446.02 207.344C2445.06 207.664 2443.93 207.824 2442.62 207.824ZM2444.54 202.832C2445.59 202.832 2446.54 202.608 2447.37 202.16C2448.2 201.712 2448.86 201.024 2449.34 200.096C2449.82 199.168 2450.06 198 2450.06 196.592V195.776L2445.59 196.496C2443.86 196.784 2442.6 197.216 2441.8 197.792C2441 198.368 2440.6 199.072 2440.6 199.904C2440.6 200.512 2440.78 201.04 2441.13 201.488C2441.51 201.936 2442.01 202.272 2442.62 202.496C2443.22 202.72 2443.86 202.832 2444.54 202.832ZM2464.27 207.344C2463.95 207.344 2463.68 207.232 2463.45 207.008C2463.23 206.784 2463.12 206.496 2463.12 206.144V183.584C2463.12 183.232 2463.23 182.944 2463.45 182.72C2463.68 182.496 2463.95 182.384 2464.27 182.384H2468.97C2469.32 182.384 2469.61 182.496 2469.84 182.72C2470.06 182.944 2470.17 183.232 2470.17 183.584V191.84H2473.2L2478.76 183.152C2478.86 182.96 2479 182.784 2479.2 182.624C2479.42 182.464 2479.71 182.384 2480.06 182.384H2485.29C2485.58 182.384 2485.82 182.48 2486.01 182.672C2486.24 182.832 2486.35 183.04 2486.35 183.296C2486.35 183.392 2486.32 183.504 2486.25 183.632C2486.22 183.76 2486.17 183.872 2486.11 183.968L2479.34 194.432L2487.16 205.808C2487.29 206 2487.36 206.208 2487.36 206.432C2487.36 206.688 2487.26 206.912 2487.07 207.104C2486.88 207.264 2486.64 207.344 2486.35 207.344H2480.54C2480.22 207.344 2479.95 207.28 2479.72 207.152C2479.53 206.992 2479.36 206.8 2479.2 206.576L2473.15 197.552H2470.17V206.144C2470.17 206.496 2470.06 206.784 2469.84 207.008C2469.61 207.232 2469.32 207.344 2468.97 207.344H2464.27ZM2498.92 207.344C2498.57 207.344 2498.28 207.232 2498.05 207.008C2497.83 206.784 2497.72 206.496 2497.72 206.144V188.048H2490.18C2489.83 188.048 2489.54 187.936 2489.32 187.712C2489.09 187.488 2488.98 187.2 2488.98 186.848V183.584C2488.98 183.232 2489.09 182.944 2489.32 182.72C2489.54 182.496 2489.83 182.384 2490.18 182.384H2512.31C2512.66 182.384 2512.95 182.496 2513.17 182.72C2513.4 182.944 2513.51 183.232 2513.51 183.584V186.848C2513.51 187.2 2513.4 187.488 2513.17 187.712C2512.95 187.936 2512.66 188.048 2512.31 188.048H2504.77V206.144C2504.77 206.496 2504.66 206.784 2504.44 207.008C2504.21 207.232 2503.94 207.344 2503.62 207.344H2498.92ZM2518.36 207.344C2518.04 207.344 2517.77 207.232 2517.55 207.008C2517.32 206.784 2517.21 206.496 2517.21 206.144V183.584C2517.21 183.232 2517.32 182.944 2517.55 182.72C2517.77 182.496 2518.04 182.384 2518.36 182.384H2523.21C2523.53 182.384 2523.8 182.496 2524.03 182.72C2524.25 182.944 2524.36 183.232 2524.36 183.584V190.16H2528.92C2532.15 190.16 2534.62 190.944 2536.31 192.512C2538.01 194.048 2538.86 196.16 2538.86 198.848C2538.86 201.664 2537.96 203.792 2536.17 205.232C2534.38 206.64 2531.85 207.344 2528.59 207.344H2518.36ZM2524.27 202.304H2528.3C2529.71 202.304 2530.73 202.048 2531.37 201.536C2532.04 200.992 2532.38 200.096 2532.38 198.848C2532.38 197.632 2532.06 196.72 2531.42 196.112C2530.78 195.504 2529.74 195.2 2528.3 195.2H2524.27V202.304ZM2543.13 207.344C2542.78 207.344 2542.49 207.232 2542.27 207.008C2542.04 206.784 2541.93 206.496 2541.93 206.144V183.584C2541.93 183.232 2542.04 182.944 2542.27 182.72C2542.49 182.496 2542.78 182.384 2543.13 182.384H2547.93C2548.25 182.384 2548.52 182.496 2548.75 182.72C2548.97 182.944 2549.08 183.232 2549.08 183.584V206.144C2549.08 206.496 2548.97 206.784 2548.75 207.008C2548.52 207.232 2548.25 207.344 2547.93 207.344H2543.13Z" fill="#1C1C1C"/>
<g clip-path="url(#clip0_728_903)">
<path d="M2730.03 220.426C2731.64 220.426 2732.94 219.124 2732.94 217.518C2732.94 215.911 2731.64 214.609 2730.03 214.609C2728.43 214.609 2727.12 215.911 2727.12 217.518C2727.12 219.124 2728.43 220.426 2730.03 220.426Z" stroke="#1C1C1C" stroke-width="2.9082" stroke-linecap="round" stroke-linejoin="round"/>
<path d="M2762.02 220.426C2763.63 220.426 2764.93 219.124 2764.93 217.518C2764.93 215.911 2763.63 214.609 2762.02 214.609C2760.42 214.609 2759.11 215.911 2759.11 217.518C2759.11 219.124 2760.42 220.426 2762.02 220.426Z" stroke="#1C1C1C" stroke-width="2.9082" stroke-linecap="round" stroke-linejoin="round"/>
<path d="M2706.77 159.354H2718.4L2726.19 198.294C2726.46 199.633 2727.19 200.836 2728.25 201.692C2729.31 202.548 2730.64 203.003 2732.01 202.977H2760.28C2761.64 203.003 2762.97 202.548 2764.04 201.692C2765.1 200.836 2765.83 199.633 2766.09 198.294L2770.75 173.895H2721.31" stroke="#1C1C1C" stroke-width="2.9082" stroke-linecap="round" stroke-linejoin="round"/>
</g>
<defs>
<clipPath id="clip0_728_903">
<rect width="34.8984" height="34.8984" fill="white" transform="matrix(2 0 0 2 2703.86 156.445)"/>
</clipPath>
</defs>
</svg>
