<svg width="589" height="197" viewBox="0 0 589 197" fill="none" xmlns="http://www.w3.org/2000/svg">
<path fill-rule="evenodd" clip-rule="evenodd" d="M267.86 26.029C267.86 42.8862 268.117 52.0581 268.59 52.0581C269.063 52.0581 269.32 42.8862 269.32 26.029C269.32 9.17189 269.063 0 268.59 0C268.117 0 267.86 9.17189 267.86 26.029ZM258.007 13.4808C246.517 14.9437 233.349 20.0134 222.545 27.1349C211.904 34.1494 199.7 48.1441 193.861 60.0282C191.589 64.6502 191.583 64.7007 193.302 64.7007C194.239 64.7007 195.611 62.8824 197.8 58.7386C210.298 35.0782 233.848 19.2734 261.474 16.0064C264.963 15.5944 265.67 15.2686 265.67 14.0765C265.67 12.4969 265.713 12.4999 258.007 13.4808ZM271.771 13.7627C271.528 14.4089 271.452 15.044 271.601 15.1742C271.752 15.3036 275.536 15.9387 280.011 16.5857C305.865 20.3205 327.612 35.6256 340.543 59.1856C342.316 62.4162 343.605 63.9571 344.535 63.9571C346.068 63.9571 345.959 63.4937 343.172 58.1481C331.414 35.5943 308.279 18.3587 284.25 14.252C274.618 12.6055 272.242 12.5125 271.771 13.7627ZM256.664 26.0647C247.019 27.7142 235.129 32.8308 226.7 38.9595C221.071 43.052 212.436 52.2752 208.635 58.2537C205.778 62.7478 205.753 62.8467 207.389 63.1003C208.307 63.2424 209.166 63.0304 209.297 62.6288C210.132 60.0765 218.831 49.3994 223.048 45.7516C234.506 35.8383 245.401 30.7284 259.464 28.6691C263.957 28.011 265.354 27.5239 265.538 26.5496C265.732 25.5263 265.246 25.3017 262.987 25.3731C261.452 25.4207 258.607 25.7323 256.664 26.0647ZM271.626 26.4715C271.845 27.6339 272.808 27.9901 276.993 28.4579C296.684 30.6563 315.404 42.3693 326.894 59.6809C328.372 61.9082 329.774 63.2134 330.689 63.2134C331.959 63.2134 332.033 63.0051 331.287 61.5401C329.182 57.4089 323.779 50.5097 318.847 45.6557C307.135 34.1278 291.924 26.8582 276.726 25.5248C271.714 25.0853 271.376 25.1478 271.626 26.4715ZM258.007 38.2828C243.802 40.9645 229.125 50.1349 221.34 61.1913C219.28 64.1162 219.134 64.61 220.204 65.0287C221.085 65.3731 222.265 64.5 224.376 61.9439C233.688 50.6689 245.238 43.7325 258.86 41.233C264.607 40.1784 265.67 39.7649 265.67 38.584C265.67 36.9627 265.116 36.9411 258.007 38.2828ZM271.509 38.5862C271.509 39.7292 272.257 40.0832 275.563 40.5041C290.589 42.4169 305.541 50.9537 313.841 62.3589C315.648 64.8413 317.701 66.8857 318.403 66.9021C320.315 66.9467 319.977 65.7843 316.836 61.5081C308.114 49.6314 294.133 40.9087 279.538 38.2381C272.194 36.8943 271.509 36.9241 271.509 38.5862ZM50.9022 40.6521C49.6942 40.9928 49.63 43.4856 49.8074 83.1628L49.9957 125.311H60.2137H70.4318L70.6267 106.66L70.8216 88.0094L72.8849 85.9947C75.5299 83.4126 79.6099 82.6712 82.0834 84.3229L83.9102 85.5426L84.1051 105.427L84.2992 125.311L94.6998 125.517L105.1 125.724V103.156C105.1 76.7039 104.796 74.8417 99.6913 70.0464C96.2106 66.7779 93.235 65.7955 87.2187 65.9315C81.8673 66.0513 77.8473 67.3877 74.1249 70.2829L70.8252 72.8493L70.6282 56.6905L70.4318 40.5309L61.3085 40.4105C56.2907 40.3435 51.6079 40.4528 50.9022 40.6521ZM357.968 41.0887C357.776 41.6004 357.704 60.7592 357.808 83.6648L357.998 125.311H368.216H378.434L378.629 106.66L378.824 88.0094L380.919 85.9635C383.749 83.2015 388.026 82.6095 390.488 84.639L392.302 86.1338L392.529 105.908L392.755 125.683H402.929H413.103V103.027C413.103 77.5219 412.776 75.3712 408.153 70.4762C404.982 67.1177 401.76 65.9219 395.951 65.9479C390.027 65.9747 386.067 67.2181 382.113 70.294L378.799 72.8716V56.9664C378.799 43.1495 378.647 41.0024 377.645 40.6105C377.01 40.3621 372.401 40.1591 367.404 40.1591C360.807 40.1591 358.221 40.4142 357.968 41.0887ZM258.737 50.5871C249.694 52.4366 238.654 59.1246 232.787 66.3071C230.802 68.7382 229.177 71.0251 229.177 71.3887C229.177 73.5112 231.22 72.2202 236.613 66.6879C243.942 59.17 251.467 54.9436 260.18 53.4517C264.646 52.6872 265.67 52.2611 265.67 51.1694C265.67 49.6842 263.884 49.534 258.737 50.5871ZM271.509 50.8697C271.509 52.2663 271.583 52.2953 278.078 53.4748C288.233 55.3184 299.288 62.7106 306.233 72.3042C308.783 75.8248 309.464 76.3774 310.178 75.5013C310.866 74.6565 310.556 73.7172 308.653 70.8726C301.278 59.8519 288.206 51.5598 275.986 50.1505C272.098 49.7028 271.509 49.7973 271.509 50.8697ZM551.777 58.7141V66.8574L547.58 67.0806L543.383 67.3037L543.175 74.9264C542.942 83.4848 542.473 82.8735 549.04 82.5641L551.777 82.4354V94.8885C551.777 113.81 553.16 119.226 559.021 123.25C562.565 125.684 566.592 126.589 573.779 126.567C580.128 126.547 589 124.646 589 123.306C589 122.923 588.124 119.281 587.053 115.212C585.254 108.375 584.99 107.856 583.586 108.372C582.75 108.679 580.436 108.935 578.444 108.94C573.323 108.954 572.967 107.977 572.954 93.8905L572.943 82.5492H579.147H585.351V74.7405V66.9318H579.147H572.943V58.7513V50.5707H562.36H551.777V58.7141ZM261.839 56.5462C251.917 58.2478 239.86 66.0952 235.026 73.9983C233.691 76.1811 233.692 76.3246 235.04 80.3948C235.799 82.6846 236.679 86.6908 236.995 89.2967L237.571 94.0355L249.248 79.6132C255.671 71.681 262.484 63.3234 264.387 61.0418C266.29 58.7594 267.85 56.6414 267.853 56.3343C267.861 55.6843 266.607 55.7282 261.839 56.5462ZM294.135 86.107V107.835H301.756C305.947 107.835 309.574 107.508 309.816 107.109C310.058 106.709 310.453 104.696 310.692 102.635C311.026 99.7671 310.851 98.5757 309.949 97.5606C307.816 95.1584 306.46 89.8612 306.661 84.7193C306.833 80.3174 306.62 79.4562 304.543 76.1669C303.272 74.1552 300.41 70.68 298.184 68.4445L294.135 64.3795V86.107ZM19.8362 66.3383C8.25476 67.9358 1.45973 75.0878 1.45973 85.6802C1.45973 90.1475 3.00777 94.0593 6.0586 97.3025C9.02112 100.451 12.5588 102.345 20.8011 105.193C27.7574 107.597 28.8479 108.849 25.5452 110.638C22.7812 112.136 15.5381 111.357 10.5363 109.024C8.21315 107.94 6.08268 107.313 5.80168 107.63C5.05868 108.467 0 120.157 0 121.037C0 121.904 5.49295 124.409 10.1852 125.683C15.0629 127.008 27.3487 126.873 32.1607 125.442C38.1361 123.665 42.1036 120.421 44.3108 115.509C45.9062 111.958 46.1157 110.638 45.8223 105.984C45.4107 99.4488 43.5553 95.9497 38.9076 92.9467C35.3947 90.6762 29.7171 88.2466 25.1577 87.0627C23.5396 86.6417 21.5689 85.7887 20.7785 85.167C19.3604 84.0507 19.364 84.0158 21.0646 82.5485C23.3286 80.5948 27.9209 80.6089 33.6817 82.5864C36.1246 83.4245 38.2003 84.0106 38.2945 83.8879C38.5098 83.6082 42.1394 75.566 43.5276 72.2945C44.5633 69.8523 44.5618 69.8478 41.9993 68.7568C36.426 66.3837 26.9794 65.353 19.8362 66.3383ZM206.059 66.2134C202.336 66.9735 199.338 68.4995 197.496 70.5744C195.528 72.7891 194.874 72.5243 194.874 69.5139V66.8902L184.838 67.0969L174.802 67.3037L174.614 109.136L174.425 150.968H185.015H195.603V137.502C195.603 124.971 195.692 124.074 196.881 124.568C202.892 127.073 213.73 126.985 218.594 124.394C226.13 120.378 231.214 113.045 232.91 103.744C233.895 98.3422 233.331 87.2612 231.815 82.2488C229.647 75.0797 224.119 68.9145 218.229 67.0969C214.292 65.8817 209.417 65.5277 206.059 66.2134ZM325.884 66.844C316.971 69.235 310.915 76.6102 310.926 85.0599C310.939 95.0685 316.983 101.182 331.138 105.506C334.029 106.389 336.626 107.495 336.911 107.965C337.201 108.442 336.698 109.422 335.772 110.186C332.572 112.827 322.878 111.392 317.147 107.429C315.636 106.385 314.322 105.63 314.226 105.753C314.13 105.875 313.389 108.151 312.579 110.809C311.769 113.468 310.571 116.889 309.918 118.412L308.729 121.181L311.003 122.38C323.653 129.045 343.835 128.024 350.837 120.365C357.548 113.023 356.862 99.1461 349.517 93.7254C346.447 91.4601 339.269 88.2444 334.62 87.0523C333.002 86.6373 331.031 85.7887 330.241 85.167C328.823 84.0507 328.826 84.0158 330.527 82.5485C332.791 80.5948 337.383 80.6089 343.144 82.5864C345.587 83.4245 347.668 84.0106 347.767 83.8879C348.709 82.7322 353.882 70.3401 353.609 69.8917C353.413 69.5674 351.693 68.7256 349.786 68.0221C345.955 66.6068 329.747 65.8081 325.884 66.844ZM130.124 68.7159C119.354 72.2811 111.879 81.5289 110.378 93.1468C109.009 103.737 112.248 114.43 118.645 120.437C130.285 131.37 150.737 131.108 161.73 119.884C166.98 114.524 169.461 108.342 169.893 99.5447C170.581 85.5582 165.981 76.6555 155.159 71.0243C149.614 68.1395 149.206 68.0473 141.323 67.8748C135.985 67.7588 132.145 68.0466 130.124 68.7159ZM439.013 68.6795C427.802 72.4507 420.561 81.3087 418.896 93.2896C415.836 115.301 432.751 131.799 454.434 127.952C469.382 125.299 478.81 113.489 478.782 97.4527C478.759 84.8413 473.167 75.4017 462.734 70.3632C458.451 68.2957 457.208 68.0548 449.961 67.8852C444.793 67.7647 440.892 68.0473 439.013 68.6795ZM503.241 68.8074C495.05 71.9108 490.041 76.1201 486.76 82.6615C481.99 92.1681 481.989 104.164 486.758 113.669C495.08 130.255 521.365 133.687 534.848 119.949C549.481 105.04 544.855 77.4037 526.473 69.9118C521.015 67.6874 507.851 67.0612 503.241 68.8074ZM144.326 84.1868C148.733 87.9105 149.361 106.944 145.216 111.167C144.169 112.234 142.78 112.669 140.416 112.669C137.701 112.669 136.774 112.297 135.384 110.649C133.045 107.879 131.827 101.289 132.355 94.272C132.832 87.9283 134.257 84.3244 136.705 83.2669C138.7 82.4057 142.804 82.901 144.326 84.1868ZM207.196 83.7622C208.131 84.4293 209.353 86.0914 209.913 87.4568C211.125 90.4122 211.281 101.59 210.152 104.626C208.175 109.944 203.482 111.972 198.476 109.672L195.603 108.352L195.616 97.124L195.629 85.8958L197.978 84.2225C200.759 82.2413 204.784 82.0398 207.196 83.7622ZM452.296 84.0054C455.347 85.901 456.391 89.7355 456.357 98.9193C456.315 109.922 453.836 113.877 447.713 112.706C442.68 111.744 440.458 106.03 440.975 95.3689C441.324 88.1596 442.482 84.9209 445.217 83.5116C447.768 82.1967 449.589 82.3239 452.296 84.0054ZM516.276 83.5733C519.853 85.0956 520.758 88.0436 520.758 98.1667C520.758 103.631 520.406 107.568 519.783 109.072C517.753 113.971 510.48 114.252 507.787 109.535C505.849 106.141 505.01 98.8999 505.81 92.4708C506.572 86.3465 507.529 84.3438 510.166 83.3547C512.751 82.3841 513.551 82.4131 516.276 83.5733ZM259.591 96.3179L250.956 107.463L259.506 107.673C264.208 107.788 268.185 107.752 268.342 107.591C268.501 107.429 268.539 102.319 268.428 96.2353L268.225 85.1722L259.591 96.3179ZM227.747 121.556C227.039 122.426 227.319 123.303 229.193 126.079C236.575 137.011 249.424 145.195 261.839 146.872C265.403 147.353 265.67 147.28 265.67 145.833C265.67 144.705 265.209 144.275 263.999 144.275C260.888 144.275 253.652 142.034 248.513 139.478C242.503 136.49 235.664 130.434 231.735 124.62C230.195 122.341 228.865 120.477 228.78 120.477C228.695 120.477 228.231 120.963 227.747 121.556ZM301.069 130.5C296.267 135.554 294.128 137.183 289.026 139.677C285.418 141.44 280.533 143.131 277.35 143.719C273.291 144.469 271.817 145.055 271.641 145.989C271.344 147.557 273.049 147.602 279.538 146.197C289.317 144.08 299.451 137.9 305.452 130.394C308.594 126.463 309.177 124.862 307.592 124.507C307.216 124.423 304.28 127.12 301.069 130.5ZM217.696 128.518C217.03 128.949 217.296 129.858 218.728 132.039C228.685 147.202 244.689 157.289 262.204 159.439C265.192 159.806 265.67 159.682 265.67 158.547C265.67 157.477 264.44 156.992 259.142 155.971C250.909 154.385 244.353 151.721 237.688 147.254C232.142 143.537 224.928 136.309 221.541 131.075C219.39 127.751 219.139 127.585 217.696 128.518ZM241.95 130.536C248.03 135.878 259.175 140.557 265.824 140.557H268.59V134.235V127.914L253.81 127.942L239.03 127.97L241.95 130.536ZM294.135 129.799C294.135 131.397 294.339 131.574 295.472 130.956C296.208 130.554 297.233 129.706 297.752 129.071C298.569 128.067 298.392 127.914 296.414 127.914C294.461 127.914 294.135 128.184 294.135 129.799ZM315.489 132.562C312.393 136.915 306.261 143.146 302.434 145.829C300.68 147.059 299.244 148.244 299.244 148.462C299.244 149.628 304.676 147.855 307.062 145.911C311.824 142.03 320.41 131.821 320.41 130.038C320.41 128.27 317.471 129.777 315.489 132.562ZM204.362 130.747C204.362 131.734 209.363 139.898 212.543 144.102C223.535 158.632 242.917 169.7 260.454 171.46C265.45 171.962 265.67 171.917 265.67 170.4C265.67 169.069 265.234 168.815 262.933 168.801C258.361 168.774 247.768 166.058 241.585 163.328C229.255 157.883 218.235 148.279 210.931 136.61C208.436 132.625 206.433 130.188 205.639 130.171C204.937 130.157 204.362 130.416 204.362 130.747ZM329.168 133.492C327.926 135.332 326.648 136.838 326.328 136.838C324.937 136.838 319.566 143.378 318.791 146.013C318.32 147.614 317.026 149.593 315.891 150.448C314.764 151.297 313.841 152.411 313.841 152.924C313.841 154.37 315.251 154.911 316.428 153.916C317.329 153.154 317.491 153.478 317.491 156.034C317.491 157.694 317.804 159.891 318.186 160.916C318.693 162.275 318.574 163.408 317.745 165.101C316.401 167.846 316.771 168.518 318.966 167.321C320.35 166.566 320.876 166.741 322.86 168.614C327.391 172.892 332.373 174.766 339.212 174.766C343.154 174.766 349.225 173.154 351.409 171.527C352.795 170.494 352.783 170.371 350.777 165.293C347.88 157.963 348.104 158.187 345.013 159.504C338.968 162.078 335.725 160.547 335.189 154.867C334.875 151.531 335.056 150.852 336.711 149.165C338.839 146.996 339.992 146.873 344.121 148.371C345.721 148.952 347.267 149.186 347.556 148.891C347.844 148.598 349.068 145.919 350.273 142.94L352.465 137.523L350.123 136.068C347.009 134.133 344.354 133.69 337.666 133.987C332.463 134.218 331.054 133.858 332.818 132.748C333.929 132.048 333.688 130.145 332.488 130.145C331.905 130.145 330.411 131.651 329.168 133.492ZM362.634 134.864C352.591 138.649 347.687 151.138 351.821 162.398C355.84 173.342 369.169 177.906 380.545 172.236C393.769 165.643 394.592 144.533 381.939 136.467C378.815 134.475 377.735 134.215 371.868 134.047C367.714 133.929 364.317 134.229 362.634 134.864ZM412.145 134.344C411.885 134.609 407.397 134.758 402.169 134.676L392.667 134.528L392.624 139.588C392.6 142.371 392.594 151.173 392.61 159.149L392.64 173.651L401.029 173.861L409.418 174.07L409.618 161.651C409.763 152.661 410.065 149.148 410.712 148.928C411.39 148.699 411.656 151.665 411.807 161.138L412.008 173.651H420.401H428.795L429.16 161.441C429.42 152.742 429.782 149.143 430.419 148.928C431.096 148.699 431.363 151.665 431.514 161.138L431.714 173.651H440.108H448.501L448.701 160.716C448.961 143.919 448.336 140.32 444.523 136.652C441.778 134.012 441.369 133.864 436.823 133.864C433.424 133.864 431.165 134.308 429.091 135.387L426.161 136.91L423.743 135.387C422.013 134.297 420.084 133.864 416.97 133.864C414.576 133.864 412.404 134.08 412.145 134.344ZM347.921 137.45L349.521 138.332L348.002 142.058L346.482 145.783L341.881 145.302C337.414 144.836 337.209 144.892 334.964 147.179C332.759 149.426 332.665 149.76 332.95 154.319C333.351 160.736 335.182 162.867 340.292 162.867C342.255 162.867 344.457 162.542 345.185 162.146C346.32 161.527 346.728 161.963 348.057 165.22C348.908 167.307 349.605 169.262 349.605 169.563C349.605 170.648 342.574 172.143 337.927 172.047C326.999 171.821 320.586 165.92 319.848 155.411C319.231 146.628 323.614 139.77 331.52 137.144C335.185 135.927 345.509 136.12 347.921 137.45ZM377.523 137.156C384.69 139.762 388.399 145.52 388.373 153.999C388.348 161.985 384.804 167.961 378.424 170.771C374.492 172.503 366.202 172.475 362.566 170.718C356.243 167.66 352.974 162.083 352.952 154.315C352.92 143.128 359.759 136.16 370.771 136.16C372.979 136.16 376.017 136.608 377.523 137.156ZM421.861 137.21C423.025 137.824 424.305 138.911 424.705 139.627C425.233 140.572 425.715 140.725 426.464 140.185C427.032 139.776 428.393 138.797 429.49 138.01C432.237 136.037 438.479 135.583 441.436 137.141C445.528 139.297 445.947 141.129 445.947 156.881V171.048H440.108H434.269L434.259 160.45C434.246 147.197 434.084 146.506 430.989 146.506C427.1 146.506 426.742 147.603 426.906 158.999C426.986 164.62 426.867 169.715 426.64 170.32C426.313 171.193 425.027 171.37 420.396 171.177L414.563 170.935V159.897C414.563 153.826 414.363 148.33 414.119 147.683C413.838 146.935 412.789 146.506 411.242 146.506C407.108 146.506 406.534 148.203 406.534 160.43V171.048H400.695H394.856V153.943V136.838H400.695C406.527 136.838 406.534 136.841 406.534 138.813C406.534 140.631 406.635 140.697 407.811 139.65C411.752 136.139 417.827 135.085 421.861 137.21ZM198.523 142.905C198.523 146.245 203.235 152.75 211.374 160.646C224.402 173.284 241.833 181.728 258.737 183.59C264.97 184.277 265.67 184.176 265.67 182.585C265.67 181.9 264.297 181.402 261.474 181.062C246.855 179.303 235.189 174.957 222.973 166.719C216.463 162.329 207.165 152.921 202.304 145.804L198.523 140.269V142.905ZM267.86 170.676C267.86 187.285 268.118 196.333 268.59 196.333C269.062 196.333 269.32 187.285 269.32 170.676C269.32 154.067 269.062 145.019 268.59 145.019C268.118 145.019 267.86 154.067 267.86 170.676ZM367.101 146.159C365.909 147.623 365.342 153.639 365.984 158.006C366.567 161.966 368.886 164.068 371.839 163.312C374.467 162.641 375.438 160.209 375.457 154.251C375.479 147.585 374.095 145.019 370.478 145.019C369.131 145.019 367.612 145.532 367.101 146.159ZM372.62 148.946C372.85 149.879 372.938 152.808 372.817 155.454C372.607 160.005 372.498 160.264 370.804 160.264C369.515 160.264 368.869 159.743 368.504 158.405C367.737 155.597 367.765 151.296 368.563 149.158C369.475 146.713 372.038 146.58 372.62 148.946ZM286.197 154.067C284.039 154.844 279.852 155.863 276.891 156.332C272.479 157.031 271.509 157.429 271.509 158.538C271.509 160.11 271.77 160.133 278.078 159.118C284.948 158.013 289.206 156.385 290.702 154.291C292.265 152.104 291.723 152.077 286.197 154.067ZM298.149 154.067C293.187 156.864 291.283 161.149 292.705 166.323C293.999 171.031 297.441 173.6 302.437 173.589C307.033 173.579 309.726 171.92 311.77 167.837C314.215 162.953 312.612 157.656 307.781 154.654C305.215 153.06 300.451 152.77 298.149 154.067ZM285.723 167.026C285.31 167.2 282.027 167.776 278.426 168.306C273.072 169.094 271.832 169.519 271.619 170.644C271.379 171.916 271.757 171.982 276.642 171.519C284.291 170.795 288.414 169.614 288.149 168.223C287.915 166.999 286.934 166.514 285.723 167.026ZM290.486 178.216C288.679 178.806 283.753 179.813 279.538 180.453C275.323 181.094 271.752 181.735 271.601 181.878C271.452 182.022 271.512 182.626 271.736 183.221C272.056 184.071 273.131 184.216 276.753 183.902C281.277 183.509 297.56 179.704 298.406 178.843C299.044 178.193 296.911 177.011 295.23 177.082C294.427 177.116 292.292 177.627 290.486 178.216Z" fill="#FCFCFC"/>
</svg>
