<svg width="295" height="99" viewBox="0 0 295 99" fill="none" xmlns="http://www.w3.org/2000/svg">
<path fill-rule="evenodd" clip-rule="evenodd" d="M133.913 13.891C133.913 22.3159 134.041 26.8999 134.278 26.8999C134.514 26.8999 134.643 22.3159 134.643 13.891C134.643 5.46596 134.514 0.881958 134.278 0.881958C134.041 0.881958 133.913 5.46596 133.913 13.891ZM128.989 7.61951C123.246 8.35061 116.665 10.8844 111.265 14.4436C105.947 17.9494 99.8476 24.9438 96.929 30.8833C95.7939 33.1933 95.7909 33.2186 96.65 33.2186C97.1184 33.2186 97.8038 32.3098 98.8977 30.2388C105.144 18.4136 116.914 10.5146 130.721 8.88175C132.465 8.67584 132.819 8.51304 132.819 7.91723C132.819 7.12777 132.84 7.12925 128.989 7.61951ZM135.868 7.76038C135.746 8.08337 135.708 8.40078 135.783 8.46583C135.858 8.5305 137.749 8.84792 139.986 9.17129C152.907 11.0379 163.777 18.6872 170.239 30.4622C171.125 32.0768 171.77 32.8469 172.234 32.8469C173 32.8469 172.946 32.6154 171.553 29.9437C165.677 18.6716 154.114 10.0574 142.104 8.00494C137.291 7.18203 136.103 7.13557 135.868 7.76038ZM128.317 13.9088C123.497 14.7332 117.555 17.2904 113.342 20.3534C110.529 22.3988 106.213 27.0085 104.313 29.9965C102.885 32.2426 102.873 32.292 103.69 32.4187C104.149 32.4897 104.578 32.3838 104.644 32.1831C105.061 30.9075 109.409 25.5712 111.516 23.7481C117.243 18.7935 122.688 16.2396 129.717 15.2104C131.962 14.8815 132.661 14.638 132.753 14.1511C132.849 13.6397 132.606 13.5274 131.477 13.5631C130.71 13.5869 129.288 13.7427 128.317 13.9088ZM135.795 14.1121C135.905 14.6931 136.386 14.8711 138.477 15.1049C148.319 16.2036 157.675 22.0576 163.418 30.7097C164.156 31.8229 164.857 32.4752 165.314 32.4752C165.949 32.4752 165.986 32.3712 165.613 31.6389C164.561 29.5742 161.861 26.1261 159.396 23.7001C153.542 17.9386 145.94 14.3054 138.344 13.6389C135.839 13.4193 135.671 13.4505 135.795 14.1121ZM128.989 20.0152C121.889 21.3555 114.554 25.9388 110.663 31.4646C109.633 32.9265 109.561 33.1733 110.095 33.3825C110.536 33.5546 111.125 33.1182 112.18 31.8408C116.834 26.2056 122.607 22.7389 129.415 21.4897C132.287 20.9626 132.819 20.756 132.819 20.1657C132.819 19.3555 132.542 19.3447 128.989 20.0152ZM135.737 20.1669C135.737 20.7381 136.111 20.9151 137.763 21.1254C145.273 22.0814 152.745 26.348 156.894 32.0482C157.797 33.2889 158.823 34.3106 159.174 34.3188C160.129 34.3411 159.96 33.7601 158.391 31.623C154.032 25.6871 147.044 21.3276 139.749 19.9929C136.079 19.3213 135.737 19.3361 135.737 20.1669ZM25.4802 21.1994C24.8765 21.3696 24.8444 22.6155 24.933 42.4457L25.0271 63.511H30.134H35.2409L35.3383 54.1895L35.4357 44.868L36.4669 43.8611C37.7889 42.5706 39.828 42.2 41.0642 43.0255L41.9772 43.6351L42.0746 53.5728L42.1716 63.511L47.3697 63.6139L52.5678 63.7173V52.4381C52.5678 39.2176 52.4157 38.2869 49.8644 35.8903C48.1248 34.2567 46.6376 33.7657 43.6308 33.8337C40.9562 33.8936 38.947 34.5615 37.0867 36.0085L35.4375 37.2912L35.339 29.2152L35.2409 21.1388L30.6812 21.0786C28.1733 21.0452 25.8329 21.0998 25.4802 21.1994ZM178.948 21.4176C178.852 21.6733 178.816 31.2487 178.868 42.6966L178.963 63.511H184.07H189.177L189.274 54.1895L189.372 44.868L190.419 43.8455C191.833 42.465 193.971 42.1692 195.201 43.1835L196.107 43.9306L196.221 53.8137L196.334 63.6968H201.419H206.504V52.3734C206.504 39.6265 206.34 38.5515 204.03 36.1051C202.445 34.4266 200.835 33.8289 197.931 33.8419C194.971 33.8553 192.992 34.4768 191.015 36.014L189.359 37.3023V29.3531C189.359 22.4475 189.283 21.3745 188.782 21.1786C188.465 21.0544 186.162 20.953 183.664 20.953C180.367 20.953 179.075 21.0805 178.948 21.4176ZM129.353 26.1648C124.834 27.0891 119.316 30.4317 116.384 34.0214C115.392 35.2365 114.58 36.3794 114.58 36.5612C114.58 37.622 115.601 36.9767 118.296 34.2117C121.959 30.4544 125.72 28.3421 130.075 27.5965C132.307 27.2144 132.819 27.0014 132.819 26.4558C132.819 25.7135 131.926 25.6384 129.353 26.1648ZM135.737 26.306C135.737 27.004 135.774 27.0185 139.02 27.608C144.095 28.5294 149.62 32.224 153.092 37.0187C154.366 38.7783 154.706 39.0544 155.063 38.6166C155.407 38.1944 155.252 37.7249 154.301 36.3032C150.615 30.7952 144.082 26.6509 137.974 25.9466C136.031 25.7228 135.737 25.77 135.737 26.306ZM275.811 30.2265V34.2965L273.714 34.408L271.616 34.5195L271.512 38.3293C271.396 42.6066 271.161 42.3011 274.443 42.1465L275.811 42.0822V48.3061C275.811 57.7629 276.503 60.4695 279.432 62.4807C281.203 63.6972 283.216 64.1495 286.807 64.1388C289.981 64.1287 294.415 63.1787 294.415 62.5085C294.415 62.3175 293.977 60.4974 293.442 58.4635C292.542 55.0466 292.411 54.7871 291.709 55.0451C291.291 55.1986 290.135 55.3265 289.139 55.3291C286.58 55.3358 286.402 54.8474 286.395 47.8073L286.39 42.1391H289.49H292.591V38.2364V34.3337H289.49H286.39V30.2451V26.1566H281.101H275.811V30.2265ZM130.904 29.1431C125.945 29.9935 119.919 33.9155 117.503 37.8654C116.836 38.9563 116.836 39.028 117.51 41.0623C117.889 42.2067 118.329 44.209 118.487 45.5114L118.775 47.8797L124.611 40.6716C127.821 36.7072 131.226 32.5302 132.177 31.3899C133.128 30.2492 133.908 29.1906 133.91 29.0371C133.913 28.7123 133.287 28.7342 130.904 29.1431ZM147.045 43.9172V54.7764H150.854C152.949 54.7764 154.761 54.6132 154.882 54.4136C155.003 54.214 155.2 53.2079 155.32 52.1775C155.487 50.7443 155.399 50.1489 154.949 49.6415C153.882 48.441 153.205 45.7935 153.305 43.2236C153.391 41.0236 153.285 40.5932 152.247 38.9492C151.612 37.9438 150.181 36.207 149.068 35.0897L147.045 33.058V43.9172ZM9.95382 34.0371C4.16554 34.8354 0.769471 38.4099 0.769471 43.7038C0.769471 45.9366 1.54316 47.8916 3.06793 49.5126C4.54856 51.0863 6.31663 52.033 10.4361 53.4561C13.9127 54.6574 14.4577 55.2833 12.8071 56.1776C11.4257 56.9262 7.80565 56.537 5.30584 55.3707C4.14475 54.8291 3.07997 54.5158 2.93953 54.6742C2.56818 55.0927 0.039917 60.9352 0.039917 61.3749C0.039917 61.8079 2.78523 63.0601 5.13038 63.6968C7.56818 64.3588 13.7085 64.2915 16.1134 63.5764C19.0999 62.6884 21.0828 61.0671 22.1859 58.6118C22.9833 56.8374 23.088 56.1776 22.9413 53.8516C22.7356 50.5852 21.8083 48.8365 19.4854 47.3356C17.7298 46.2008 14.8922 44.9865 12.6134 44.3948C11.8047 44.1844 10.8198 43.7581 10.4248 43.4474C9.71599 42.8895 9.71781 42.872 10.5677 42.1387C11.6993 41.1623 13.9945 41.1693 16.8736 42.1576C18.0946 42.5765 19.132 42.8694 19.179 42.8081C19.2866 42.6683 21.1007 38.6489 21.7945 37.0139C22.3121 35.7933 22.3114 35.791 21.0306 35.2458C18.2452 34.0597 13.5239 33.5446 9.95382 34.0371ZM103.026 33.9746C101.165 34.3545 99.6667 35.1172 98.746 36.1542C97.7626 37.2611 97.4353 37.1287 97.4353 35.6241V34.3128L92.4197 34.4162L87.404 34.5195L87.3099 55.4268L87.2154 76.3341H92.5079H97.8001V69.604C97.8001 63.3407 97.8443 62.8925 98.4385 63.1397C101.443 64.3915 106.86 64.3476 109.291 63.0523C113.057 61.0456 115.598 57.3804 116.445 52.7321C116.938 50.0322 116.656 44.4941 115.898 41.9889C114.815 38.4058 112.052 35.3246 109.108 34.4162C107.141 33.8088 104.704 33.6319 103.026 33.9746ZM162.913 34.2898C158.458 35.4848 155.431 39.1708 155.437 43.3939C155.444 48.396 158.464 51.4516 165.539 53.6126C166.983 54.0538 168.282 54.6069 168.424 54.8414C168.569 55.08 168.317 55.5699 167.855 55.9516C166.255 57.2715 161.41 56.5545 158.546 54.5738C157.791 54.0519 157.134 53.6747 157.086 53.736C157.038 53.797 156.668 54.9343 156.263 56.2631C155.858 57.5919 155.259 59.3016 154.933 60.0628L154.339 61.4466L155.475 62.0458C161.798 65.3768 171.884 64.8669 175.384 61.0389C178.738 57.3692 178.395 50.434 174.724 47.7248C173.19 46.5926 169.602 44.9854 167.279 44.3896C166.47 44.1822 165.485 43.7581 165.09 43.4474C164.381 42.8895 164.383 42.872 165.233 42.1387C166.365 41.1623 168.66 41.1693 171.539 42.1576C172.76 42.5765 173.8 42.8694 173.85 42.8081C174.32 42.2305 176.906 36.0371 176.77 35.813C176.671 35.6509 175.812 35.2302 174.859 34.8786C172.944 34.1712 164.843 33.772 162.913 34.2898ZM65.0745 35.2253C59.6915 37.0072 55.9555 41.6291 55.2055 47.4356C54.5212 52.7284 56.1401 58.0725 59.3373 61.075C65.1548 66.5391 75.3766 66.4079 80.8708 60.7984C83.4943 58.1197 84.7345 55.0299 84.9505 50.6332C85.2941 43.6429 82.9953 39.1934 77.5864 36.379C74.8152 34.9373 74.6113 34.8912 70.6713 34.805C68.0037 34.747 66.0846 34.8908 65.0745 35.2253ZM219.453 35.2071C213.85 37.0919 210.231 41.5191 209.399 47.5069C207.87 58.5081 216.324 66.7536 227.161 64.8308C234.631 63.505 239.343 57.6023 239.329 49.5876C239.318 43.2846 236.523 38.5668 231.308 36.0486C229.168 35.0153 228.547 34.8949 224.925 34.8102C222.342 34.75 220.393 34.8912 219.453 35.2071ZM251.554 35.271C247.46 36.8221 244.957 38.9258 243.317 42.1952C240.932 46.9464 240.932 52.9417 243.315 57.6922C247.475 65.9819 260.612 67.6973 267.35 60.8311C274.664 53.3796 272.352 39.5674 263.164 35.823C260.437 34.7113 253.858 34.3983 251.554 35.271ZM72.1724 42.9575C74.3749 44.8185 74.6886 54.3311 72.617 56.4419C72.0939 56.9753 71.3994 57.1923 70.2179 57.1923C68.8613 57.1923 68.398 57.0065 67.7031 56.1832C66.5344 54.7987 65.9252 51.5052 66.1893 47.9979C66.4279 44.8275 67.1399 43.0263 68.3634 42.4977C69.3603 42.0673 71.4118 42.3149 72.1724 42.9575ZM103.594 42.7453C104.061 43.0787 104.672 43.9094 104.952 44.5918C105.557 46.0689 105.636 51.6553 105.071 53.1725C104.083 55.8305 101.738 56.8444 99.2359 55.6948L97.8001 55.0351L97.8063 49.4233L97.8129 43.8116L98.9867 42.9753C100.377 41.9852 102.388 41.8845 103.594 42.7453ZM226.092 42.8668C227.617 43.8142 228.139 45.7307 228.121 50.3206C228.101 55.8197 226.861 57.7963 223.801 57.2113C221.286 56.7303 220.175 53.8743 220.434 48.5462C220.608 44.9431 221.187 43.3244 222.554 42.62C223.829 41.9629 224.739 42.0264 226.092 42.8668ZM258.069 42.6509C259.856 43.4117 260.308 44.8851 260.308 49.9445C260.308 52.6756 260.132 54.6433 259.821 55.3949C258.806 57.8435 255.172 57.9836 253.825 55.626C252.857 53.93 252.438 50.3109 252.838 47.0977C253.218 44.0369 253.697 43.0359 255.015 42.5416C256.307 42.0565 256.706 42.071 258.069 42.6509ZM129.78 49.0204L125.465 54.5905L129.738 54.6957C132.088 54.7533 134.075 54.7351 134.154 54.6544C134.233 54.5738 134.252 52.02 134.197 48.9792L134.095 43.45L129.78 49.0204ZM113.865 61.6343C113.511 62.0692 113.651 62.5071 114.588 63.8946C118.277 69.3583 124.699 73.4487 130.904 74.2869C132.685 74.5274 132.819 74.4909 132.819 73.7673C132.819 73.2038 132.588 72.989 131.983 72.989C130.428 72.989 126.812 71.8691 124.244 70.5916C121.24 69.0982 117.822 66.0712 115.858 63.1653C115.088 62.0265 114.424 61.095 114.381 61.095C114.339 61.095 114.107 61.3377 113.865 61.6343ZM150.51 66.1042C148.111 68.6302 147.041 69.4446 144.492 70.6908C142.688 71.5717 140.247 72.4169 138.656 72.7109C136.627 73.0856 135.891 73.3785 135.803 73.8457C135.654 74.6292 136.507 74.6515 139.749 73.9494C144.637 72.8912 149.702 69.8025 152.701 66.0515C154.272 64.0867 154.563 63.2865 153.771 63.1092C153.583 63.0672 152.115 64.4149 150.51 66.1042ZM108.842 65.1137C108.509 65.3293 108.642 65.7835 109.358 66.8736C114.334 74.4519 122.332 79.4931 131.086 80.5676C132.58 80.7509 132.819 80.6892 132.819 80.1216C132.819 79.5871 132.204 79.3444 129.556 78.8344C125.441 78.0416 122.164 76.7103 118.834 74.4776C116.062 72.6199 112.456 69.0075 110.763 66.3915C109.688 64.7305 109.563 64.6472 108.842 65.1137ZM120.963 66.1221C124.002 68.7923 129.573 71.1305 132.895 71.1305H134.278V67.9712V64.8119L126.891 64.826L119.504 64.8398L120.963 66.1221ZM147.045 65.7541C147.045 66.5525 147.147 66.641 147.713 66.3321C148.081 66.1314 148.593 65.7076 148.852 65.3898C149.261 64.8881 149.173 64.8119 148.184 64.8119C147.208 64.8119 147.045 64.9468 147.045 65.7541ZM157.718 67.1349C156.17 69.3104 153.105 72.4244 151.193 73.7654C150.316 74.3802 149.598 74.9723 149.598 75.0816C149.598 75.664 152.313 74.7779 153.506 73.8067C155.886 71.8668 160.177 66.7643 160.177 65.8734C160.177 64.9895 158.708 65.743 157.718 67.1349ZM102.177 66.2276C102.177 66.7212 104.677 70.8012 106.266 72.9024C111.76 80.1644 121.447 85.6958 130.212 86.5756C132.709 86.8264 132.819 86.8041 132.819 86.0459C132.819 85.3806 132.601 85.2535 131.451 85.2464C129.166 85.233 123.871 83.8756 120.781 82.5112C114.619 79.7901 109.111 74.9901 105.46 69.158C104.214 67.1661 103.213 65.9481 102.816 65.9399C102.465 65.9329 102.177 66.0622 102.177 66.2276ZM164.554 67.5995C163.933 68.5194 163.294 69.2721 163.135 69.2721C162.44 69.2721 159.755 72.5407 159.368 73.8576C159.132 74.6574 158.486 75.6465 157.918 76.0739C157.355 76.4984 156.894 77.0552 156.894 77.3113C156.894 78.0342 157.599 78.3048 158.187 77.8075C158.637 77.4265 158.718 77.5882 158.718 78.8661C158.718 79.6957 158.874 80.7936 159.066 81.3058C159.319 81.9849 159.259 82.5513 158.845 83.3973C158.173 84.7692 158.358 85.1052 159.455 84.5071C160.147 84.1295 160.41 84.2168 161.402 85.1531C163.666 87.2914 166.156 88.2281 169.574 88.2281C171.544 88.2281 174.578 87.4222 175.67 86.609C176.362 86.0927 176.356 86.0314 175.354 83.4935C173.906 79.8298 174.018 79.9421 172.473 80.6C169.452 81.8864 167.831 81.1214 167.563 78.2825C167.406 76.6151 167.497 76.2758 168.324 75.4328C169.388 74.349 169.964 74.2873 172.027 75.0358C172.827 75.3261 173.6 75.4432 173.744 75.296C173.888 75.1492 174.5 73.8104 175.102 72.3218L176.198 69.6144L175.027 68.887C173.471 67.9199 172.144 67.6984 168.801 67.8471C166.201 67.9627 165.497 67.7828 166.378 67.2278C166.934 66.8781 166.813 65.9269 166.213 65.9269C165.922 65.9269 165.176 66.6796 164.554 67.5995ZM181.28 68.2853C176.261 70.1771 173.809 76.4189 175.876 82.0466C177.884 87.5159 184.546 89.7973 190.232 86.9632C196.841 83.6682 197.252 73.1179 190.928 69.0863C189.367 68.0909 188.827 67.9612 185.895 67.8772C183.819 67.8181 182.121 67.9678 181.28 68.2853ZM206.025 68.0255C205.895 68.1578 203.652 68.2325 201.039 68.1916L196.29 68.1176L196.269 70.6462C196.257 72.0371 196.254 76.4363 196.262 80.4227L196.276 87.6705L200.469 87.7753L204.662 87.8798L204.762 81.673C204.834 77.1801 204.985 75.4242 205.309 75.3146C205.648 75.2001 205.781 76.682 205.856 81.4169L205.956 87.6705H210.151H214.346L214.529 81.5682C214.659 77.2206 214.84 75.422 215.158 75.3142C215.496 75.1997 215.63 76.6824 215.705 81.4169L215.805 87.6705H220H224.195L224.295 81.2058C224.425 72.8109 224.113 71.0123 222.207 69.1792C220.835 67.8593 220.631 67.7854 218.359 67.7854C216.66 67.7854 215.531 68.0076 214.494 68.5466L213.03 69.3078L211.821 68.5466C210.957 68.002 209.993 67.7854 208.437 67.7854C207.24 67.7854 206.155 67.8935 206.025 68.0255ZM173.927 69.5776L174.726 70.0188L173.967 71.8806L173.208 73.7424L170.908 73.5023C168.676 73.2692 168.573 73.2971 167.451 74.4404C166.349 75.5633 166.302 75.7301 166.444 78.0086C166.645 81.2159 167.56 82.2811 170.113 82.2811C171.095 82.2811 172.195 82.1187 172.559 81.9206C173.127 81.611 173.33 81.8291 173.994 83.4567C174.42 84.5001 174.768 85.4768 174.768 85.6274C174.768 86.1697 171.254 86.9168 168.932 86.8688C163.47 86.7562 160.265 83.8069 159.896 78.5546C159.588 74.165 161.778 70.7373 165.73 69.4249C167.561 68.8168 172.721 68.9131 173.927 69.5776ZM188.722 69.4308C192.303 70.7332 194.157 73.6112 194.144 77.8487C194.132 81.8403 192.36 84.8268 189.172 86.2314C187.207 87.097 183.063 87.0829 181.246 86.2046C178.086 84.6766 176.452 81.889 176.441 78.0067C176.425 72.4154 179.843 68.9331 185.347 68.9331C186.45 68.9331 187.969 69.1569 188.722 69.4308ZM210.881 69.4579C211.463 69.7646 212.103 70.308 212.302 70.6659C212.566 71.1383 212.807 71.2145 213.181 70.9447C213.465 70.7403 214.145 70.2511 214.694 69.8575C216.067 68.8714 219.187 68.6447 220.664 69.4234C222.709 70.5009 222.919 71.4167 222.919 79.289V86.3696H220H217.082L217.077 81.0731C217.071 74.4493 216.99 74.104 215.443 74.104C213.499 74.104 213.32 74.6522 213.402 80.3476C213.442 83.1572 213.383 85.7036 213.27 86.0058C213.106 86.4421 212.463 86.5306 210.148 86.4343L207.233 86.3131V80.7966C207.233 77.7625 207.134 75.0154 207.012 74.692C206.871 74.3185 206.347 74.104 205.573 74.104C203.507 74.104 203.221 74.9518 203.221 81.0631V86.3696H200.302H197.384V77.8209V69.2721H200.302C203.217 69.2721 203.221 69.2732 203.221 70.2589C203.221 71.1677 203.271 71.2008 203.859 70.6771C205.828 68.9227 208.865 68.3957 210.881 69.4579ZM99.2592 72.3039C99.2592 73.9735 101.614 77.2243 105.682 81.1709C112.193 87.4873 120.905 91.7074 129.353 92.6381C132.469 92.9816 132.819 92.9306 132.819 92.1356C132.819 91.7933 132.133 91.5443 130.721 91.3744C123.415 90.4954 117.585 88.3232 111.479 84.2061C108.225 82.012 103.579 77.3098 101.149 73.7532L99.2592 70.9867V72.3039ZM133.913 86.1838C133.913 94.4846 134.042 99.007 134.278 99.007C134.514 99.007 134.643 94.4846 134.643 86.1838C134.643 77.8829 134.514 73.3606 134.278 73.3606C134.042 73.3606 133.913 77.8829 133.913 86.1838ZM183.512 73.9304C182.917 74.6623 182.633 77.6689 182.954 79.8514C183.246 81.8306 184.405 82.881 185.881 82.5034C187.194 82.1677 187.679 80.9523 187.689 77.9747C187.7 74.6433 187.008 73.3606 185.2 73.3606C184.527 73.3606 183.768 73.6171 183.512 73.9304ZM186.271 75.3235C186.386 75.7896 186.43 77.2533 186.369 78.5758C186.264 80.8505 186.21 80.9802 185.363 80.9802C184.719 80.9802 184.396 80.7196 184.214 80.051C183.831 78.6475 183.844 76.498 184.243 75.4291C184.699 74.2073 185.98 74.1408 186.271 75.3235ZM143.078 77.8826C141.999 78.271 139.906 78.7806 138.427 79.0147C136.221 79.3641 135.737 79.563 135.737 80.1175C135.737 80.9029 135.867 80.9144 139.02 80.4074C142.454 79.8551 144.582 79.0415 145.329 77.9948C146.11 76.9017 145.839 76.8883 143.078 77.8826ZM149.051 77.8829C146.571 79.2808 145.62 81.4221 146.33 84.0083C146.977 86.3611 148.697 87.6453 151.194 87.6397C153.491 87.6345 154.837 86.8052 155.859 84.7651C157.081 82.3238 156.28 79.6767 153.865 78.1762C152.583 77.3797 150.201 77.2347 149.051 77.8829ZM142.841 84.3596C142.634 84.4465 140.993 84.7342 139.194 84.9992C136.518 85.3928 135.898 85.6054 135.792 86.1678C135.672 86.8034 135.861 86.8365 138.302 86.6053C142.125 86.2433 144.186 85.653 144.053 84.958C143.936 84.3458 143.446 84.1038 142.841 84.3596ZM145.221 89.9523C144.318 90.2471 141.856 90.7503 139.749 91.0703C137.643 91.3904 135.858 91.7111 135.783 91.7825C135.708 91.8542 135.738 92.156 135.85 92.4534C136.01 92.8782 136.547 92.9511 138.358 92.7938C140.619 92.5976 148.757 90.6961 149.18 90.2653C149.499 89.9404 148.432 89.3498 147.592 89.3855C147.191 89.4026 146.124 89.6576 145.221 89.9523Z" fill="#FCFCFC"/>
</svg>
