<svg width="122" height="191" viewBox="0 0 122 191" fill="none" xmlns="http://www.w3.org/2000/svg">
<path d="M35.7458 207.727C37.8554 208.807 40.0809 206.468 38.7892 204.532C31.7784 194.023 25.1396 176.341 35.7168 153.568C53.3557 115.592 64.089 95.9229 64.089 95.9229C64.089 95.9229 69.7979 118.876 85.2735 139.285C100.168 158.927 108.32 183.631 95.1775 204.21C93.9441 206.141 96.119 208.42 98.2149 207.387C114.484 199.373 132.731 183.296 134.79 151.303C135.549 141.527 134.411 127.841 128.718 110.57C121.398 88.6799 112.4 78.4658 107.194 74.0795C105.636 72.7672 103.214 73.9303 103.342 75.9192C104.859 99.5381 95.6327 105.532 90.3811 92.0242C88.2838 86.6292 87.0606 77.2977 87.0606 65.9338C87.0606 47.015 81.3612 27.5398 68.796 11.7142C65.5285 7.59867 61.7051 3.75305 57.3185 0.473656C55.7304 -0.713847 53.4284 0.479774 53.5738 2.41091C54.5387 15.2362 53.6645 51.9927 20.1806 95.9052C-10.1795 136.639 1.58493 167.922 5.75944 176.395C13.7407 192.627 24.8735 202.159 35.7458 207.727Z" fill="url(#paint0_linear_631_129)"/>
<defs>
<linearGradient id="paint0_linear_631_129" x1="-6.32191e-08" y1="104" x2="190.048" y2="106.791" gradientUnits="userSpaceOnUse">
<stop stop-color="#E7194A"/>
<stop offset="1" stop-color="#FFAA00"/>
</linearGradient>
</defs>
</svg>
