<svg width="100" height="100" viewBox="0 0 100 100" fill="none" xmlns="http://www.w3.org/2000/svg">
  <path d="M61.7187 26.5625C61.7187 26.5625 60.1562 40.625 51.5625 46.0938C42.9687 51.5625 48.4375 26.5625 48.4375 26.5625C48.4375 26.5625 39.0625 39.0625 39.0625 50C39.0625 60.9375 45.3125 64.8438 45.3125 64.8438C45.3125 64.8438 42.9688 59.375 46.875 54.6875C50.7812 50 53.9062 51.5625 53.9062 51.5625C53.9062 51.5625 54.6875 59.375 60.1562 62.5C65.625 65.625 62.5 73.4375 62.5 73.4375C62.5 73.4375 73.4375 67.1875 73.4375 56.25C73.4375 45.3125 61.7187 26.5625 61.7187 26.5625Z" fill="url(#paint0_linear_1_2)"/>
  <defs>
    <linearGradient id="paint0_linear_1_2" x1="50" y1="26.5625" x2="67.1875" y2="75" gradientUnits="userSpaceOnUse">
      <stop stop-color="#E7194A"/>
      <stop offset="1" stop-color="#FFAA00"/>
    </linearGradient>
  </defs>
</svg> 