<svg width="167" height="154" viewBox="0 0 167 154" fill="none" xmlns="http://www.w3.org/2000/svg">
<path fill-rule="evenodd" clip-rule="evenodd" d="M69.2726 1.66419C68.2195 2.8297 63.7646 9.26252 59.3725 15.9589L51.387 28.1351L38.4105 31.7939C31.2734 33.8073 24.2232 35.7073 22.7429 36.017C21.2635 36.3277 19.6455 37.3869 19.1484 38.3711C18.6133 39.4313 18.5974 46.6037 19.1114 55.9729L19.9779 71.7848L9.97896 84.2346C3.72529 92.0213 -0.0129428 97.5462 3.36735e-05 98.9883C0.012012 100.388 3.95188 106.206 10.0448 113.819L20.0697 126.346L19.5097 134.864C18.4147 151.517 18.5714 158.969 20.0457 160.448C20.8133 161.218 28.1311 163.555 36.3083 165.643L51.1754 169.439L60.0593 182.968C64.9454 190.409 69.7368 196.866 70.706 197.317C71.8909 197.868 75.5562 196.942 81.8918 194.492C87.0744 192.488 93.897 189.936 97.0543 188.82L102.794 186.792L108.534 188.82C111.69 189.936 118.433 192.457 123.515 194.424C128.599 196.391 133.435 198 134.263 198C135.095 198 139.854 191.743 144.918 183.987C152.258 172.746 154.674 169.784 157.129 169.015C158.812 168.487 165.727 166.609 172.495 164.84C179.262 163.071 185.471 160.95 186.292 160.127C187.451 158.963 187.662 157.037 187.24 151.507C186.942 147.59 186.446 140.326 186.14 135.365L185.583 126.346L193.236 116.826C204.894 102.324 206.559 99.8361 205.865 97.9651C205.522 97.0391 202.74 93.1788 199.684 89.3867C196.629 85.5955 193.266 81.3113 192.211 79.8662C191.157 78.4221 189.239 76.0791 187.95 74.66L185.606 72.0805L186.639 55.7414C187.708 38.827 187.487 37.2977 183.807 36.2665C182.896 36.011 176.086 34.1269 168.675 32.0785C154.335 28.117 153.382 27.6731 151.449 24.0493C148.43 18.3901 137.075 1.73535 135.561 0.745219C133.956 -0.304035 125.802 2.26248 107.732 9.50304L103.187 11.3239L88.7663 5.9514C80.8347 2.99606 73.6347 0.346363 72.7663 0.0617517C71.8979 -0.221858 70.3257 0.498689 69.2726 1.66419ZM65.8179 22.8116C61.4258 29.5291 57.6267 35.2333 57.3741 35.4859C57.1216 35.7394 50.5685 37.6435 42.8105 39.7189C35.0526 41.7934 28.3916 43.8689 28.0073 44.3309C27.624 44.7939 27.632 51.7107 28.0253 59.7029C28.8458 76.3677 29.7092 73.8824 17.9435 88.7092C12.4555 95.6251 10.1287 99.31 10.7446 100.111C11.2447 100.76 15.5229 106.123 20.2514 112.025L28.8488 122.758L28.3627 133.071C28.0952 138.743 27.6969 145.742 27.4783 148.625L27.079 153.868L31.2475 154.953C40.355 157.322 56.0406 161.904 56.929 162.456C57.447 162.777 61.5057 168.605 65.9486 175.406L74.028 187.772L82.1722 184.794C86.6511 183.156 93.0585 180.718 96.4095 179.375L102.502 176.935L109.386 179.543C113.172 180.979 119.752 183.433 124.008 184.997L131.748 187.841L140.039 175.132L148.33 162.424L159.751 159.087C166.031 157.253 172.697 155.279 174.564 154.701L177.958 153.651L177.363 138.349L176.767 123.048L185.607 111.971C190.468 105.88 194.742 100.413 195.105 99.8241C195.468 99.2348 192.252 94.3944 187.96 89.067C175.81 73.9916 176.759 76.6753 177.395 59.1898L177.95 43.921L174.56 42.8848C172.695 42.3155 167.352 40.8774 162.685 39.6909C147.607 35.8546 148.992 36.8728 140.226 23.1634C135.834 16.2936 131.664 10.6565 130.959 10.6355C130.253 10.6144 124.638 12.5937 118.482 15.0339C112.324 17.4732 106.118 19.7601 104.691 20.1148C102.844 20.5748 98.329 19.2981 89.0009 15.6793C81.7989 12.8843 75.4325 10.5974 74.8545 10.5974C74.2765 10.5974 70.2099 16.0942 65.8179 22.8116ZM149.375 63.1884C148.185 64.3829 148.007 66.6668 148.458 74.9637L149.018 85.2578L146.544 82.2513C145.182 80.5978 142.625 77.1093 140.862 74.4997C136.929 68.6802 134.549 67.213 131.606 68.7954C129.574 69.8868 129.498 70.464 129.992 80.9405C130.277 86.9895 130.172 91.5633 129.759 91.1044C129.345 90.6444 126.46 86.774 123.348 82.5019C119.746 77.5603 117.002 74.7352 115.802 74.7352C113.601 74.7352 110.779 77.2786 110.779 79.2619C110.779 80.5747 127.815 104.826 132.063 109.56C133.176 110.801 135.075 111.815 136.285 111.815C140.328 111.815 140.947 109.729 140.209 98.5834L139.526 88.2643L145.542 96.3967C151.966 105.079 153.73 106.393 156.768 104.761C158.437 103.865 158.685 102.633 158.635 95.4948C158.537 81.4225 157.032 64.8239 155.709 63.2234C154.115 61.2963 151.275 61.2803 149.375 63.1884ZM93.3111 82.6011C81.6452 86.8773 80.8377 87.3282 80.8207 89.5761C80.7977 92.5715 92.0743 123.27 93.936 125.28C95.7067 127.191 95.9084 127.153 107.498 122.744C117.977 118.758 119.297 117.988 119.565 115.707C119.734 114.252 119.164 112.563 118.244 111.797C116.866 110.649 115.392 110.85 108.402 113.135C103.88 114.614 99.9131 115.823 99.5877 115.823C99.0028 115.823 96.8048 110.229 96.8048 108.74C96.8048 108.316 99.6905 107.006 103.217 105.827C110.556 103.376 112.253 101.825 111.387 98.366C110.477 94.7221 107.794 94.4445 100.209 97.2085C96.4554 98.5764 93.2133 99.5234 93.0036 99.313C92.794 99.1035 92.5535 97.467 92.4676 95.6772C92.3169 92.5004 92.4876 92.3621 99.7065 89.8236C108.187 86.8412 110.395 84.1975 107.285 80.7461C105.027 78.2417 105.305 78.2046 93.3111 82.6011ZM68.6058 91.852C66.1802 93.27 66.4008 95.6391 69.8765 105.525C71.5355 110.245 72.6894 114.313 72.4399 114.564C72.1903 114.814 67.1265 111.8 61.1872 107.865C55.248 103.931 49.3726 100.453 48.1299 100.139C45.5675 99.4884 42.9024 101.263 42.9024 103.618C42.9024 105.682 53.8415 136.992 55.1312 138.622C56.3919 140.214 60.1052 140.242 61.6684 138.673C63.4931 136.841 63.1607 134.822 59.4534 125.194C57.5758 120.318 56.2063 116.163 56.4089 115.96C56.6115 115.755 61.9808 119.024 68.3403 123.222C80.5532 131.286 85.1009 132.72 86.3108 128.892C86.8687 127.127 84.3094 118.86 76.8359 98.2858C74.1118 90.7867 72.5357 89.554 68.6058 91.852Z" fill="#1C1C1C"/>
</svg>
