<svg width="100" height="100" viewBox="0 0 100 100" fill="none" xmlns="http://www.w3.org/2000/svg">
  <path d="M74.0626 25C73.1979 25 72.3646 25.3438 71.7396 25.9792C71.1146 26.6146 70.7813 27.4479 70.7813 28.3125V61.9688L37.1251 28.3125C36.5001 27.6771 35.6667 27.3333 34.8021 27.3333C33.9374 27.3333 33.1042 27.6771 32.4792 28.3125C31.8542 28.9479 31.5209 29.7812 31.5209 30.6458C31.5209 31.5104 31.8542 32.3438 32.4792 32.9688L66.1357 66.6249H32.5001C31.6354 66.6249 30.8021 66.9686 30.1771 67.604C29.5521 68.2394 29.2188 69.0727 29.2188 69.9373C29.2188 70.8019 29.5521 71.6353 30.1771 72.2707C30.8021 72.906 31.6354 73.2498 32.5001 73.2498H74.0626C74.9272 73.2498 75.7605 72.906 76.3856 72.2707C77.0106 71.6353 77.3438 70.8019 77.3438 69.9373V28.3125C77.3438 27.4479 77.0001 26.6146 76.3751 25.9792C75.7501 25.3438 74.9272 25 74.0626 25Z" fill="#1C1C1C"/>
</svg> 