<?xml version="1.0" encoding="utf-8"?>
<!-- Generator: Adobe Illustrator 24.0.3, SVG Export Plug-In . SVG Version: 6.00 Build 0)  -->
<svg version="1.1" id="Layer_1" xmlns="http://www.w3.org/2000/svg" xmlns:xlink="http://www.w3.org/1999/xlink" x="0px" y="0px"
	 viewBox="0 0 2479.5 809.8" style="enable-background:new 0 0 2479.5 809.8;" xml:space="preserve">
<style type="text/css">
	.st0{fill:#FFFFFF;}
</style>
<path class="st0" d="M1547.4,633.3c0-10.7,1-18.9,3.1-24.2c0.6-1.5,1.6-4,8-4c5.4,0,7.2,1.8,8.4,4.8c2.3,5.8,3.5,14.2,3.5,25.1
	c0,13.4-1.6,20.6-2.9,24.2c-0.5,1.4-1.3,3.6-7.6,3.6c-5.5,0-7.5-2-8.8-5l0,0C1548.6,652.2,1547.4,643.9,1547.4,633.3 M1542.2,605.8
	c-2.5,6.4-3.8,15.6-3.8,27.5c0,11.9,1.5,21.3,4.5,28.2c3,6.9,8.7,10.4,17,10.4c8.3,0,13.6-3.2,15.9-9.5c2.3-6.3,3.5-15.4,3.5-27.3
	c0-12.1-1.4-21.6-4.2-28.5c-2.8-6.9-8.4-10.4-16.7-10.4C1550.1,596.2,1544.7,599.4,1542.2,605.8 M1482.7,635
	c0-9.9,1.6-19.5,4.7-28.6c3.1-9.2,7.8-17.2,14.2-24.2c6.3-7,14.3-12.6,23.8-16.9c9.5-4.3,20.7-6.4,33.6-6.4c12.8,0,24,2,33.6,6.1
	c9.5,4.1,17.5,9.6,23.8,16.4c6.3,6.8,11,14.7,14.2,23.6c3.1,9,4.7,18.4,4.7,28.3c0,9.7-1.6,19.2-4.7,28.3c-3.1,9.2-7.8,17.3-14,24.4
	c-6.2,7.1-14.2,12.9-23.8,17.2c-9.6,4.4-20.9,6.6-33.7,6.6c-12.9,0-24.1-2-33.6-6.1c-9.6-4.1-17.5-9.6-23.8-16.5
	c-6.3-6.9-11-14.9-14.2-23.9C1484.2,654.2,1482.7,644.8,1482.7,635 M1478.9,666.1c3.5,10.2,8.9,19.3,16,27.1
	c7.2,7.8,16.2,14.1,26.9,18.7c10.6,4.5,23.1,6.8,37.1,6.8c14.1,0,26.7-2.5,37.4-7.4c10.7-4.9,19.8-11.4,26.8-19.5
	c7-8,12.3-17.2,15.7-27.4c3.4-10.1,5.2-20.6,5.2-31.2c0-10.9-1.7-21.4-5.2-31.3c-3.5-10.1-8.9-19.1-16-26.8
	c-7.2-7.7-16.2-13.9-26.8-18.5c-10.6-4.6-23.1-6.9-37.1-6.9c-14.1,0-26.6,2.4-37.2,7.2c-10.7,4.8-19.7,11.2-26.8,19.1
	c-7.1,7.9-12.5,17.1-16,27.3c-3.4,10.1-5.1,20.7-5.1,31.5C1473.8,645.7,1475.5,656.1,1478.9,666.1 M1343.9,634.7
	c0-12.1,2-22.8,6-32.3c4-9.4,9.7-17.4,16.9-23.8c7.2-6.4,15.9-11.3,26.1-14.8c10.2-3.4,21.4-5.1,33.6-5.1c11.7,0,21.1,1.1,28.3,3.2
	c7.2,2.1,12.4,4.3,15.8,6.4l-14.3,34.8c-2.9-1.6-6.6-2.9-11.1-4.1c-4.5-1.2-9.8-1.7-16.1-1.7c-9.2,0-16.3,3-21.6,9.1
	c-5.3,6-7.9,14.9-7.9,26.6c0,11.9,2.5,21.1,7.6,27.7c5.1,6.6,12.7,9.9,23.1,9.9c7.6,0,13.5-0.8,17.8-2.5c4.3-1.6,7.6-3,9.9-3.9
	l14.3,33.9c-1.8,1-3.9,2.2-6.6,3.5c-2.6,1.4-5.8,2.6-9.5,3.8c-3.7,1.2-8.1,2.2-13.1,3.1c-5.1,0.9-11,1.3-17.8,1.3
	c-12.3,0-23.4-1.6-33.3-5c-10-3.3-18.5-8.1-25.7-14.5c-7.2-6.3-12.7-14.2-16.6-23.5C1345.9,657.5,1343.9,646.8,1343.9,634.7
	 M1338.3,610.4c-6.4,6.4-13,12.5-20,18.3c2.5,2.5,4.7,5.2,6.7,8c3.6-3,7.1-6.1,10.6-9.2c-0.2,2.4-0.6,4.6-0.6,7.1
	c0,13.2,2.2,25.2,6.6,35.6c0.5,1.1,1.2,2,1.7,3.1c-2.4,1.8-4.9,3.6-7.3,5.4c-0.5,5.5-1.7,10.8-3.6,15.8c5.4-3.8,10.8-7.7,16.1-11.7
	c3.5,5.2,7.4,10.1,12,14.2c8,7.1,17.7,12.6,28.8,16.3c10.8,3.6,23,5.4,36.2,5.4c7.3,0,13.8-0.5,19.3-1.4c5.4-0.9,10.3-2.1,14.3-3.3
	c4.2-1.3,7.8-2.8,10.9-4.4c2.7-1.4,5-2.6,6.8-3.7l7-3.9l-20.9-49.4l-8.2,3.4c-2.3,1-5.5,2.2-9.7,3.9c-2.2,0.9-6.6,1.9-14.6,1.9
	c-9.9,0-13.9-3.7-16-6.4c-3.8-5-5.8-12.5-5.8-22.3c0-9.4,1.9-16.4,5.7-20.7c3.6-4.1,8.3-6,14.9-6c5.4,0,10.1,0.5,13.8,1.5
	c3.8,1,6.9,2.1,9.2,3.3l8.7,4.6l20.9-50.7l-6.2-4c-4.1-2.6-10-5.1-18.1-7.5c-8.1-2.4-18.2-3.6-30.9-3.6c-11.6,0-22.4,1.7-32.5,4.6
	c3.4-5.9,6.8-11.9,9.8-18c-3.8,0.2-7.6,0.6-11.7,0.6c-0.2,0-0.3,0-0.4,0c-4.2,8.3-9.1,16.1-14.1,23.9c-6.1,3.1-11.9,6.7-16.8,11.1
	c-8.2,7.3-14.6,16.3-19.2,27C1340.3,602.5,1339.4,606.5,1338.3,610.4 M1277.7,610.2c28.6-20.4,52.7-46.6,70.8-76.8
	c-3.8-0.7-7.5-1.5-11-2.5c-20.5,33.4-49,61.4-82.6,81.5c5.6-1.6,11.5-2.7,17.6-2.7C1274.3,609.7,1275.9,610.1,1277.7,610.2
	 M1236.8,442.3h65.1c0,0-0.1,0.3-0.2,0.7c0-0.2,0.1-0.3,0.2-0.5c3.7-12.7,6.4-26.2,5.3-35.7c-2.2-2.4-4.1-4.9-5.9-7.5
	c-8.4-12.3-12.6-28.1-12.6-46.7c0-7.1,1-14.2,2.6-21l-5-9.6c-3.5-6.6-7.4-12.1-11.9-18.4l-0.1-0.1l0,0
	c-10.6-14.9-23.7-27.8-37.6-37.7V442.3z M1249.1,525.8L1249.1,525.8l-12.3,0v16.3v0.1c0,0,9.5-5.9,20.2-16.4c0,0,0-0.1,0.1-0.1
	H1249.1z M1272.5,715.1c23.8,0,43.2-19,43.2-42.4c0-23.4-19.3-42.4-43.2-42.4c-23.8,0-43.2,19-43.2,42.4
	C1229.3,696.1,1248.6,715.1,1272.5,715.1 M1242.8,728.3c-31.5,10.9-64.9,17.5-99.8,18.7v10.7c40.6-1.3,79.3-9.7,115.3-23.6
	C1252.8,732.8,1247.7,730.8,1242.8,728.3 M1209.8,685.8c-21.4,6-43.6,9.9-66.7,10.8v10.7c24.2-0.9,47.5-5,69.9-11.3
	C1211.7,692.8,1210.5,689.4,1209.8,685.8 M1231.4,624.7c-27.1,12.4-56.9,20-88.3,21.5v10.7c25.8-1.2,50.5-6.3,73.6-14.6
	C1220.5,635.5,1225.4,629.6,1231.4,624.7 M1143.1,595.3V606c65.4-3.7,122.7-38.4,156.9-89.9c-2.5-1.4-4.9-2.7-7-4.1l-2.2-1.4
	C1258.5,559,1204.6,591.6,1143.1,595.3 M1143.1,203.6v10.6c59.6,3.6,112,34.3,144.6,80.2c4.9,6.9,9.3,13.1,13.2,20.6
	c0.6-1.5,4.5-8.1,5.9-10.3C1273.7,247.1,1213.1,207.6,1143.1,203.6 M1143.1,152.7v10.7c81.2,3.8,151.9,47.9,192.9,112.7
	c3-1.8,5.9-3.7,9.3-5.3C1302.4,202.8,1228.2,156.5,1143.1,152.7 M1143.1,102.2v10.7c103.4,4,193.1,62,241.8,146.6
	c3.9-0.5,8-0.5,12-0.8C1346.9,168.5,1252.3,106.3,1143.1,102.2 M836,577.5V598c60.7,92.5,163.5,154.9,281.1,159.7V747
	C997.2,742,893.3,675.1,836,577.5 M922.6,526.8c-3.2,1.4-6.6,2.1-9.9,3.2c41.3,71.9,116.9,121.7,204.4,126.7V646
	c-82.8-4.9-154.3-51.8-194-119.5C922.9,526.7,922.8,526.8,922.6,526.8 M1117.1,696.5c-107.4-5.3-199.5-68.8-245.8-159.6
	c-4.4,0-8.3-0.4-12.2-0.8c47.1,97.2,144.3,165.7,258.1,171.1V696.5z M961.8,498.1c-1.9,2.1-4.2,3.7-6.1,5.6
	c32.4,57.4,92.1,97.1,161.4,102V595c-66.3-5-123.4-43.6-153.7-99.2C962.9,496.6,962.4,497.4,961.8,498.1 M985.1,309.6l-2.4,3.7
	c9.9,19.3,15.5,44,17,72.2c0.3-0.2,1.2-1.6,1.2-1.6l126.9-153.7l0.4-0.4C1070.3,230.8,1016.9,260.4,985.1,309.6 M1128.8,351.3h-1.2
	l-71.8,91h73V351.3z M1128.8,525.8l-121.9,0.1h-0.1c31.8,32.6,75.4,51.8,122,52.6V525.8z M193.7,439.5c0-10-1.3-18.7-3.9-26.2
	c-2.6-7.4-6.5-14-11.6-19.6c-5.2-5.6-11.4-10.6-18.7-14.8c-7.3-4.2-15.4-8.1-24.5-11.6c-6.8-2.6-13.3-4.8-19.6-6.5
	c-6.3-1.8-11.8-3.4-16.5-4.8c-4.7-1.5-8.4-3-11.1-4.6c-2.7-1.6-4.1-3.9-4.1-6.8c0-3.5,2-6.5,6.1-8.7c4-2.3,11.2-3.4,21.6-3.4
	c10.3,0,19.9,1.4,28.8,4.4c8.9,2.9,15.7,5.7,20.6,8.2l26.6-58.1c-6.5-3.5-16.2-7.2-29.3-10.9c-13.1-3.7-30.3-5.6-51.6-5.6
	c-14.5,0-27.9,1.8-40.2,5.3c-12.3,3.6-22.8,8.6-31.5,15.3c-8.7,6.6-15.5,14.9-20.4,24.7c-4.8,9.9-7.3,21.1-7.3,33.7
	c0,16.5,3.5,30,10.7,40.5c7.1,10.5,18.1,19.6,32.9,27.4c8.4,4.5,16.5,8,24.5,10.4c7.9,2.4,15,4.6,21.3,6.5c6.3,1.9,11.3,3.8,15,5.6
	c3.7,1.8,5.6,4.1,5.6,7c0,8.1-10.7,12.1-32,12.1c-6.1,0-12.2-0.7-18.2-2.2c-6-1.5-11.6-3.2-16.7-5.3c-5.2-2.1-9.9-4.3-14.1-6.5
	s-7.4-4.2-9.7-5.8l-26.6,59.1c7.4,4.8,18.5,9.9,33.2,15c14.7,5.2,34.2,7.8,58.4,7.8c32.3,0,57.4-6.6,75.3-19.9
	C184.7,487.8,193.7,467.3,193.7,439.5 M355.7,515.1h86.7V349.8c0-11.3-1.3-21.8-3.9-31.5c-2.6-9.7-6.7-18.1-12.4-25.2
	c-5.7-7.1-13.1-12.7-22.3-16.7c-9.2-4-20.6-6.1-34.2-6.1c-9.4,0-17.8,1-25.2,2.9c-7.4,1.9-14,4.4-19.9,7.5c-5.8,3.1-11,6.4-15.5,9.9
	c-4.5,3.6-8.4,7-11.6,10.2V166.2h-86.7v348.8h86.7V361c2.6-2.9,6.8-6.9,12.7-11.9c5.9-5,13-7.5,21.5-7.5c8.5,0,14.6,2,18.3,6.1
	c3.7,4,5.6,10.9,5.6,20.6V515.1z M623.7,403.5c0,19.7-1.9,34.8-5.8,45.3c-3.8,10.5-12.7,15.8-26.5,15.8c-13.8,0-23.2-5.7-28.1-17.2
	c-5-11.5-7.5-27-7.5-46.7s2.1-34.9,6.3-45.5c4.2-10.7,13.1-16,26.9-16c13.8,0,23,5.7,27.7,17.2C621.3,367.8,623.7,383.5,623.7,403.5
	 M708.4,447.6c5.2-15.2,7.8-30.8,7.8-47c0-16.5-2.6-32.1-7.8-47c-5.2-14.9-13-27.9-23.5-39.2c-10.5-11.3-23.7-20.4-39.5-27.1
	c-15.8-6.8-34.4-10.2-55.7-10.2c-21.3,0-39.9,3.6-55.7,10.7c-15.8,7.1-29,16.5-39.5,28.1c-10.5,11.6-18.3,25-23.5,40.2
	c-5.2,15.2-7.8,31-7.8,47.5c0,16.2,2.6,31.7,7.8,46.8c5.2,15,13,28.3,23.5,39.7c10.5,11.5,23.7,20.6,39.5,27.4
	c15.8,6.8,34.4,10.2,55.7,10.2c21.3,0,40-3.6,56-10.9c16-7.3,29.1-16.8,39.5-28.6C695.5,476.3,703.3,462.8,708.4,447.6 M822.2,354.7
	c1-1.3,2.4-2.9,4.4-4.8c1.9-1.9,4.3-3.9,7.1-5.8c2.8-1.9,5.9-3.6,9.3-4.8c3.4-1.3,7.4-1.9,11.9-1.9c11.1,0,19.6,4.7,25.6,14
	c6,9.4,9,23.9,9,43.6c0,21-3.3,36.3-9.8,46c-6.5,9.7-15.9,14.5-28.3,14.5c-7.2,0-13-1.2-17.6-3.6c-4.6-2.4-8.5-5.1-11.7-8V354.7z
	 M820.2,276.2h-84.8v344.9h86.7V506.8c4.2,3.2,10.6,6.4,19,9.4c8.5,3.1,19.2,4.6,32.2,4.6c15.9,0,30.6-3,43.9-9
	c13.3-6,24.8-14.4,34.4-25.2c9.6-10.8,17.1-24,22.4-39.5c5.4-15.5,8-32.8,8-51.8c0-40.4-8.5-71.3-25.3-92.8
	c-16.9-21.5-40.9-32.2-72.1-32.2c-15.9,0-28.9,2.9-39,8.7c-10.1,5.8-18.5,12.9-25.3,21.3V276.2z M1117.1,62.6V51.9
	c-138.6,5.6-256.7,91.3-309.4,212h11.9C871.5,149.2,984.6,68.2,1117.1,62.6 M1117.1,113v-10.7c-108.5,5.2-202.3,67.5-251.6,157.7
	c4.3-0.7,8.7-1.2,13.3-1.4C927.2,175.4,1015.3,118,1117.1,113 M1117.1,163.9v-11.1c-81.3,4.6-152.4,47.8-195.2,111.6
	c3.5,1.2,7.3,2,10.6,3.5C973.5,208.4,1040.6,168.5,1117.1,163.9 M1117.1,214.4v-10.7c-63.7,4.6-119.3,38.4-153.1,88.5
	c1.1,1.3,2.4,2.2,3.5,3.5c1.3,1.7,2.2,3.8,3.5,5.6C1002.6,252.4,1055.8,219.1,1117.1,214.4 M1127,213.5h6.1V0h-6.1V213.5z
	 M1127,809.1h6.1V595.9h-6.1V809.1z M1441.9,260.1c4.6,0.6,8.9,1.3,12.9,2.2c-53.5-120.8-172.5-206-311.7-210.5v10.7
	C1275.4,66.9,1388.7,146.6,1441.9,260.1 M1322.3,416.6C1322.3,416.6,1322.3,416.6,1322.3,416.6
	C1322.2,416.7,1322.2,416.7,1322.3,416.6L1322.3,416.6z M1650.8,515.1h86.7V349.8c0-11.3-1.3-21.8-3.9-31.5
	c-2.6-9.7-6.7-18.1-12.4-25.2c-5.7-7.1-13.1-12.7-22.3-16.7c-9.2-4-20.6-6.1-34.1-6.1c-9.4,0-17.8,1-25.2,2.9
	c-7.4,1.9-14,4.4-19.9,7.5c-5.8,3.1-11,6.4-15.5,9.9c-4.5,3.6-8.4,7-11.6,10.2V166.2H1506v348.8h86.7V361c2.6-2.9,6.8-6.9,12.7-11.9
	c5.9-5,13-7.5,21.5-7.5c8.5,0,14.6,2,18.3,6.1c3.7,4,5.6,10.9,5.6,20.6V515.1z M1777.2,564.5c6,3.8,10.3,9.1,13,15.9
	c6.4-7.4,13-12.8,19.9-16.4c6.9-3.5,15.5-5.2,25.8-5.2c7.8,0,14.3,1.2,19.6,3.6c5.3,2.4,9.6,5.8,12.8,10.1c3.2,4.3,5.5,9.4,6.8,15.2
	c1.4,5.8,2,12.2,2,19v99.6H1825v-88.5c0-5.8-0.9-10-2.6-12.4c-1.8-2.4-4.9-3.6-9.4-3.6c-4.1,0-7.6,1.2-10.5,3.6
	c-2.8,2.4-5.5,5.1-7.8,8v92.9h-52.3v-88.5c0-5.8-1-10-3.1-12.4c-2.1-2.4-5.1-3.6-9-3.6c-5.1,0-9.1,1.4-11.8,4.2
	c-2.8,2.8-4.9,5.1-6.5,6.9v93.4h-52.3v-144h51.1v16.1c1.9-2.3,4.2-4.6,6.9-6.9c2.6-2.2,5.7-4.3,9.1-6.3c3.4-1.9,7.3-3.5,11.6-4.7
	c4.3-1.2,9.3-1.7,14.9-1.7C1763.3,558.8,1771.2,560.7,1777.2,564.5 M1782,557c-7.4-4.7-17-7.1-28.7-7.1c-6.4,0-12.2,0.7-17.3,2.1
	c-5,1.3-9.6,3.2-13.7,5.5c-0.9,0.5-1.8,1-2.7,1.6v-5.7h-68.9v161.8h70.1v-98.9c1.1-1.2,2.5-2.6,3.9-4.1c1-1,2.8-1.6,5.4-1.6
	c0.7,0,1.8,0.1,2.2,0.5c0,0,1,1.5,1,6.7v97.4h70.1v-98.5c1.5-1.6,3-3.1,4.7-4.5c0.8-0.7,2.1-1.5,4.7-1.5c1.4,0,2.2,0.2,2.3,0.1
	c0.2,0.6,0.9,2.5,0.9,7v97.4h70.1V606.7c0-7.5-0.8-14.6-2.3-21c-1.6-7-4.5-13.3-8.4-18.5c-4.1-5.5-9.5-9.8-16.2-12.9
	c-6.5-3-14.3-4.4-23.3-4.4c-11.6,0-21.7,2.1-29.8,6.2c-4.8,2.5-9.6,5.7-14.1,9.8C1789.2,562.5,1785.8,559.5,1782,557 M1920.9,403.5
	c0,19.7-1.9,34.8-5.8,45.3c-3.8,10.5-12.7,15.8-26.5,15.8c-13.8,0-23.2-5.7-28.1-17.2c-5-11.5-7.5-27-7.5-46.7s2.1-34.9,6.3-45.5
	c4.2-10.7,13.1-16,26.9-16c13.8,0,23,5.7,27.7,17.2C1918.6,367.8,1920.9,383.5,1920.9,403.5 M2005.7,447.6c5.2-15.2,7.8-30.8,7.8-47
	c0-16.5-2.6-32.1-7.8-47c-5.2-14.9-13-27.9-23.5-39.2c-10.5-11.3-23.7-20.4-39.5-27.1c-15.8-6.8-34.4-10.2-55.7-10.2
	c-21.3,0-39.9,3.6-55.7,10.7c-15.8,7.1-29,16.5-39.5,28.1c-10.5,11.6-18.3,25-23.5,40.2c-5.2,15.2-7.8,31-7.8,47.5
	c0,16.2,2.6,31.7,7.8,46.8c5.2,15,13,28.3,23.5,39.7c10.5,11.5,23.6,20.6,39.5,27.4c15.8,6.8,34.4,10.2,55.7,10.2
	c21.3,0,40-3.6,56-10.9c16-7.3,29.1-16.8,39.5-28.6C1992.8,476.3,2000.6,462.8,2005.7,447.6 M2192.7,403.5c0,19.7-1.9,34.8-5.8,45.3
	c-3.8,10.5-12.7,15.8-26.5,15.8c-13.8,0-23.2-5.7-28.1-17.2c-5-11.5-7.5-27-7.5-46.7s2.1-34.9,6.3-45.5c4.2-10.7,13.1-16,26.9-16
	c13.8,0,23,5.7,27.7,17.2C2190.3,367.8,2192.7,383.5,2192.7,403.5 M2277.4,447.6c5.2-15.2,7.8-30.8,7.8-47c0-16.5-2.6-32.1-7.8-47
	c-5.2-14.9-13-27.9-23.5-39.2c-10.5-11.3-23.7-20.4-39.5-27.1c-15.8-6.8-34.4-10.2-55.7-10.2c-21.3,0-39.9,3.6-55.7,10.7
	c-15.8,7.1-29,16.5-39.5,28.1c-10.5,11.6-18.3,25-23.5,40.2c-5.2,15.2-7.8,31-7.8,47.5c0,16.2,2.6,31.7,7.8,46.8
	c5.2,15,13,28.3,23.5,39.7c10.5,11.5,23.6,20.6,39.5,27.4c15.8,6.8,34.4,10.2,55.7,10.2c21.3,0,40-3.6,56-10.9
	c16-7.3,29.1-16.8,39.5-28.6C2264.5,476.3,2272.3,462.8,2277.4,447.6 M2408.9,339.7h52.8v-63.5h-52.8v-69.3h-86.7v69.3h-36.8v63.5
	h36.8v97.9c0,12.6,1.4,24,4.1,34.1c2.7,10.2,7.4,18.9,14,26.2c6.6,7.3,15.6,12.9,26.9,17c11.3,4,25.5,6.1,42.6,6.1
	c16.5,0,30.3-1.4,41.4-4.4c11.1-2.9,19.8-5.8,25.9-8.7l-17-64.4c-2.6,1.3-6.5,2.8-11.9,4.6c-5.3,1.8-11.5,2.7-18.7,2.7
	c-7.8,0-13.2-2.5-16.2-7.5c-3.1-5-4.6-13.3-4.6-24.9V339.7z"/>
<path class="st0" d="M1494.8,439.6c0-10-1.3-18.7-3.9-26.2c-2.6-7.4-6.5-14-11.6-19.6c-5.2-5.6-11.4-10.6-18.7-14.8
	c-7.3-4.2-15.4-8.1-24.5-11.6c-6.8-2.6-13.3-4.8-19.6-6.5c-6.3-1.8-11.8-3.4-16.5-4.8c-4.7-1.4-8.4-3-11.1-4.6
	c-2.7-1.6-4.1-3.9-4.1-6.8c0-3.5,2-6.5,6.1-8.7c4-2.3,11.2-3.4,21.6-3.4c10.3,0,19.9,1.4,28.8,4.4c8.9,2.9,15.7,5.7,20.6,8.2
	l26.6-58.1c-6.5-3.5-16.2-7.2-29.3-10.9c-13.1-3.7-30.3-5.6-51.6-5.6c-14.5,0-27.9,1.8-40.2,5.3c-12.3,3.6-22.8,8.6-31.5,15.3
	c-8.7,6.6-15.5,14.9-20.4,24.7c-4.8,9.9-7.3,21.1-7.3,33.7c0,16.5,3.5,30,10.7,40.5c7.1,10.5,18.1,19.6,32.9,27.4
	c8.4,4.5,16.6,8,24.5,10.4c7.9,2.4,15,4.6,21.3,6.5c6.3,1.9,11.3,3.8,15,5.6c3.7,1.8,5.6,4.1,5.6,7c0,8.1-10.7,12.1-32,12.1
	c-6.1,0-12.2-0.7-18.2-2.2c-6-1.5-11.5-3.2-16.7-5.3c-5.2-2.1-9.9-4.3-14-6.5c-4.2-2.3-14-9.4-16.3-11c0,0-7.4,39.1-22.1,62.9
	c7.4,4.8,20.5,11.3,35.2,16.4c14.7,5.2,34.2,7.8,58.4,7.8c32.3,0,57.4-6.6,75.3-19.9C1485.8,487.9,1494.8,467.4,1494.8,439.6"/>
</svg>
